<svg width="1080" height="1920" viewBox="0 0 1080 1920" fill="none" xmlns="http://www.w3.org/2000/svg">
  <style>
    /* Define keyframes for rotating color animation */
    @keyframes rotateColor {
      0% {
        filter: hue-rotate(0deg);
      }
      100% {
        filter: hue-rotate(360deg);
      }
    }

    /* Apply rotating color animation to the path element with id "Festival" */
    #Festival.rotating-color {
      fill: hsl(0, 80%, 80%);
      animation: rotateColor 2s linear infinite;
    }
  </style>
<g id="Lichtbild-Carousel" clip-path="url(#clip0_22_114)">
<g id="Title" filter="url(#filter0_d_22_114)">
<path d="M100.375 1338.13L50.35 1101.8L114.175 1088L153.505 1271.89L251.14 1250.84L262.525 1303.63L100.375 1338.13ZM274.573 1328.47L292.858 1153.21L354.613 1159.76L336.328 1334.68L274.573 1328.47ZM269.398 1102.84C269.398 1082.48 285.268 1066.61 305.623 1066.61C326.323 1066.61 341.848 1082.48 341.848 1102.84C341.848 1123.54 326.323 1139.06 305.623 1139.06C285.268 1139.06 269.398 1123.54 269.398 1102.84ZM461.186 1335.71C405.986 1335.71 365.621 1296.38 365.621 1242.56C365.621 1188.74 405.986 1149.41 461.186 1149.41C511.556 1149.41 551.231 1179.43 552.611 1225.31L491.201 1230.14C489.821 1214.96 477.056 1203.92 460.841 1203.92C441.176 1203.92 427.721 1220.14 427.721 1242.56C427.721 1264.3 441.176 1280.51 460.841 1280.51C477.056 1280.51 489.821 1268.09 491.201 1251.53L552.611 1255.67C551.921 1303.97 512.246 1335.71 461.186 1335.71ZM571.596 1330.54V1089.04H633.696V1180.46C642.666 1162.18 659.916 1151.14 683.031 1151.14C720.291 1151.14 747.546 1180.81 747.546 1221.86V1330.54H685.446V1231.87C685.446 1212.89 675.786 1201.16 659.571 1201.16C643.701 1201.16 633.696 1212.2 633.696 1230.49V1330.54H571.596ZM869.094 1333.3C818.724 1341.23 782.154 1314.67 782.154 1269.13C782.154 1253.95 785.949 1241.18 789.399 1224.97L793.884 1203.23L759.729 1196.33L770.079 1145.96L804.924 1153.21L814.584 1107.32L873.924 1119.74L864.264 1165.28L901.179 1172.87L890.829 1223.24L853.569 1215.65L848.739 1237.39C843.219 1263.61 840.114 1284.65 875.994 1282.24L869.094 1333.3ZM52.075 1630.54V1389.04H114.175V1470.11C126.25 1458.04 142.81 1451.14 162.475 1451.14C209.395 1451.14 242.515 1488.74 242.515 1542.56C242.515 1596.38 209.395 1633.99 162.475 1633.99C142.81 1633.99 126.25 1627.09 114.175 1615.01V1630.54H52.075ZM110.725 1542.56C110.725 1566.02 125.215 1582.93 145.225 1582.93C165.235 1582.93 179.725 1566.02 179.725 1542.56C179.725 1519.1 165.235 1502.2 145.225 1502.2C125.215 1502.2 110.725 1519.1 110.725 1542.56ZM253.011 1628.47L271.296 1453.21L333.051 1459.76L314.766 1634.68L253.011 1628.47ZM247.836 1402.84C247.836 1382.48 263.706 1366.61 284.061 1366.61C304.761 1366.61 320.286 1382.48 320.286 1402.84C320.286 1423.54 304.761 1439.06 284.061 1439.06C263.706 1439.06 247.836 1423.54 247.836 1402.84ZM417.6 1632.26C375.51 1632.26 345.15 1604.66 345.15 1567.4C345.15 1556.36 346.53 1545.67 348.6 1535.66L379.65 1379.38L438.99 1391.11L407.94 1547.39C407.595 1549.81 407.25 1552.91 407.25 1556.36C407.25 1570.85 418.635 1581.55 435.885 1581.55H440.025L429.675 1631.57C424.155 1632.26 420.36 1632.26 417.6 1632.26ZM529.889 1633.99C482.969 1633.99 449.849 1596.38 449.849 1542.56C449.849 1488.74 482.969 1451.14 529.889 1451.14C549.554 1451.14 566.114 1458.04 578.189 1470.11V1389.04H640.289V1589.14V1630.54H578.189V1615.01C566.114 1627.09 549.554 1633.99 529.889 1633.99ZM512.639 1542.56C512.639 1566.02 527.129 1582.93 547.139 1582.93C567.149 1582.93 581.639 1566.02 581.639 1542.56C581.639 1519.1 567.149 1502.2 547.139 1502.2C527.129 1502.2 512.639 1519.1 512.639 1542.56ZM753.94 1637.44C698.74 1637.44 659.41 1597.42 659.41 1542.56C659.41 1487.71 698.74 1447.69 753.25 1447.69C813.97 1447.69 852.265 1497.37 842.26 1561.88H722.545C724.615 1577.41 737.38 1589.14 754.63 1589.14C769.12 1589.14 781.54 1580.86 786.025 1569.13L839.155 1576.72C832.945 1609.84 799.825 1637.44 753.94 1637.44ZM722.545 1519.79H781.885C781.885 1504.96 769.81 1493.92 753.25 1493.92C737.035 1493.92 724.615 1504.61 722.545 1519.79ZM888.63 1639.85L852.06 1467.7L912.78 1454.59L919.335 1493.92C920.37 1456.66 944.865 1440.79 973.5 1441.82L986.61 1502.54C958.32 1503.23 925.89 1514.62 934.515 1556.02L949.35 1626.74L888.63 1639.85Z" fill="#8429CC"/>
</g>
<g id="Box" class="Box" filter="url(#filter1_dd_22_114)">
<rect x="40" y="1706" width="1000" height="174" rx="5" fill="#8429CC" shape-rendering="crispEdges"/>
<path id="Festival" d="M81.92 1779V1751H100.72V1756.12H88.4V1762.88H99.92V1767.88H88.4V1779H81.92ZM112.931 1779.76C106.731 1779.76 102.291 1775.16 102.291 1768.88C102.291 1762.56 106.731 1757.96 112.891 1757.96C119.851 1757.96 123.971 1763.84 122.931 1770.84H108.531C108.731 1773.2 110.531 1774.96 113.011 1774.96C115.011 1774.96 116.731 1773.8 117.331 1772.16L122.571 1772.92C121.811 1776.68 118.051 1779.76 112.931 1779.76ZM108.571 1766.24H116.971C116.971 1764.24 115.291 1762.56 112.891 1762.56C110.611 1762.56 108.891 1764.04 108.571 1766.24ZM135.337 1779.76C130.777 1779.76 127.417 1777.76 126.497 1774.24L132.057 1773.04C132.457 1774.56 133.937 1775.4 135.657 1775.4C137.657 1775.4 139.017 1774.36 139.017 1773.12C139.017 1771.96 137.897 1771.48 136.017 1771.52L133.057 1771.56C128.497 1771.68 125.337 1769.4 125.337 1765.28C125.337 1760.92 129.097 1757.96 134.497 1757.96C138.897 1757.96 142.097 1760 142.937 1763.44L137.537 1764.64C137.137 1763.16 135.657 1762.28 134.057 1762.28C132.337 1762.28 131.097 1763.28 131.097 1764.48C131.097 1765.52 132.017 1766.12 133.457 1766.12L136.377 1766.08C141.217 1765.92 144.857 1768 144.857 1772.28C144.857 1776.72 140.977 1779.76 135.337 1779.76ZM157.525 1779.24C151.925 1780.28 147.965 1777.36 147.965 1772.36C147.965 1770.76 148.365 1769.4 148.725 1767.72L149.645 1763.56L145.645 1762.72L146.645 1757.76L150.725 1758.6L151.885 1753.36L157.765 1754.6L156.605 1759.84L161.165 1760.8L160.125 1765.8L155.525 1764.8L154.605 1768.96C153.885 1772.2 154.005 1774.68 158.165 1774.16L157.525 1779.24ZM161.814 1778.84L164.214 1758.48L170.334 1759.2L167.934 1779.52L161.814 1778.84ZM161.214 1752.68C161.214 1750.6 162.854 1748.96 164.934 1748.96C167.094 1748.96 168.694 1750.6 168.694 1752.68C168.694 1754.84 167.094 1756.44 164.934 1756.44C162.854 1756.44 161.214 1754.84 161.214 1752.68ZM180.119 1779L172.159 1758.72H178.559L183.319 1772.2L188.079 1758.72H194.279L186.319 1779H180.119ZM201.547 1779.4C197.787 1779.4 195.107 1777.16 195.107 1773.68C195.107 1769.96 198.267 1767.52 204.827 1766.92L207.507 1766.68V1766.28C207.507 1764.04 205.867 1763 204.227 1763C202.627 1763 201.067 1764 200.867 1766.04L194.907 1765.96C195.187 1760.76 199.787 1758.24 204.347 1758.12C208.947 1758.04 213.587 1760.88 213.587 1766.64V1772.8C213.587 1774.92 213.747 1777.44 214.027 1779H208.027C207.867 1778.24 207.747 1777.48 207.747 1776.36C206.627 1778.24 204.027 1779.4 201.547 1779.4ZM201.227 1773.28C201.227 1774.6 202.347 1775.24 203.587 1775.24C205.427 1775.24 207.547 1773.92 207.547 1771V1770.48L205.547 1770.68C202.627 1771 201.227 1771.84 201.227 1773.28ZM224.159 1779.2C219.679 1779.2 216.479 1776.28 216.479 1772.24C216.479 1771.04 216.639 1769.76 216.919 1768.52L220.799 1750.04L226.679 1751.2L222.799 1769.68C222.679 1770.16 222.599 1770.68 222.599 1771.2C222.599 1772.92 223.919 1774.16 225.919 1774.16C226.239 1774.16 226.279 1774.16 226.679 1774.12L225.679 1779.08C224.999 1779.2 224.519 1779.2 224.159 1779.2ZM239.244 1757.96C239.244 1752.08 244.204 1749.68 249.004 1750.48V1755.36C247.324 1754.88 245.404 1755.28 245.404 1757.96V1758.72H249.604V1763.84H245.404V1779H239.244V1763.84H235.724V1758.72H239.244V1757.96ZM273.59 1757.16V1779H269.03L268.23 1776.2H267.91C267.456 1776.95 266.87 1777.56 266.15 1778.04C265.456 1778.49 264.683 1778.83 263.83 1779.04C262.976 1779.28 262.096 1779.4 261.19 1779.4C259.643 1779.4 258.283 1779.12 257.11 1778.56C255.936 1778 255.03 1777.13 254.39 1775.96C253.75 1774.79 253.43 1773.27 253.43 1771.4V1757.16H259.39V1769.92C259.39 1771.47 259.67 1772.64 260.23 1773.44C260.79 1774.24 261.683 1774.64 262.91 1774.64C264.136 1774.64 265.083 1774.36 265.75 1773.8C266.443 1773.24 266.923 1772.43 267.19 1771.36C267.483 1770.29 267.63 1768.99 267.63 1767.44V1757.16H273.59ZM256.87 1751.56C256.87 1750.63 257.136 1749.96 257.67 1749.56C258.203 1749.13 258.843 1748.92 259.59 1748.92C260.336 1748.92 260.976 1749.13 261.51 1749.56C262.07 1749.96 262.35 1750.63 262.35 1751.56C262.35 1752.44 262.07 1753.09 261.51 1753.52C260.976 1753.95 260.336 1754.16 259.59 1754.16C258.843 1754.16 258.203 1753.95 257.67 1753.52C257.136 1753.09 256.87 1752.44 256.87 1751.56ZM264.75 1751.56C264.75 1750.63 265.016 1749.96 265.55 1749.56C266.083 1749.13 266.736 1748.92 267.51 1748.92C268.256 1748.92 268.896 1749.13 269.43 1749.56C269.99 1749.96 270.27 1750.63 270.27 1751.56C270.27 1752.44 269.99 1753.09 269.43 1753.52C268.896 1753.95 268.256 1754.16 267.51 1754.16C266.763 1754.16 266.11 1753.95 265.55 1753.52C265.016 1753.09 264.75 1752.44 264.75 1751.56ZM281.679 1780L277.439 1760.16L283.479 1758.88L284.359 1763.84C284.399 1759.44 287.239 1757.36 290.799 1757.4L292.079 1763.4C288.439 1763.56 284.879 1765.36 285.919 1770.44L287.679 1778.68L281.679 1780ZM81.92 1833V1805H95.52C100.88 1805 104.52 1808 104.52 1812.36C104.52 1815.76 102.28 1818.44 99.04 1819C102.28 1819.52 104.52 1822.24 104.52 1825.64C104.52 1830 100.88 1833 95.52 1833H81.92ZM88.24 1828.08H94.68C96.76 1828.08 98.2 1826.68 98.2 1824.72C98.2 1822.72 96.76 1821.32 94.68 1821.32H88.24V1828.08ZM88.24 1816.6H94.68C96.8 1816.6 98.24 1815.2 98.24 1813.24C98.24 1811.24 96.8 1809.84 94.68 1809.84H88.24V1816.6ZM117.775 1833.76C111.575 1833.76 107.135 1829.16 107.135 1822.88C107.135 1816.56 111.575 1811.96 117.735 1811.96C124.695 1811.96 128.815 1817.84 127.775 1824.84H113.375C113.575 1827.2 115.375 1828.96 117.855 1828.96C119.855 1828.96 121.575 1827.8 122.175 1826.16L127.415 1826.92C126.655 1830.68 122.895 1833.76 117.775 1833.76ZM113.415 1820.24H121.815C121.815 1818.24 120.135 1816.56 117.735 1816.56C115.455 1816.56 113.735 1818.04 113.415 1820.24ZM135.05 1833L128.37 1812.72H135.01L138.69 1825.88L142.25 1812.72H148.81L152.45 1825.88L156.09 1812.72H162.65L155.97 1833H149.29L145.53 1819.8L141.77 1833H135.05ZM173.712 1833.76C167.512 1833.76 163.072 1829.16 163.072 1822.88C163.072 1816.56 167.512 1811.96 173.672 1811.96C180.632 1811.96 184.752 1817.84 183.712 1824.84H169.312C169.512 1827.2 171.312 1828.96 173.792 1828.96C175.792 1828.96 177.512 1827.8 178.112 1826.16L183.352 1826.92C182.592 1830.68 178.832 1833.76 173.712 1833.76ZM169.352 1820.24H177.752C177.752 1818.24 176.072 1816.56 173.672 1816.56C171.392 1816.56 169.672 1818.04 169.352 1820.24ZM197.441 1841.2C192.201 1841.2 187.841 1838.32 187.281 1834.12L193.361 1833.76C193.801 1835.36 195.641 1836.4 197.601 1836.4C200.081 1836.4 201.921 1834.84 201.921 1832.16V1829.84C200.841 1831.4 198.881 1832.64 196.001 1832.64C190.441 1832.64 186.041 1828.2 186.041 1822.4C186.041 1816.64 190.361 1812.12 196.001 1812.12C198.721 1812.12 201.001 1813.28 202.281 1815.12V1812.72H208.081V1831.12C208.081 1838.24 202.761 1841.2 197.441 1841.2ZM192.241 1822.4C192.241 1825.24 194.401 1827.44 197.281 1827.44C200.081 1827.44 202.281 1825.24 202.281 1822.4C202.281 1819.56 200.121 1817.32 197.281 1817.32C194.441 1817.32 192.241 1819.48 192.241 1822.4ZM222.368 1833.24C216.768 1834.28 212.808 1831.36 212.808 1826.36C212.808 1824.76 213.208 1823.4 213.568 1821.72L214.488 1817.56L210.488 1816.72L211.488 1811.76L215.568 1812.6L216.728 1807.36L222.608 1808.6L221.448 1813.84L226.008 1814.8L224.968 1819.8L220.368 1818.8L219.448 1822.96C218.728 1826.2 218.848 1828.68 223.008 1828.16L222.368 1833.24ZM228.203 1833V1805H234.363V1814.96C235.803 1813.24 237.883 1812.28 240.443 1812.28C245.843 1812.28 249.683 1816.64 249.683 1822.84C249.683 1829.08 245.843 1833.44 240.443 1833.44C237.883 1833.44 235.803 1832.48 234.363 1830.72V1833H228.203ZM234.043 1822.84C234.043 1826.08 236.003 1828.36 238.763 1828.36C241.483 1828.36 243.483 1826.04 243.483 1822.84C243.483 1819.64 241.483 1817.36 238.763 1817.36C236.003 1817.36 234.043 1819.64 234.043 1822.84ZM251.462 1832.84L253.862 1812.48L259.982 1813.2L257.582 1833.52L251.462 1832.84ZM250.862 1806.68C250.862 1804.6 252.502 1802.96 254.582 1802.96C256.742 1802.96 258.342 1804.6 258.342 1806.68C258.342 1808.84 256.742 1810.44 254.582 1810.44C252.502 1810.44 250.862 1808.84 250.862 1806.68ZM269.433 1833.2C264.953 1833.2 261.753 1830.28 261.753 1826.24C261.753 1825.04 261.913 1823.76 262.193 1822.52L266.073 1804.04L271.953 1805.2L268.073 1823.68C267.953 1824.16 267.873 1824.68 267.873 1825.2C267.873 1826.92 269.193 1828.16 271.193 1828.16C271.513 1828.16 271.553 1828.16 271.953 1828.12L270.953 1833.08C270.273 1833.2 269.793 1833.2 269.433 1833.2ZM282.703 1833.44C277.303 1833.44 273.463 1829.08 273.463 1822.88C273.463 1816.64 277.303 1812.28 282.703 1812.28C285.223 1812.28 287.303 1813.24 288.743 1814.92V1805H294.903V1828.36V1833H288.743V1830.8C287.303 1832.48 285.223 1833.44 282.703 1833.44ZM279.663 1822.88C279.663 1826.08 281.663 1828.36 284.383 1828.36C287.143 1828.36 289.103 1826.08 289.103 1822.88C289.103 1819.64 287.143 1817.36 284.383 1817.36C281.663 1817.36 279.663 1819.68 279.663 1822.88ZM305.631 1833V1805H319.231C324.591 1805 328.231 1808 328.231 1812.36C328.231 1815.76 325.991 1818.44 322.751 1819C325.991 1819.52 328.231 1822.24 328.231 1825.64C328.231 1830 324.591 1833 319.231 1833H305.631ZM311.951 1828.08H318.391C320.471 1828.08 321.911 1826.68 321.911 1824.72C321.911 1822.72 320.471 1821.32 318.391 1821.32H311.951V1828.08ZM311.951 1816.6H318.391C320.511 1816.6 321.951 1815.2 321.951 1813.24C321.951 1811.24 320.511 1809.84 318.391 1809.84H311.951V1816.6ZM337.446 1833.4C333.686 1833.4 331.006 1831.16 331.006 1827.68C331.006 1823.96 334.166 1821.52 340.726 1820.92L343.406 1820.68V1820.28C343.406 1818.04 341.766 1817 340.126 1817C338.526 1817 336.966 1818 336.766 1820.04L330.806 1819.96C331.086 1814.76 335.686 1812.24 340.246 1812.12C344.846 1812.04 349.486 1814.88 349.486 1820.64V1826.8C349.486 1828.92 349.646 1831.44 349.926 1833H343.926C343.766 1832.24 343.646 1831.48 343.646 1830.36C342.526 1832.24 339.926 1833.4 337.446 1833.4ZM337.126 1827.28C337.126 1828.6 338.246 1829.24 339.486 1829.24C341.326 1829.24 343.446 1827.92 343.446 1825V1824.48L341.446 1824.68C338.526 1825 337.126 1825.84 337.126 1827.28ZM362.056 1833.76C357.496 1833.76 354.136 1831.76 353.216 1828.24L358.776 1827.04C359.176 1828.56 360.656 1829.4 362.376 1829.4C364.376 1829.4 365.736 1828.36 365.736 1827.12C365.736 1825.96 364.616 1825.48 362.736 1825.52L359.776 1825.56C355.216 1825.68 352.056 1823.4 352.056 1819.28C352.056 1814.92 355.816 1811.96 361.216 1811.96C365.616 1811.96 368.816 1814 369.656 1817.44L364.256 1818.64C363.856 1817.16 362.376 1816.28 360.776 1816.28C359.056 1816.28 357.816 1817.28 357.816 1818.48C357.816 1819.52 358.736 1820.12 360.176 1820.12L363.096 1820.08C367.936 1819.92 371.576 1822 371.576 1826.28C371.576 1830.72 367.696 1833.76 362.056 1833.76ZM384.22 1833.76C378.02 1833.76 373.58 1829.16 373.58 1822.88C373.58 1816.56 378.02 1811.96 384.18 1811.96C391.14 1811.96 395.26 1817.84 394.22 1824.84H379.82C380.02 1827.2 381.82 1828.96 384.3 1828.96C386.3 1828.96 388.02 1827.8 388.62 1826.16L393.86 1826.92C393.1 1830.68 389.34 1833.76 384.22 1833.76ZM379.86 1820.24H388.26C388.26 1818.24 386.58 1816.56 384.18 1816.56C381.9 1816.56 380.18 1818.04 379.86 1820.24ZM404.55 1833.2C400.07 1833.2 396.87 1830.28 396.87 1826.24C396.87 1825.04 397.03 1823.76 397.31 1822.52L401.19 1804.04L407.07 1805.2L403.19 1823.68C403.07 1824.16 402.99 1824.68 402.99 1825.2C402.99 1826.92 404.31 1828.16 406.31 1828.16C406.63 1828.16 406.67 1828.16 407.07 1828.12L406.07 1833.08C405.39 1833.2 404.91 1833.2 404.55 1833.2Z" fill="#F5F0A3"/>
<path id="Date" d="M550.72 1828.56C561.4 1819.88 564.36 1816.84 564.36 1813.64C564.36 1811.28 562.72 1809.68 560.4 1809.68C557.84 1809.68 556.2 1811.72 556.2 1814.8H550.08C550.08 1808.56 554.04 1804.2 560.52 1804.2C566.72 1804.2 570.56 1807.92 570.56 1813.32C570.56 1818 567.52 1822.48 558.88 1828.04H569.72V1833H550.72V1828.56ZM583.655 1833.8C577.175 1833.8 573.015 1829.92 573.015 1824.12L579.335 1823.96C579.335 1826.84 580.935 1828.6 583.655 1828.6C586.015 1828.6 587.655 1827.12 587.655 1825C587.655 1822.68 585.695 1821.08 581.935 1821.08V1816.96C585.695 1816.96 587.655 1815.32 587.655 1813C587.655 1810.88 586.095 1809.4 583.735 1809.4C581.055 1809.4 579.455 1811.28 579.455 1814.12L573.215 1813.92C573.575 1808.32 577.455 1804.2 584.015 1804.2C589.815 1804.2 593.855 1807.28 593.855 1812.12C593.855 1815.76 591.455 1818.44 587.935 1819C591.455 1819.4 593.855 1821.96 593.855 1825.56C593.855 1830.32 589.535 1833.8 583.655 1833.8ZM599.855 1833.4C597.775 1833.4 596.135 1831.76 596.135 1829.68C596.135 1827.6 597.775 1826 599.855 1826C601.935 1826 603.575 1827.6 603.575 1829.68C603.575 1831.76 601.935 1833.4 599.855 1833.4ZM606.264 1824.48V1820H623.064V1824.48H606.264ZM626.384 1828.56C637.064 1819.88 640.024 1816.84 640.024 1813.64C640.024 1811.28 638.384 1809.68 636.064 1809.68C633.504 1809.68 631.864 1811.72 631.864 1814.8H625.744C625.744 1808.56 629.704 1804.2 636.184 1804.2C642.384 1804.2 646.224 1807.92 646.224 1813.32C646.224 1818 643.184 1822.48 634.544 1828.04H645.384V1833H626.384V1828.56ZM659.447 1833.8C653.807 1833.8 648.087 1830.88 648.087 1825.4C648.087 1821.84 650.487 1819.12 654.207 1818.08C652.367 1816.72 651.127 1814.8 651.127 1812.24C651.127 1807.48 655.047 1804.2 660.647 1804.2C665.767 1804.2 671.367 1806.96 671.367 1812.44C671.367 1816.08 669.167 1818.64 665.847 1819.76C667.927 1821.16 669.327 1823.24 669.327 1825.96C669.327 1830.68 665.207 1833.8 659.447 1833.8ZM654.247 1824.68C654.087 1826.96 656.087 1828.68 658.927 1828.68C661.487 1828.68 663.287 1827.2 663.287 1824.96C663.287 1822.76 661.327 1821.08 658.607 1821.08C656.167 1821.08 654.367 1822.56 654.247 1824.68ZM657.007 1813C657.007 1815.2 658.767 1816.8 661.327 1816.8C663.687 1816.8 665.367 1815.28 665.367 1813.04C665.367 1810.88 663.647 1809.28 661.087 1809.28C658.687 1809.28 657.007 1810.8 657.007 1813ZM675.558 1833.4C673.478 1833.4 671.838 1831.76 671.838 1829.68C671.838 1827.6 673.478 1826 675.558 1826C677.638 1826 679.278 1827.6 679.278 1829.68C679.278 1831.76 677.638 1833.4 675.558 1833.4ZM699.678 1833.76C692.678 1833.76 687.958 1829.6 688.038 1823.48H694.398C694.438 1826.52 696.638 1828.64 699.758 1828.64C702.358 1828.64 704.078 1827.28 704.078 1825.32C704.078 1824.16 703.398 1823.16 701.478 1822.52L699.118 1821.68C694.158 1819.96 691.718 1817.08 691.718 1813.04C691.718 1807.84 695.958 1804.24 702.198 1804.24C708.518 1804.24 713.158 1808.16 713.158 1814.2H706.798C706.718 1811.28 704.878 1809.36 702.118 1809.36C699.598 1809.36 698.118 1810.8 698.118 1812.64C698.118 1814.12 699.197 1815 700.838 1815.56L703.198 1816.36C708.198 1818.12 710.598 1820.92 710.598 1824.88C710.598 1830.2 706.078 1833.76 699.678 1833.76ZM724.314 1833.76C718.114 1833.76 713.674 1829.16 713.674 1822.88C713.674 1816.56 718.114 1811.96 724.274 1811.96C731.234 1811.96 735.354 1817.84 734.314 1824.84H719.914C720.114 1827.2 721.914 1828.96 724.394 1828.96C726.394 1828.96 728.114 1827.8 728.714 1826.16L733.954 1826.92C733.194 1830.68 729.434 1833.76 724.314 1833.76ZM719.954 1820.24H728.354C728.354 1818.24 726.674 1816.56 724.274 1816.56C721.994 1816.56 720.274 1818.04 719.954 1820.24ZM737.243 1840.6V1812.72H743.403V1814.96C744.843 1813.24 746.923 1812.28 749.483 1812.28C754.883 1812.28 758.723 1816.64 758.723 1822.84C758.723 1829.08 754.883 1833.44 749.483 1833.44C746.923 1833.44 744.843 1832.48 743.403 1830.72V1840.6H737.243ZM743.083 1822.84C743.083 1826.08 745.043 1828.36 747.803 1828.36C750.523 1828.36 752.523 1826.04 752.523 1822.84C752.523 1819.64 750.523 1817.36 747.803 1817.36C745.043 1817.36 743.083 1819.64 743.083 1822.84ZM772.111 1833.24C766.511 1834.28 762.551 1831.36 762.551 1826.36C762.551 1824.76 762.951 1823.4 763.311 1821.72L764.231 1817.56L760.231 1816.72L761.231 1811.76L765.311 1812.6L766.471 1807.36L772.351 1808.6L771.191 1813.84L775.751 1814.8L774.711 1819.8L770.111 1818.8L769.191 1822.96C768.471 1826.2 768.591 1828.68 772.751 1828.16L772.111 1833.24ZM787.361 1833.76C781.161 1833.76 776.721 1829.16 776.721 1822.88C776.721 1816.56 781.161 1811.96 787.321 1811.96C794.281 1811.96 798.401 1817.84 797.361 1824.84H782.961C783.161 1827.2 784.961 1828.96 787.441 1828.96C789.441 1828.96 791.161 1827.8 791.761 1826.16L797.001 1826.92C796.241 1830.68 792.481 1833.76 787.361 1833.76ZM783.001 1820.24H791.401C791.401 1818.24 789.721 1816.56 787.321 1816.56C785.041 1816.56 783.321 1818.04 783.001 1820.24ZM800.289 1833V1812.72H806.449L806.329 1816.44C807.289 1813.84 809.449 1812.28 812.409 1812.28C815.449 1812.28 817.849 1813.96 819.009 1816.64C819.969 1813.92 822.289 1812.28 825.489 1812.28C829.769 1812.28 832.769 1815.52 832.769 1820.16V1833H826.609V1821.48C826.609 1818.84 825.369 1817.24 823.289 1817.24C821.089 1817.24 819.769 1818.92 819.769 1821.8V1833H813.649V1821.48C813.649 1818.84 812.369 1817.24 810.129 1817.24C807.849 1817.24 806.449 1818.92 806.449 1821.8V1833H800.289ZM835.993 1833V1805H842.153V1814.96C843.593 1813.24 845.673 1812.28 848.233 1812.28C853.633 1812.28 857.473 1816.64 857.473 1822.84C857.473 1829.08 853.633 1833.44 848.233 1833.44C845.673 1833.44 843.593 1832.48 842.153 1830.72V1833H835.993ZM841.833 1822.84C841.833 1826.08 843.793 1828.36 846.553 1828.36C849.273 1828.36 851.273 1826.04 851.273 1822.84C851.273 1819.64 849.273 1817.36 846.553 1817.36C843.793 1817.36 841.833 1819.64 841.833 1822.84ZM870.368 1833.76C864.168 1833.76 859.728 1829.16 859.728 1822.88C859.728 1816.56 864.168 1811.96 870.328 1811.96C877.288 1811.96 881.408 1817.84 880.368 1824.84H865.968C866.168 1827.2 867.968 1828.96 870.448 1828.96C872.448 1828.96 874.168 1827.8 874.768 1826.16L880.008 1826.92C879.248 1830.68 875.488 1833.76 870.368 1833.76ZM866.008 1820.24H874.408C874.408 1818.24 872.728 1816.56 870.328 1816.56C868.048 1816.56 866.328 1818.04 866.008 1820.24ZM886.226 1834L881.986 1814.16L888.026 1812.88L888.906 1817.84C888.946 1813.44 891.786 1811.36 895.346 1811.4L896.626 1817.4C892.986 1817.56 889.426 1819.36 890.466 1824.44L892.226 1832.68L886.226 1834ZM906.228 1828.56C916.908 1819.88 919.868 1816.84 919.868 1813.64C919.868 1811.28 918.228 1809.68 915.908 1809.68C913.348 1809.68 911.708 1811.72 911.708 1814.8H905.588C905.588 1808.56 909.548 1804.2 916.028 1804.2C922.228 1804.2 926.068 1807.92 926.068 1813.32C926.068 1818 923.028 1822.48 914.388 1828.04H925.228V1833H906.228V1828.56ZM937.205 1833.8C931.725 1833.8 928.285 1829.68 928.285 1823.36C928.285 1814.24 934.485 1804.2 943.085 1804.2C948.565 1804.2 951.965 1808.32 951.965 1814.64C951.965 1823.84 945.765 1833.8 937.205 1833.8ZM934.485 1823.24C934.485 1826.48 935.765 1828.32 937.965 1828.32C942.685 1828.32 945.805 1820.12 945.805 1814.72C945.805 1811.52 944.525 1809.68 942.325 1809.68C937.605 1809.68 934.485 1817.84 934.485 1823.24ZM955.056 1828.56C965.736 1819.88 968.696 1816.84 968.696 1813.64C968.696 1811.28 967.056 1809.68 964.736 1809.68C962.176 1809.68 960.536 1811.72 960.536 1814.8H954.416C954.416 1808.56 958.376 1804.2 964.856 1804.2C971.056 1804.2 974.896 1807.92 974.896 1813.32C974.896 1818 971.856 1822.48 963.216 1828.04H974.056V1833H955.056V1828.56ZM988.848 1833V1827.24H976.448V1822.76C980.928 1818.48 984.648 1812 985.808 1804.8H992.608C991.648 1811.88 987.408 1818.84 981.928 1822.44H989.168V1816.08H994.728V1822.44H998.488V1827.24H994.728V1833H988.848Z" fill="#F5F0A3"/>
</g>
</g>
<defs>
<filter id="filter0_d_22_114" x="47.3501" y="1066.61" width="942.26" height="580.24" filterUnits="userSpaceOnUse" color-interpolation-filters="sRGB">
<feFlood flood-opacity="0" result="BackgroundImageFix"/>
<feColorMatrix in="SourceAlpha" type="matrix" values="0 0 0 0 0 0 0 0 0 0 0 0 0 0 0 0 0 0 127 0" result="hardAlpha"/>
<feOffset dy="4"/>
<feGaussianBlur stdDeviation="1.5"/>
<feComposite in2="hardAlpha" operator="out"/>
<feColorMatrix type="matrix" values="0 0 0 0 0 0 0 0 0 0 0 0 0 0 0 0 0 0 1 0"/>
<feBlend mode="normal" in2="BackgroundImageFix" result="effect1_dropShadow_22_114"/>
<feBlend mode="normal" in="SourceGraphic" in2="effect1_dropShadow_22_114" result="shape"/>
</filter>
<filter id="filter1_dd_22_114" x="0" y="1670" width="1080" height="254" filterUnits="userSpaceOnUse" color-interpolation-filters="sRGB">
<feFlood flood-opacity="0" result="BackgroundImageFix"/>
<feColorMatrix in="SourceAlpha" type="matrix" values="0 0 0 0 0 0 0 0 0 0 0 0 0 0 0 0 0 0 127 0" result="hardAlpha"/>
<feOffset dy="4"/>
<feGaussianBlur stdDeviation="20"/>
<feComposite in2="hardAlpha" operator="out"/>
<feColorMatrix type="matrix" values="0 0 0 0 0 0 0 0 0 0 0 0 0 0 0 0 0 0 1 0"/>
<feBlend mode="normal" in2="BackgroundImageFix" result="effect1_dropShadow_22_114"/>
<feColorMatrix in="SourceAlpha" type="matrix" values="0 0 0 0 0 0 0 0 0 0 0 0 0 0 0 0 0 0 127 0" result="hardAlpha"/>
<feOffset dy="4"/>
<feGaussianBlur stdDeviation="10"/>
<feComposite in2="hardAlpha" operator="out"/>
<feColorMatrix type="matrix" values="0 0 0 0 0 0 0 0 0 0 0 0 0 0 0 0 0 0 1 0"/>
<feBlend mode="normal" in2="effect1_dropShadow_22_114" result="effect2_dropShadow_22_114"/>
<feBlend mode="normal" in="SourceGraphic" in2="effect2_dropShadow_22_114" result="shape"/>
</filter>
<clipPath id="clip0_22_114">
<rect width="1080" height="1920" fill="white"/>
</clipPath>
</defs>
</svg>
