<svg width="1080" height="1920" viewBox="0 0 1080 1920" fill="none" xmlns="http://www.w3.org/2000/svg">
<g style="mix-blend-mode:exclusion" filter="url(#filter0_i_22_4)">
<path d="M102.125 306.81L50.65 63.635L116.325 49.435L156.795 238.65L257.26 216.995L268.975 271.31L102.125 306.81ZM283.147 292.965L315.097 112.98L378.287 123.985L346.337 303.97L283.147 292.965ZM293.797 64.7C293.797 43.755 310.127 27.425 331.072 27.425C352.372 27.425 368.347 43.755 368.347 64.7C368.347 86 352.372 101.975 331.072 101.975C310.127 101.975 293.797 86 293.797 64.7ZM484.834 304.325C428.034 304.325 386.499 263.855 386.499 208.475C386.499 153.095 428.034 112.625 484.834 112.625C536.664 112.625 577.489 143.51 578.909 190.725L515.719 195.695C514.299 180.075 501.164 168.715 484.479 168.715C464.244 168.715 450.399 185.4 450.399 208.475C450.399 230.84 464.244 247.525 484.479 247.525C501.164 247.525 514.299 234.745 515.719 217.705L578.909 221.965C578.199 271.665 537.374 304.325 484.834 304.325ZM598.446 299V50.5H662.346V144.575C671.576 125.76 689.326 114.4 713.111 114.4C751.451 114.4 779.496 144.93 779.496 187.175V299H715.596V197.47C715.596 177.945 705.656 165.875 688.971 165.875C672.641 165.875 662.346 177.235 662.346 196.05V299H598.446ZM904.566 301.84C852.736 310.005 815.106 282.67 815.106 235.81C815.106 220.19 819.011 207.055 822.561 190.37L827.176 168.005L792.031 160.905L802.681 109.075L838.536 116.53L848.476 69.315L909.536 82.095L899.596 128.955L937.581 136.765L926.931 188.595L888.591 180.785L883.621 203.15C877.941 230.13 874.746 251.785 911.666 249.3L904.566 301.84ZM52.425 599V350.5H116.325V433.925C128.75 421.5 145.79 414.4 166.025 414.4C214.305 414.4 248.385 453.095 248.385 508.475C248.385 563.855 214.305 602.55 166.025 602.55C145.79 602.55 128.75 595.45 116.325 583.025V599H52.425ZM112.775 508.475C112.775 532.615 127.685 550.01 148.275 550.01C168.865 550.01 183.775 532.615 183.775 508.475C183.775 484.335 168.865 466.94 148.275 466.94C127.685 466.94 112.775 484.335 112.775 508.475ZM257.493 592.965L289.443 412.98L352.633 423.985L320.683 603.97L257.493 592.965ZM268.143 364.7C268.143 343.755 284.473 327.425 305.418 327.425C326.718 327.425 342.693 343.755 342.693 364.7C342.693 386 326.718 401.975 305.418 401.975C284.473 401.975 268.143 386 268.143 364.7ZM429.906 600.775C384.466 600.775 356.421 576.99 356.421 537.94C356.421 526.225 359.616 511.315 366.006 492.5L416.771 345.175L473.571 366.475L422.806 513.8C421.741 517.35 420.321 523.385 420.321 527.29C420.321 540.425 429.906 547.525 447.656 547.525H452.626L445.526 600.065C441.266 600.42 437.006 600.775 429.906 600.775ZM546.169 602.55C497.889 602.55 463.809 563.855 463.809 508.475C463.809 453.095 497.889 414.4 546.169 414.4C566.404 414.4 583.444 421.5 595.869 433.925V350.5H659.769V556.4V599H595.869V583.025C583.444 595.45 566.404 602.55 546.169 602.55ZM528.419 508.475C528.419 532.615 543.329 550.01 563.919 550.01C584.509 550.01 599.419 532.615 599.419 508.475C599.419 484.335 584.509 466.94 563.919 466.94C543.329 466.94 528.419 484.335 528.419 508.475ZM776.714 606.1C719.914 606.1 679.444 564.92 679.444 508.475C679.444 452.03 719.914 410.85 776.004 410.85C838.484 410.85 877.889 461.97 867.594 528.355H744.409C746.539 544.33 759.674 556.4 777.424 556.4C792.334 556.4 805.114 547.88 809.729 535.81L864.399 543.62C858.009 577.7 823.929 606.1 776.714 606.1ZM744.409 485.045H805.469C805.469 469.78 793.044 458.42 776.004 458.42C759.319 458.42 746.539 469.425 744.409 485.045ZM915.308 608.585L877.678 431.44L940.158 417.95L946.903 458.42C947.968 420.08 973.173 403.75 1002.64 404.815L1016.13 467.295C987.018 468.005 953.648 479.72 962.523 522.32L977.788 595.095L915.308 608.585Z" fill="url(#paint0_linear_22_4)" style="mix-blend-mode:difference"/>
</g>
<g filter="url(#filter1_ddddd_22_4)">
<path d="M42.3578 1818V1783.62H65.4442V1789.9H50.3152V1798.2H64.4618V1804.34H50.3152V1818H42.3578ZM80.4392 1818.93C72.8256 1818.93 67.3733 1813.28 67.3733 1805.57C67.3733 1797.81 72.8256 1792.16 80.3901 1792.16C88.937 1792.16 93.9963 1799.38 92.7192 1807.98H75.036C75.2816 1810.88 77.492 1813.04 80.5374 1813.04C82.9934 1813.04 85.1056 1811.61 85.8424 1809.6L92.2771 1810.53C91.3438 1815.15 86.7266 1818.93 80.4392 1818.93ZM75.0851 1802.33H85.4003C85.4003 1799.87 83.3373 1797.81 80.3901 1797.81C77.5902 1797.81 75.4781 1799.63 75.0851 1802.33ZM106.827 1818.93C100.294 1818.93 95.628 1815.45 95.3333 1810.24L102.308 1810.04C102.554 1812.25 104.322 1813.68 106.827 1813.68C108.89 1813.68 110.315 1812.84 110.315 1811.37C110.315 1810.29 109.48 1809.55 107.368 1809.11L104.715 1808.62C99.5576 1807.64 96.7578 1804.84 96.7578 1800.66C96.7578 1795.55 100.982 1792.16 107.171 1792.16C113.508 1792.16 118.027 1795.65 118.321 1800.86L111.543 1801.1C111.248 1798.94 109.48 1797.42 107.22 1797.42C105.354 1797.42 103.978 1798.4 103.978 1799.87C103.978 1801 104.813 1801.64 106.336 1801.99L108.989 1802.48C114.637 1803.51 117.781 1806.26 117.781 1810.48C117.781 1815.54 113.262 1818.93 106.827 1818.93ZM133.244 1818.34C128.921 1818.34 124.549 1815.79 124.549 1809.06V1799.38H120.423V1793.1H124.549V1786.81H132.114V1793.1H137.861V1799.38H132.114V1808.47C132.114 1811.02 133.391 1811.76 134.963 1811.76C135.454 1811.76 135.945 1811.66 136.436 1811.57V1817.85C135.454 1818.2 134.324 1818.34 133.244 1818.34ZM140.879 1818V1793.1H148.443V1818H140.879ZM140.093 1785.68C140.093 1783.12 142.107 1781.11 144.661 1781.11C147.313 1781.11 149.278 1783.12 149.278 1785.68C149.278 1788.33 147.313 1790.3 144.661 1790.3C142.107 1790.3 140.093 1788.33 140.093 1785.68ZM160.883 1818L151.108 1793.1H158.967L164.813 1809.65L170.658 1793.1H178.272L168.497 1818H160.883ZM187.197 1818.49C182.58 1818.49 179.289 1815.74 179.289 1811.47C179.289 1806.9 183.169 1803.9 191.225 1803.17L194.516 1802.87V1802.38C194.516 1799.63 192.502 1798.35 190.488 1798.35C188.524 1798.35 186.608 1799.58 186.362 1802.09L179.043 1801.99C179.387 1795.6 185.036 1792.51 190.636 1792.36C196.284 1792.26 201.982 1795.75 201.982 1802.82V1810.39C201.982 1812.99 202.179 1816.08 202.523 1818H195.155C194.958 1817.07 194.811 1816.13 194.811 1814.76C193.436 1817.07 190.243 1818.49 187.197 1818.49ZM186.804 1810.98C186.804 1812.6 188.18 1813.38 189.702 1813.38C191.962 1813.38 194.565 1811.76 194.565 1808.18V1807.54L192.109 1807.78C188.524 1808.18 186.804 1809.21 186.804 1810.98ZM217.662 1817.75C211.423 1819.13 205.873 1817.56 205.873 1809.4V1783.62H213.437V1807.83C213.437 1810.93 214.813 1811.96 217.662 1811.37V1817.75ZM232.913 1792.16C232.913 1784.94 239.004 1782 244.898 1782.98V1788.97C242.835 1788.38 240.478 1788.87 240.478 1792.16V1793.1H245.635V1799.38H240.478V1818H232.913V1799.38H228.59V1793.1H232.913V1792.16ZM275.09 1791.18V1818H269.49L268.508 1814.56H268.115C267.558 1815.48 266.838 1816.23 265.954 1816.82C265.102 1817.38 264.152 1817.79 263.105 1818.05C262.057 1818.34 260.976 1818.49 259.863 1818.49C257.963 1818.49 256.293 1818.15 254.852 1817.46C253.412 1816.77 252.298 1815.71 251.512 1814.27C250.726 1812.83 250.333 1810.96 250.333 1808.67V1791.18H257.652V1806.85C257.652 1808.75 257.996 1810.19 258.684 1811.17C259.371 1812.15 260.468 1812.65 261.975 1812.65C263.481 1812.65 264.644 1812.3 265.462 1811.61C266.314 1810.93 266.903 1809.93 267.231 1808.62C267.591 1807.31 267.771 1805.7 267.771 1803.8V1791.18H275.09ZM254.558 1784.3C254.558 1783.16 254.885 1782.34 255.54 1781.85C256.195 1781.32 256.981 1781.06 257.898 1781.06C258.815 1781.06 259.601 1781.32 260.256 1781.85C260.943 1782.34 261.287 1783.16 261.287 1784.3C261.287 1785.38 260.943 1786.19 260.256 1786.71C259.601 1787.23 258.815 1787.5 257.898 1787.5C256.981 1787.5 256.195 1787.23 255.54 1786.71C254.885 1786.19 254.558 1785.38 254.558 1784.3ZM264.234 1784.3C264.234 1783.16 264.562 1782.34 265.217 1781.85C265.872 1781.32 266.674 1781.06 267.624 1781.06C268.541 1781.06 269.326 1781.32 269.981 1781.85C270.669 1782.34 271.013 1783.16 271.013 1784.3C271.013 1785.38 270.669 1786.19 269.981 1786.71C269.326 1787.23 268.541 1787.5 267.624 1787.5C266.707 1787.5 265.904 1787.23 265.217 1786.71C264.562 1786.19 264.234 1785.38 264.234 1784.3ZM280.995 1818V1793.1H288.56L288.363 1799.29C289.542 1793.83 293.521 1792.16 297.549 1793.1V1800.61C293.275 1799.87 288.56 1801.25 288.56 1807.59V1818H280.995ZM42.3578 1872V1837.62H59.0586C65.6406 1837.62 70.1106 1841.3 70.1106 1846.65C70.1106 1850.83 67.3598 1854.12 63.3811 1854.81C67.3598 1855.45 70.1106 1858.79 70.1106 1862.96C70.1106 1868.32 65.6406 1872 59.0586 1872H42.3578ZM50.1187 1865.96H58.027C60.5813 1865.96 62.3496 1864.24 62.3496 1861.83C62.3496 1859.38 60.5813 1857.66 58.027 1857.66H50.1187V1865.96ZM50.1187 1851.86H58.027C60.6304 1851.86 62.3987 1850.14 62.3987 1847.73C62.3987 1845.28 60.6304 1843.56 58.027 1843.56H50.1187V1851.86ZM86.3873 1872.93C78.7737 1872.93 73.3214 1867.28 73.3214 1859.57C73.3214 1851.81 78.7737 1846.16 86.3382 1846.16C94.8851 1846.16 99.9444 1853.38 98.6673 1861.98H80.9841C81.2297 1864.88 83.4401 1867.04 86.4856 1867.04C88.9416 1867.04 91.0537 1865.61 91.7905 1863.6L98.2252 1864.53C97.292 1869.15 92.6747 1872.93 86.3873 1872.93ZM81.0332 1856.33H91.3484C91.3484 1853.87 89.2854 1851.81 86.3382 1851.81C83.5384 1851.81 81.4262 1853.63 81.0332 1856.33ZM107.601 1872L99.398 1847.1H107.552L112.071 1863.26L116.443 1847.1H124.498L128.968 1863.26L133.438 1847.1H141.494L133.291 1872H125.088L120.47 1855.79L115.853 1872H107.601ZM155.079 1872.93C147.465 1872.93 142.013 1867.28 142.013 1859.57C142.013 1851.81 147.465 1846.16 155.029 1846.16C163.576 1846.16 168.636 1853.38 167.359 1861.98H149.675C149.921 1864.88 152.131 1867.04 155.177 1867.04C157.633 1867.04 159.745 1865.61 160.482 1863.6L166.916 1864.53C165.983 1869.15 161.366 1872.93 155.079 1872.93ZM149.724 1856.33H160.04C160.04 1853.87 157.977 1851.81 155.029 1851.81C152.23 1851.81 150.117 1853.63 149.724 1856.33ZM184.217 1882.07C177.783 1882.07 172.429 1878.53 171.741 1873.38L179.207 1872.93C179.748 1874.9 182.007 1876.18 184.414 1876.18C187.459 1876.18 189.719 1874.26 189.719 1870.97V1868.12C188.393 1870.04 185.986 1871.56 182.449 1871.56C175.621 1871.56 170.218 1866.11 170.218 1858.98C170.218 1851.91 175.523 1846.36 182.449 1846.36C185.789 1846.36 188.589 1847.78 190.161 1850.04V1847.1H197.283V1869.69C197.283 1878.43 190.75 1882.07 184.217 1882.07ZM177.832 1858.98C177.832 1862.47 180.484 1865.17 184.021 1865.17C187.459 1865.17 190.161 1862.47 190.161 1858.98C190.161 1855.5 187.509 1852.74 184.021 1852.74C180.533 1852.74 177.832 1855.4 177.832 1858.98ZM213.255 1872.34C208.933 1872.34 204.561 1869.79 204.561 1863.06V1853.38H200.435V1847.1H204.561V1840.81H212.126V1847.1H217.873V1853.38H212.126V1862.47C212.126 1865.02 213.403 1865.76 214.975 1865.76C215.466 1865.76 215.957 1865.66 216.448 1865.57V1871.85C215.466 1872.2 214.336 1872.34 213.255 1872.34ZM220.891 1872V1837.62H228.455V1849.85C230.223 1847.73 232.778 1846.56 235.921 1846.56C242.552 1846.56 247.268 1851.91 247.268 1859.52C247.268 1867.19 242.552 1872.54 235.921 1872.54C232.778 1872.54 230.223 1871.36 228.455 1869.2V1872H220.891ZM228.062 1859.52C228.062 1863.5 230.469 1866.3 233.858 1866.3C237.198 1866.3 239.654 1863.45 239.654 1859.52C239.654 1855.59 237.198 1852.79 233.858 1852.79C230.469 1852.79 228.062 1855.59 228.062 1859.52ZM250.679 1872V1847.1H258.244V1872H250.679ZM249.893 1839.68C249.893 1837.12 251.907 1835.11 254.461 1835.11C257.114 1835.11 259.079 1837.12 259.079 1839.68C259.079 1842.33 257.114 1844.3 254.461 1844.3C251.907 1844.3 249.893 1842.33 249.893 1839.68ZM274.073 1871.75C267.835 1873.13 262.284 1871.56 262.284 1863.4V1837.62H269.849V1861.83C269.849 1864.93 271.224 1865.96 274.073 1865.37V1871.75ZM287.432 1872.54C280.801 1872.54 276.085 1867.19 276.085 1859.57C276.085 1851.91 280.801 1846.56 287.432 1846.56C290.527 1846.56 293.081 1847.73 294.849 1849.8V1837.62H302.414V1866.3V1872H294.849V1869.3C293.081 1871.36 290.527 1872.54 287.432 1872.54ZM283.699 1859.57C283.699 1863.5 286.155 1866.3 289.495 1866.3C292.884 1866.3 295.291 1863.5 295.291 1859.57C295.291 1855.59 292.884 1852.79 289.495 1852.79C286.155 1852.79 283.699 1855.64 283.699 1859.57ZM315.588 1872V1837.62H332.289C338.871 1837.62 343.341 1841.3 343.341 1846.65C343.341 1850.83 340.59 1854.12 336.611 1854.81C340.59 1855.45 343.341 1858.79 343.341 1862.96C343.341 1868.32 338.871 1872 332.289 1872H315.588ZM323.349 1865.96H331.257C333.811 1865.96 335.58 1864.24 335.58 1861.83C335.58 1859.38 333.811 1857.66 331.257 1857.66H323.349V1865.96ZM323.349 1851.86H331.257C333.86 1851.86 335.629 1850.14 335.629 1847.73C335.629 1845.28 333.86 1843.56 331.257 1843.56H323.349V1851.86ZM354.656 1872.49C350.039 1872.49 346.748 1869.74 346.748 1865.47C346.748 1860.9 350.628 1857.9 358.684 1857.17L361.975 1856.87V1856.38C361.975 1853.63 359.961 1852.35 357.947 1852.35C355.982 1852.35 354.067 1853.58 353.821 1856.09L346.502 1855.99C346.846 1849.6 352.495 1846.51 358.095 1846.36C363.743 1846.26 369.441 1849.75 369.441 1856.82V1864.39C369.441 1866.99 369.638 1870.08 369.982 1872H362.614C362.417 1871.07 362.27 1870.13 362.27 1868.76C360.894 1871.07 357.702 1872.49 354.656 1872.49ZM354.263 1864.98C354.263 1866.6 355.639 1867.38 357.161 1867.38C359.421 1867.38 362.024 1865.76 362.024 1862.18V1861.54L359.568 1861.78C355.982 1862.18 354.263 1863.21 354.263 1864.98ZM383.751 1872.93C377.218 1872.93 372.552 1869.45 372.257 1864.24L379.232 1864.04C379.478 1866.25 381.246 1867.68 383.751 1867.68C385.814 1867.68 387.238 1866.84 387.238 1865.37C387.238 1864.29 386.403 1863.55 384.291 1863.11L381.639 1862.62C376.481 1861.64 373.681 1858.84 373.681 1854.66C373.681 1849.55 377.906 1846.16 384.095 1846.16C390.431 1846.16 394.95 1849.65 395.245 1854.86L388.466 1855.1C388.172 1852.94 386.403 1851.42 384.144 1851.42C382.277 1851.42 380.902 1852.4 380.902 1853.87C380.902 1855 381.737 1855.64 383.26 1855.99L385.912 1856.48C391.561 1857.51 394.705 1860.26 394.705 1864.48C394.705 1869.54 390.186 1872.93 383.751 1872.93ZM410.704 1872.93C403.09 1872.93 397.638 1867.28 397.638 1859.57C397.638 1851.81 403.09 1846.16 410.655 1846.16C419.202 1846.16 424.261 1853.38 422.984 1861.98H405.301C405.546 1864.88 407.757 1867.04 410.802 1867.04C413.258 1867.04 415.37 1865.61 416.107 1863.6L422.542 1864.53C421.609 1869.15 416.991 1872.93 410.704 1872.93ZM405.35 1856.33H415.665C415.665 1853.87 413.602 1851.81 410.655 1851.81C407.855 1851.81 405.743 1853.63 405.35 1856.33ZM438.222 1871.75C431.984 1873.13 426.433 1871.56 426.433 1863.4V1837.62H433.998V1861.83C433.998 1864.93 435.373 1865.96 438.222 1865.37V1871.75Z" fill="white"/>
<path d="M489.112 1866.55C502.227 1855.89 505.862 1852.16 505.862 1848.23C505.862 1845.33 503.848 1843.36 500.999 1843.36C497.856 1843.36 495.842 1845.87 495.842 1849.65H488.326C488.326 1841.99 493.189 1836.63 501.147 1836.63C508.76 1836.63 513.476 1841.2 513.476 1847.83C513.476 1853.58 509.743 1859.08 499.133 1865.91H512.444V1872H489.112V1866.55ZM529.557 1872.98C521.599 1872.98 516.491 1868.22 516.491 1861.1L524.252 1860.9C524.252 1864.44 526.217 1866.6 529.557 1866.6C532.455 1866.6 534.469 1864.78 534.469 1862.18C534.469 1859.33 532.062 1857.36 527.445 1857.36V1852.3C532.062 1852.3 534.469 1850.29 534.469 1847.44C534.469 1844.84 532.553 1843.02 529.655 1843.02C526.364 1843.02 524.399 1845.33 524.399 1848.82L516.736 1848.57C517.178 1841.69 521.943 1836.63 529.999 1836.63C537.121 1836.63 542.082 1840.42 542.082 1846.36C542.082 1850.83 539.135 1854.12 534.813 1854.81C539.135 1855.3 542.082 1858.44 542.082 1862.86C542.082 1868.71 536.777 1872.98 529.557 1872.98ZM549.45 1872.49C546.895 1872.49 544.881 1870.48 544.881 1867.92C544.881 1865.37 546.895 1863.4 549.45 1863.4C552.004 1863.4 554.018 1865.37 554.018 1867.92C554.018 1870.48 552.004 1872.49 549.45 1872.49ZM557.32 1861.54V1856.04H577.951V1861.54H557.32ZM582.028 1866.55C595.143 1855.89 598.778 1852.16 598.778 1848.23C598.778 1845.33 596.764 1843.36 593.915 1843.36C590.771 1843.36 588.757 1845.87 588.757 1849.65H581.242C581.242 1841.99 586.105 1836.63 594.062 1836.63C601.676 1836.63 606.391 1841.2 606.391 1847.83C606.391 1853.58 602.658 1859.08 592.048 1865.91H605.36V1872H582.028V1866.55ZM622.67 1872.98C615.449 1872.98 610.292 1868.81 610.292 1863.06C610.292 1859.08 612.698 1856.18 615.891 1855.25C612.109 1854.22 609.555 1850.88 609.555 1846.85C609.555 1841.01 615.056 1836.63 622.67 1836.63C630.283 1836.63 635.785 1841.01 635.785 1846.85C635.785 1850.88 633.231 1854.22 629.498 1855.25C632.69 1856.18 635.097 1859.08 635.097 1863.06C635.097 1868.81 629.94 1872.98 622.67 1872.98ZM617.119 1847.44C617.119 1850.19 619.428 1852.11 622.67 1852.11C625.961 1852.11 628.22 1850.19 628.22 1847.44C628.22 1844.64 625.961 1842.77 622.67 1842.77C619.428 1842.77 617.119 1844.64 617.119 1847.44ZM617.561 1862.23C617.561 1864.98 619.624 1866.84 622.67 1866.84C625.715 1866.84 627.778 1864.98 627.778 1862.23C627.778 1859.52 625.715 1857.61 622.67 1857.61C619.624 1857.61 617.561 1859.52 617.561 1862.23ZM642.461 1872.49C639.907 1872.49 637.893 1870.48 637.893 1867.92C637.893 1865.37 639.907 1863.4 642.461 1863.4C645.015 1863.4 647.029 1865.37 647.029 1867.92C647.029 1870.48 645.015 1872.49 642.461 1872.49ZM673.062 1872.93C665.94 1872.93 658.867 1868.86 658.621 1861L666.284 1860.51C666.431 1864.34 669.378 1866.74 673.111 1866.74C676.255 1866.74 678.613 1865.12 678.613 1862.57C678.613 1860.6 677.139 1859.43 674.585 1858.88L670.705 1858.1C663.189 1856.63 660.046 1852.74 660.046 1847.59C660.046 1840.37 666.431 1836.68 672.866 1836.68C679.595 1836.68 686.276 1840.61 686.718 1848.23L678.858 1848.62C678.564 1845.03 675.96 1842.87 672.768 1842.87C669.968 1842.87 667.757 1844.49 667.757 1846.95C667.757 1848.91 669.133 1850.04 671.441 1850.53L675.322 1851.32C682.886 1852.79 686.423 1856.67 686.423 1862.03C686.423 1869.35 679.743 1872.93 673.062 1872.93ZM702.621 1872.93C695.007 1872.93 689.555 1867.28 689.555 1859.57C689.555 1851.81 695.007 1846.16 702.572 1846.16C711.119 1846.16 716.178 1853.38 714.901 1861.98H697.218C697.463 1864.88 699.674 1867.04 702.719 1867.04C705.175 1867.04 707.287 1865.61 708.024 1863.6L714.459 1864.53C713.526 1869.15 708.908 1872.93 702.621 1872.93ZM697.267 1856.33H707.582C707.582 1853.87 705.519 1851.81 702.572 1851.81C699.772 1851.81 697.66 1853.63 697.267 1856.33ZM718.498 1881.33V1847.1H726.062V1849.85C727.83 1847.73 730.385 1846.56 733.528 1846.56C740.159 1846.56 744.875 1851.91 744.875 1859.52C744.875 1867.19 740.159 1872.54 733.528 1872.54C730.385 1872.54 727.83 1871.36 726.062 1869.2V1881.33H718.498ZM725.669 1859.52C725.669 1863.5 728.076 1866.3 731.465 1866.3C734.805 1866.3 737.261 1863.45 737.261 1859.52C737.261 1855.59 734.805 1852.79 731.465 1852.79C728.076 1852.79 725.669 1855.59 725.669 1859.52ZM759.695 1872.34C755.372 1872.34 751 1869.79 751 1863.06V1853.38H746.874V1847.1H751V1840.81H758.565V1847.1H764.312V1853.38H758.565V1862.47C758.565 1865.02 759.842 1865.76 761.414 1865.76C761.905 1865.76 762.396 1865.66 762.887 1865.57V1871.85C761.905 1872.2 760.775 1872.34 759.695 1872.34ZM779.371 1872.93C771.757 1872.93 766.305 1867.28 766.305 1859.57C766.305 1851.81 771.757 1846.16 779.322 1846.16C787.869 1846.16 792.928 1853.38 791.651 1861.98H773.968C774.213 1864.88 776.424 1867.04 779.469 1867.04C781.925 1867.04 784.037 1865.61 784.774 1863.6L791.209 1864.53C790.276 1869.15 785.658 1872.93 779.371 1872.93ZM774.017 1856.33H784.332C784.332 1853.87 782.269 1851.81 779.322 1851.81C776.522 1851.81 774.41 1853.63 774.017 1856.33ZM795.248 1872V1847.1H802.812L802.665 1851.66C803.844 1848.47 806.496 1846.56 810.131 1846.56C813.864 1846.56 816.811 1848.62 818.236 1851.91C819.415 1848.57 822.264 1846.56 826.193 1846.56C831.449 1846.56 835.133 1850.53 835.133 1856.23V1872H827.569V1857.85C827.569 1854.61 826.046 1852.65 823.492 1852.65C820.79 1852.65 819.169 1854.71 819.169 1858.25V1872H811.654V1857.85C811.654 1854.61 810.082 1852.65 807.331 1852.65C804.531 1852.65 802.812 1854.71 802.812 1858.25V1872H795.248ZM839.091 1872V1837.62H846.655V1849.85C848.424 1847.73 850.978 1846.56 854.122 1846.56C860.753 1846.56 865.468 1851.91 865.468 1859.52C865.468 1867.19 860.753 1872.54 854.122 1872.54C850.978 1872.54 848.424 1871.36 846.655 1869.2V1872H839.091ZM846.263 1859.52C846.263 1863.5 848.669 1866.3 852.059 1866.3C855.399 1866.3 857.855 1863.45 857.855 1859.52C857.855 1855.59 855.399 1852.79 852.059 1852.79C848.669 1852.79 846.263 1855.59 846.263 1859.52ZM881.305 1872.93C873.691 1872.93 868.239 1867.28 868.239 1859.57C868.239 1851.81 873.691 1846.16 881.256 1846.16C889.802 1846.16 894.862 1853.38 893.585 1861.98H875.901C876.147 1864.88 878.357 1867.04 881.403 1867.04C883.859 1867.04 885.971 1865.61 886.708 1863.6L893.143 1864.53C892.209 1869.15 887.592 1872.93 881.305 1872.93ZM875.951 1856.33H886.266C886.266 1853.87 884.203 1851.81 881.256 1851.81C878.456 1851.81 876.344 1853.63 875.951 1856.33ZM897.181 1872V1847.1H904.746L904.549 1853.29C905.728 1847.83 909.707 1846.16 913.735 1847.1V1854.61C909.461 1853.87 904.746 1855.25 904.746 1861.59V1872H897.181ZM925.532 1866.55C938.647 1855.89 942.282 1852.16 942.282 1848.23C942.282 1845.33 940.268 1843.36 937.419 1843.36C934.275 1843.36 932.261 1845.87 932.261 1849.65H924.746C924.746 1841.99 929.609 1836.63 937.566 1836.63C945.18 1836.63 949.895 1841.2 949.895 1847.83C949.895 1853.58 946.162 1859.08 935.552 1865.91H948.864V1872H925.532V1866.55ZM966.863 1872.59C958.66 1872.59 953.06 1865.37 953.06 1854.81C953.06 1844.25 958.66 1837.03 966.863 1837.03C975.066 1837.03 980.666 1844.25 980.666 1854.81C980.666 1865.37 975.066 1872.59 966.863 1872.59ZM960.723 1854.81C960.723 1861.39 963.228 1865.91 966.863 1865.91C970.547 1865.91 973.052 1861.39 973.052 1854.81C973.052 1848.23 970.547 1843.71 966.863 1843.71C963.228 1843.71 960.723 1848.23 960.723 1854.81ZM984.629 1866.55C997.744 1855.89 1001.38 1852.16 1001.38 1848.23C1001.38 1845.33 999.365 1843.36 996.516 1843.36C993.373 1843.36 991.359 1845.87 991.359 1849.65H983.843C983.843 1841.99 988.706 1836.63 996.664 1836.63C1004.28 1836.63 1008.99 1841.2 1008.99 1847.83C1008.99 1853.58 1005.26 1859.08 994.65 1865.91H1007.96V1872H984.629V1866.55ZM1026.13 1872V1864.93H1010.9V1859.43C1016.4 1854.17 1020.97 1846.21 1022.39 1837.37H1030.74C1029.56 1846.06 1024.36 1854.61 1017.63 1859.03H1026.52V1851.22H1033.35V1859.03H1037.96V1864.93H1033.35V1872H1026.13Z" fill="white"/>
</g>
<defs>
<filter id="filter0_i_22_4" x="50.6499" y="27.4248" width="965.478" height="581.16" filterUnits="userSpaceOnUse" color-interpolation-filters="sRGB">
<feFlood flood-opacity="0" result="BackgroundImageFix"/>
<feBlend mode="normal" in="SourceGraphic" in2="BackgroundImageFix" result="shape"/>
<feColorMatrix in="SourceAlpha" type="matrix" values="0 0 0 0 0 0 0 0 0 0 0 0 0 0 0 0 0 0 127 0" result="hardAlpha"/>
<feOffset/>
<feGaussianBlur stdDeviation="20"/>
<feComposite in2="hardAlpha" operator="arithmetic" k2="-1" k3="1"/>
<feColorMatrix type="matrix" values="0 0 0 0 0 0 0 0 0 0 0 0 0 0 0 0 0 0 1 0"/>
<feBlend mode="normal" in2="shape" result="effect1_innerShadow_22_4"/>
</filter>
<filter id="filter1_ddddd_22_4" x="-10" y="1521" width="1100" height="413" filterUnits="userSpaceOnUse" color-interpolation-filters="sRGB">
<feFlood flood-opacity="0" result="BackgroundImageFix"/>
<feColorMatrix in="SourceAlpha" type="matrix" values="0 0 0 0 0 0 0 0 0 0 0 0 0 0 0 0 0 0 127 0" result="hardAlpha"/>
<feOffset dy="4"/>
<feGaussianBlur stdDeviation="5"/>
<feComposite in2="hardAlpha" operator="out"/>
<feColorMatrix type="matrix" values="0 0 0 0 0 0 0 0 0 0 0 0 0 0 0 0 0 0 0.5 0"/>
<feBlend mode="normal" in2="BackgroundImageFix" result="effect1_dropShadow_22_4"/>
<feColorMatrix in="SourceAlpha" type="matrix" values="0 0 0 0 0 0 0 0 0 0 0 0 0 0 0 0 0 0 127 0" result="hardAlpha"/>
<feOffset dy="4"/>
<feGaussianBlur stdDeviation="5"/>
<feComposite in2="hardAlpha" operator="out"/>
<feColorMatrix type="matrix" values="0 0 0 0 0 0 0 0 0 0 0 0 0 0 0 0 0 0 0.5 0"/>
<feBlend mode="normal" in2="effect1_dropShadow_22_4" result="effect2_dropShadow_22_4"/>
<feColorMatrix in="SourceAlpha" type="matrix" values="0 0 0 0 0 0 0 0 0 0 0 0 0 0 0 0 0 0 127 0" result="hardAlpha"/>
<feOffset dy="4"/>
<feGaussianBlur stdDeviation="5"/>
<feComposite in2="hardAlpha" operator="out"/>
<feColorMatrix type="matrix" values="0 0 0 0 0 0 0 0 0 0 0 0 0 0 0 0 0 0 0.5 0"/>
<feBlend mode="normal" in2="effect2_dropShadow_22_4" result="effect3_dropShadow_22_4"/>
<feColorMatrix in="SourceAlpha" type="matrix" values="0 0 0 0 0 0 0 0 0 0 0 0 0 0 0 0 0 0 127 0" result="hardAlpha"/>
<feOffset dy="4"/>
<feGaussianBlur stdDeviation="5"/>
<feComposite in2="hardAlpha" operator="out"/>
<feColorMatrix type="matrix" values="0 0 0 0 0 0 0 0 0 0 0 0 0 0 0 0 0 0 0.5 0"/>
<feBlend mode="normal" in2="effect3_dropShadow_22_4" result="effect4_dropShadow_22_4"/>
<feColorMatrix in="SourceAlpha" type="matrix" values="0 0 0 0 0 0 0 0 0 0 0 0 0 0 0 0 0 0 127 0" result="hardAlpha"/>
<feOffset dy="4"/>
<feGaussianBlur stdDeviation="5"/>
<feComposite in2="hardAlpha" operator="out"/>
<feColorMatrix type="matrix" values="0 0 0 0 0 0 0 0 0 0 0 0 0 0 0 0 0 0 0.5 0"/>
<feBlend mode="normal" in2="effect4_dropShadow_22_4" result="effect5_dropShadow_22_4"/>
<feBlend mode="normal" in="SourceGraphic" in2="effect5_dropShadow_22_4" result="shape"/>
</filter>
<linearGradient id="paint0_linear_22_4" x1="88.0757" y1="197.223" x2="956.599" y2="214.588" gradientUnits="userSpaceOnUse">
<stop stop-color="#00FFE0"/>
<stop offset="1" stop-color="#29CC9B"/>
</linearGradient>
</defs>
</svg>
