<svg width="1081" height="1920" viewBox="0 0 1081 1920" fill="none" xmlns="http://www.w3.org/2000/svg">
<g id="Lichtbild-Scooby" clip-path="url(#clip0_26_174)">
<path id="Festival f&#195;&#188;r Bewegtbild Basel" d="M781.876 584.767V558.585H798.649V562.561H786.619V569.669H797.498V573.644H786.619V584.767H781.876ZM810.017 585.15C808.049 585.15 806.348 584.741 804.916 583.923C803.493 583.096 802.398 581.929 801.631 580.42C800.864 578.903 800.48 577.117 800.48 575.063C800.48 573.044 800.864 571.271 801.631 569.745C802.407 568.211 803.489 567.018 804.878 566.166C806.267 565.305 807.899 564.875 809.774 564.875C810.985 564.875 812.127 565.071 813.201 565.463C814.283 565.846 815.237 566.443 816.064 567.252C816.899 568.062 817.556 569.093 818.033 570.346C818.51 571.59 818.749 573.073 818.749 574.795V576.214H802.654V573.095H814.313C814.304 572.208 814.112 571.42 813.737 570.73C813.362 570.031 812.838 569.481 812.165 569.081C811.5 568.68 810.725 568.48 809.838 568.48C808.892 568.48 808.061 568.71 807.345 569.17C806.63 569.622 806.071 570.218 805.671 570.96C805.279 571.693 805.078 572.498 805.07 573.376V576.099C805.07 577.241 805.279 578.221 805.696 579.039C806.114 579.849 806.698 580.471 807.448 580.906C808.198 581.332 809.076 581.545 810.081 581.545C810.755 581.545 811.364 581.451 811.909 581.264C812.455 581.068 812.928 580.782 813.328 580.407C813.729 580.032 814.032 579.568 814.236 579.014L818.557 579.5C818.284 580.642 817.764 581.639 816.997 582.491C816.239 583.335 815.267 583.991 814.083 584.46C812.898 584.92 811.543 585.15 810.017 585.15ZM838.184 570.321L833.965 570.781C833.846 570.355 833.637 569.954 833.339 569.579C833.049 569.204 832.657 568.902 832.163 568.671C831.668 568.441 831.063 568.326 830.347 568.326C829.384 568.326 828.574 568.535 827.918 568.953C827.271 569.37 826.951 569.911 826.959 570.576C826.951 571.147 827.16 571.612 827.586 571.97C828.021 572.328 828.736 572.622 829.734 572.852L833.083 573.568C834.941 573.968 836.322 574.603 837.225 575.473C838.137 576.342 838.597 577.48 838.606 578.886C838.597 580.122 838.235 581.213 837.519 582.159C836.812 583.096 835.827 583.829 834.566 584.358C833.305 584.886 831.856 585.15 830.219 585.15C827.816 585.15 825.881 584.647 824.415 583.642C822.949 582.627 822.076 581.217 821.795 579.41L826.307 578.975C826.512 579.862 826.947 580.531 827.611 580.983C828.276 581.434 829.141 581.66 830.207 581.66C831.306 581.66 832.188 581.434 832.853 580.983C833.526 580.531 833.863 579.973 833.863 579.308C833.863 578.745 833.646 578.281 833.211 577.914C832.785 577.548 832.12 577.267 831.217 577.071L827.867 576.367C825.984 575.975 824.59 575.315 823.687 574.386C822.783 573.448 822.336 572.264 822.344 570.832C822.336 569.622 822.664 568.573 823.329 567.687C824.002 566.792 824.935 566.102 826.128 565.616C827.33 565.122 828.715 564.875 830.283 564.875C832.584 564.875 834.396 565.365 835.717 566.345C837.046 567.325 837.869 568.65 838.184 570.321ZM852.227 565.13V568.71H840.939V565.13H852.227ZM843.726 560.426H848.354V578.86C848.354 579.483 848.447 579.96 848.635 580.292C848.831 580.616 849.087 580.838 849.402 580.957C849.717 581.076 850.067 581.136 850.45 581.136C850.74 581.136 851.004 581.115 851.243 581.072C851.49 581.029 851.677 580.991 851.805 580.957L852.585 584.575C852.338 584.66 851.984 584.754 851.524 584.856C851.072 584.958 850.518 585.018 849.862 585.035C848.703 585.069 847.659 584.894 846.73 584.511C845.801 584.119 845.064 583.514 844.518 582.696C843.981 581.877 843.717 580.855 843.726 579.627V560.426ZM856.098 584.767V565.13H860.725V584.767H856.098ZM858.424 562.343C857.691 562.343 857.061 562.1 856.532 561.615C856.004 561.12 855.74 560.528 855.74 559.838C855.74 559.139 856.004 558.546 856.532 558.061C857.061 557.566 857.691 557.319 858.424 557.319C859.166 557.319 859.796 557.566 860.316 558.061C860.845 558.546 861.109 559.139 861.109 559.838C861.109 560.528 860.845 561.12 860.316 561.615C859.796 562.1 859.166 562.343 858.424 562.343ZM883.024 565.13L876.031 584.767H870.918L863.925 565.13H868.859L873.372 579.717H873.577L878.102 565.13H883.024ZM891.315 585.163C890.07 585.163 888.949 584.941 887.952 584.498C886.964 584.046 886.18 583.382 885.6 582.504C885.029 581.626 884.744 580.544 884.744 579.257C884.744 578.149 884.948 577.233 885.357 576.508C885.766 575.784 886.324 575.204 887.032 574.769C887.739 574.335 888.536 574.007 889.422 573.785C890.317 573.555 891.242 573.389 892.197 573.286C893.347 573.167 894.28 573.061 894.996 572.967C895.712 572.865 896.232 572.711 896.556 572.507C896.888 572.294 897.055 571.965 897.055 571.522V571.446C897.055 570.483 896.769 569.737 896.198 569.208C895.627 568.68 894.805 568.416 893.731 568.416C892.597 568.416 891.698 568.663 891.033 569.157C890.377 569.652 889.934 570.235 889.704 570.909L885.383 570.295C885.724 569.102 886.286 568.105 887.07 567.304C887.854 566.494 888.813 565.889 889.947 565.488C891.08 565.079 892.333 564.875 893.705 564.875C894.651 564.875 895.593 564.985 896.53 565.207C897.468 565.429 898.324 565.795 899.1 566.306C899.876 566.809 900.498 567.495 900.967 568.365C901.444 569.234 901.682 570.321 901.682 571.625V584.767H897.234V582.069H897.08C896.799 582.615 896.403 583.126 895.891 583.603C895.388 584.072 894.753 584.451 893.986 584.741C893.228 585.022 892.337 585.163 891.315 585.163ZM892.516 581.762C893.445 581.762 894.251 581.579 894.932 581.213C895.614 580.838 896.138 580.343 896.505 579.73C896.88 579.116 897.067 578.447 897.067 577.723V575.409C896.922 575.528 896.675 575.639 896.326 575.741C895.985 575.843 895.601 575.933 895.175 576.009C894.749 576.086 894.327 576.154 893.91 576.214C893.492 576.274 893.13 576.325 892.823 576.367C892.133 576.461 891.515 576.615 890.969 576.828C890.424 577.041 889.994 577.339 889.678 577.723C889.363 578.098 889.205 578.583 889.205 579.18C889.205 580.032 889.516 580.676 890.138 581.11C890.761 581.545 891.553 581.762 892.516 581.762ZM910.964 558.585V584.767H906.336V558.585H910.964ZM934.598 565.13V568.71H922.99V565.13H934.598ZM925.892 584.767V563.277C925.892 561.956 926.165 560.856 926.71 559.978C927.264 559.1 928.006 558.444 928.935 558.009C929.864 557.575 930.895 557.358 932.029 557.358C932.83 557.358 933.541 557.421 934.164 557.549C934.786 557.677 935.246 557.792 935.544 557.894L934.624 561.474C934.428 561.414 934.181 561.355 933.882 561.295C933.584 561.227 933.252 561.193 932.885 561.193C932.024 561.193 931.415 561.402 931.057 561.819C930.708 562.228 930.533 562.816 930.533 563.583V584.767H925.892ZM950.738 576.508V565.13H955.366V584.767H950.879V581.277H950.674C950.231 582.376 949.502 583.275 948.488 583.974C947.483 584.673 946.242 585.022 944.768 585.022C943.481 585.022 942.343 584.737 941.355 584.166C940.375 583.586 939.608 582.747 939.054 581.647C938.5 580.539 938.223 579.201 938.223 577.633V565.13H942.85V576.917C942.85 578.161 943.191 579.15 943.873 579.883C944.555 580.616 945.45 580.983 946.558 580.983C947.24 580.983 947.9 580.816 948.539 580.484C949.179 580.152 949.703 579.657 950.112 579.001C950.529 578.336 950.738 577.505 950.738 576.508ZM942.991 562.241C942.318 562.241 941.734 562.002 941.24 561.525C940.754 561.048 940.511 560.485 940.511 559.838C940.511 559.156 940.754 558.585 941.24 558.125C941.734 557.656 942.318 557.421 942.991 557.421C943.681 557.421 944.261 557.656 944.73 558.125C945.207 558.585 945.446 559.156 945.446 559.838C945.446 560.485 945.207 561.048 944.73 561.525C944.261 562.002 943.681 562.241 942.991 562.241ZM950.661 562.241C949.988 562.241 949.404 562.002 948.91 561.525C948.424 561.048 948.181 560.485 948.181 559.838C948.181 559.156 948.424 558.585 948.91 558.125C949.404 557.656 949.988 557.421 950.661 557.421C951.352 557.421 951.931 557.656 952.4 558.125C952.877 558.585 953.116 559.156 953.116 559.838C953.116 560.485 952.877 561.048 952.4 561.525C951.931 562.002 951.352 562.241 950.661 562.241ZM960.125 584.767V565.13H964.612V568.403H964.817C965.175 567.269 965.788 566.396 966.658 565.782C967.535 565.16 968.537 564.849 969.662 564.849C969.918 564.849 970.203 564.862 970.518 564.887C970.842 564.904 971.111 564.934 971.324 564.977V569.234C971.128 569.166 970.817 569.106 970.391 569.055C969.973 568.995 969.568 568.965 969.176 568.965C968.332 568.965 967.574 569.149 966.9 569.515C966.236 569.873 965.712 570.372 965.328 571.011C964.945 571.65 964.753 572.387 964.753 573.223V584.767H960.125ZM781.876 644.767V618.585H791.899C793.791 618.585 795.364 618.883 796.616 619.48C797.878 620.068 798.82 620.873 799.442 621.896C800.072 622.919 800.388 624.078 800.388 625.373C800.388 626.438 800.183 627.35 799.774 628.109C799.365 628.859 798.815 629.468 798.125 629.937C797.435 630.406 796.663 630.742 795.811 630.947V631.203C796.74 631.254 797.631 631.539 798.483 632.059C799.344 632.571 800.047 633.295 800.592 634.233C801.138 635.17 801.41 636.304 801.41 637.633C801.41 638.988 801.082 640.207 800.426 641.289C799.77 642.363 798.781 643.211 797.46 643.833C796.139 644.456 794.477 644.767 792.474 644.767H781.876ZM786.619 640.804H791.72C793.442 640.804 794.682 640.475 795.44 639.819C796.207 639.154 796.591 638.302 796.591 637.262C796.591 636.487 796.399 635.788 796.016 635.166C795.632 634.535 795.087 634.041 794.379 633.683C793.672 633.316 792.828 633.133 791.848 633.133H786.619V640.804ZM786.619 629.72H791.311C792.129 629.72 792.866 629.571 793.523 629.272C794.179 628.965 794.695 628.535 795.07 627.981C795.453 627.419 795.645 626.754 795.645 625.987C795.645 624.973 795.287 624.137 794.571 623.481C793.864 622.825 792.811 622.497 791.413 622.497H786.619V629.72ZM814.025 645.15C812.056 645.15 810.356 644.741 808.924 643.923C807.501 643.096 806.406 641.929 805.639 640.42C804.872 638.903 804.488 637.117 804.488 635.063C804.488 633.044 804.872 631.271 805.639 629.745C806.414 628.211 807.497 627.018 808.886 626.166C810.275 625.305 811.907 624.875 813.782 624.875C814.992 624.875 816.134 625.071 817.208 625.463C818.291 625.846 819.245 626.443 820.072 627.252C820.907 628.062 821.563 629.093 822.041 630.346C822.518 631.59 822.757 633.073 822.757 634.795V636.214H806.661V633.095H818.321C818.312 632.208 818.12 631.42 817.745 630.73C817.37 630.031 816.846 629.481 816.173 629.081C815.508 628.68 814.733 628.48 813.846 628.48C812.9 628.48 812.069 628.71 811.353 629.17C810.637 629.622 810.079 630.218 809.679 630.96C809.286 631.693 809.086 632.498 809.078 633.376V636.099C809.078 637.241 809.286 638.221 809.704 639.039C810.122 639.849 810.706 640.471 811.456 640.906C812.206 641.332 813.083 641.545 814.089 641.545C814.762 641.545 815.372 641.451 815.917 641.264C816.463 641.068 816.936 640.782 817.336 640.407C817.737 640.032 818.039 639.568 818.244 639.014L822.565 639.5C822.292 640.642 821.772 641.639 821.005 642.491C820.247 643.335 819.275 643.991 818.09 644.46C816.906 644.92 815.551 645.15 814.025 645.15ZM830.619 644.767L825.071 625.13H829.788L833.24 638.937H833.419L836.947 625.13H841.613L845.142 638.86H845.333L848.734 625.13H853.464L847.903 644.767H843.083L839.402 631.497H839.133L835.451 644.767H830.619ZM864.826 645.15C862.857 645.15 861.157 644.741 859.725 643.923C858.302 643.096 857.207 641.929 856.44 640.42C855.672 638.903 855.289 637.117 855.289 635.063C855.289 633.044 855.672 631.271 856.44 629.745C857.215 628.211 858.297 627.018 859.687 626.166C861.076 625.305 862.708 624.875 864.583 624.875C865.793 624.875 866.935 625.071 868.009 625.463C869.092 625.846 870.046 626.443 870.873 627.252C871.708 628.062 872.364 629.093 872.842 630.346C873.319 631.59 873.557 633.073 873.557 634.795V636.214H857.462V633.095H869.121C869.113 632.208 868.921 631.42 868.546 630.73C868.171 630.031 867.647 629.481 866.974 629.081C866.309 628.68 865.533 628.48 864.647 628.48C863.701 628.48 862.87 628.71 862.154 629.17C861.438 629.622 860.88 630.218 860.479 630.96C860.087 631.693 859.887 632.498 859.878 633.376V636.099C859.878 637.241 860.087 638.221 860.505 639.039C860.922 639.849 861.506 640.471 862.256 640.906C863.006 641.332 863.884 641.545 864.89 641.545C865.563 641.545 866.172 641.451 866.718 641.264C867.263 641.068 867.736 640.782 868.137 640.407C868.538 640.032 868.84 639.568 869.045 639.014L873.366 639.5C873.093 640.642 872.573 641.639 871.806 642.491C871.047 643.335 870.076 643.991 868.891 644.46C867.707 644.92 866.351 645.15 864.826 645.15ZM886.012 652.539C884.35 652.539 882.923 652.313 881.73 651.862C880.536 651.419 879.578 650.822 878.853 650.072C878.129 649.322 877.626 648.491 877.345 647.579L881.512 646.569C881.7 646.953 881.973 647.332 882.331 647.707C882.688 648.09 883.17 648.406 883.775 648.653C884.389 648.909 885.16 649.036 886.089 649.036C887.402 649.036 888.488 648.717 889.349 648.078C890.21 647.447 890.64 646.407 890.64 644.958V641.238H890.41C890.171 641.715 889.822 642.206 889.362 642.708C888.91 643.211 888.309 643.633 887.559 643.974C886.818 644.315 885.884 644.485 884.759 644.485C883.251 644.485 881.883 644.132 880.656 643.424C879.437 642.708 878.465 641.643 877.741 640.228C877.025 638.805 876.667 637.024 876.667 634.884C876.667 632.728 877.025 630.909 877.741 629.426C878.465 627.934 879.441 626.805 880.669 626.038C881.896 625.262 883.264 624.875 884.772 624.875C885.923 624.875 886.869 625.071 887.61 625.463C888.36 625.846 888.957 626.311 889.4 626.856C889.843 627.393 890.18 627.9 890.41 628.377H890.666V625.13H895.23V645.086C895.23 646.765 894.829 648.154 894.028 649.254C893.227 650.353 892.132 651.176 890.742 651.721C889.353 652.267 887.777 652.539 886.012 652.539ZM886.051 640.855C887.031 640.855 887.866 640.616 888.556 640.139C889.247 639.661 889.771 638.975 890.129 638.081C890.487 637.186 890.666 636.112 890.666 634.859C890.666 633.623 890.487 632.541 890.129 631.612C889.779 630.683 889.259 629.963 888.569 629.451C887.887 628.931 887.048 628.671 886.051 628.671C885.019 628.671 884.159 628.94 883.468 629.477C882.778 630.014 882.258 630.751 881.909 631.688C881.559 632.617 881.384 633.674 881.384 634.859C881.384 636.061 881.559 637.113 881.909 638.017C882.267 638.911 882.791 639.61 883.481 640.113C884.18 640.608 885.036 640.855 886.051 640.855ZM909.778 625.13V628.71H898.49V625.13H909.778ZM901.277 620.426H905.904V638.86C905.904 639.483 905.998 639.96 906.186 640.292C906.382 640.616 906.637 640.838 906.953 640.957C907.268 641.076 907.617 641.136 908.001 641.136C908.291 641.136 908.555 641.115 908.794 641.072C909.041 641.029 909.228 640.991 909.356 640.957L910.136 644.575C909.889 644.66 909.535 644.754 909.075 644.856C908.623 644.958 908.069 645.018 907.413 645.035C906.254 645.069 905.21 644.894 904.281 644.511C903.352 644.119 902.615 643.514 902.069 642.696C901.532 641.877 901.268 640.855 901.277 639.627V620.426ZM914.275 644.767V618.585H918.903V628.377H919.094C919.333 627.9 919.67 627.393 920.104 626.856C920.539 626.311 921.127 625.846 921.869 625.463C922.61 625.071 923.556 624.875 924.707 624.875C926.224 624.875 927.592 625.262 928.81 626.038C930.038 626.805 931.009 627.943 931.725 629.451C932.449 630.951 932.812 632.792 932.812 634.974C932.812 637.13 932.458 638.963 931.751 640.471C931.043 641.98 930.08 643.13 928.861 643.923C927.643 644.715 926.262 645.112 924.719 645.112C923.594 645.112 922.661 644.924 921.92 644.549C921.178 644.174 920.582 643.723 920.13 643.194C919.687 642.657 919.342 642.15 919.094 641.673H918.826V644.767H914.275ZM918.813 634.948C918.813 636.218 918.992 637.331 919.35 638.285C919.717 639.24 920.241 639.985 920.922 640.522C921.613 641.051 922.448 641.315 923.428 641.315C924.451 641.315 925.307 641.042 925.998 640.497C926.688 639.943 927.208 639.188 927.557 638.234C927.915 637.271 928.094 636.176 928.094 634.948C928.094 633.73 927.92 632.647 927.57 631.701C927.221 630.755 926.701 630.014 926.011 629.477C925.32 628.94 924.459 628.671 923.428 628.671C922.44 628.671 921.6 628.931 920.91 629.451C920.219 629.971 919.695 630.7 919.337 631.637C918.988 632.575 918.813 633.679 918.813 634.948ZM936.746 644.767V625.13H941.374V644.767H936.746ZM939.073 622.343C938.34 622.343 937.709 622.1 937.181 621.615C936.652 621.12 936.388 620.528 936.388 619.838C936.388 619.139 936.652 618.546 937.181 618.061C937.709 617.566 938.34 617.319 939.073 617.319C939.814 617.319 940.445 617.566 940.965 618.061C941.493 618.546 941.757 619.139 941.757 619.838C941.757 620.528 941.493 621.12 940.965 621.615C940.445 622.1 939.814 622.343 939.073 622.343ZM950.761 618.585V644.767H946.133V618.585H950.761ZM962.806 645.112C961.264 645.112 959.883 644.715 958.664 643.923C957.446 643.13 956.483 641.98 955.775 640.471C955.068 638.963 954.714 637.13 954.714 634.974C954.714 632.792 955.072 630.951 955.788 629.451C956.512 627.943 957.488 626.805 958.715 626.038C959.943 625.262 961.311 624.875 962.819 624.875C963.97 624.875 964.916 625.071 965.657 625.463C966.399 625.846 966.987 626.311 967.421 626.856C967.856 627.393 968.193 627.9 968.431 628.377H968.623V618.585H973.264V644.767H968.713V641.673H968.431C968.193 642.15 967.848 642.657 967.396 643.194C966.944 643.723 966.348 644.174 965.606 644.549C964.865 644.924 963.931 645.112 962.806 645.112ZM964.098 641.315C965.078 641.315 965.913 641.051 966.603 640.522C967.294 639.985 967.818 639.24 968.176 638.285C968.534 637.331 968.713 636.218 968.713 634.948C968.713 633.679 968.534 632.575 968.176 631.637C967.826 630.7 967.306 629.971 966.616 629.451C965.934 628.931 965.095 628.671 964.098 628.671C963.066 628.671 962.206 628.94 961.515 629.477C960.825 630.014 960.305 630.755 959.956 631.701C959.606 632.647 959.431 633.73 959.431 634.948C959.431 636.176 959.606 637.271 959.956 638.234C960.313 639.188 960.838 639.943 961.528 640.497C962.227 641.042 963.083 641.315 964.098 641.315ZM781.876 704.767V678.585H791.899C793.791 678.585 795.364 678.883 796.616 679.48C797.878 680.068 798.82 680.873 799.442 681.896C800.072 682.919 800.388 684.078 800.388 685.373C800.388 686.438 800.183 687.35 799.774 688.109C799.365 688.859 798.815 689.468 798.125 689.937C797.435 690.406 796.663 690.742 795.811 690.947V691.203C796.74 691.254 797.631 691.539 798.483 692.059C799.344 692.571 800.047 693.295 800.592 694.233C801.138 695.17 801.41 696.304 801.41 697.633C801.41 698.988 801.082 700.207 800.426 701.289C799.77 702.363 798.781 703.211 797.46 703.833C796.139 704.456 794.477 704.767 792.474 704.767H781.876ZM786.619 700.804H791.72C793.442 700.804 794.682 700.475 795.44 699.819C796.207 699.154 796.591 698.302 796.591 697.262C796.591 696.487 796.399 695.788 796.016 695.166C795.632 694.535 795.087 694.041 794.379 693.683C793.672 693.316 792.828 693.133 791.848 693.133H786.619V700.804ZM786.619 689.72H791.311C792.129 689.72 792.866 689.571 793.523 689.272C794.179 688.965 794.695 688.535 795.07 687.981C795.453 687.419 795.645 686.754 795.645 685.987C795.645 684.973 795.287 684.137 794.571 683.481C793.864 682.825 792.811 682.497 791.413 682.497H786.619V689.72ZM810.983 705.163C809.738 705.163 808.617 704.941 807.62 704.498C806.632 704.046 805.848 703.382 805.268 702.504C804.697 701.626 804.411 700.544 804.411 699.257C804.411 698.149 804.616 697.233 805.025 696.508C805.434 695.784 805.992 695.204 806.7 694.769C807.407 694.335 808.204 694.007 809.09 693.785C809.985 693.555 810.91 693.389 811.865 693.286C813.015 693.167 813.948 693.061 814.664 692.967C815.38 692.865 815.9 692.711 816.224 692.507C816.556 692.294 816.723 691.965 816.723 691.522V691.446C816.723 690.483 816.437 689.737 815.866 689.208C815.295 688.68 814.473 688.416 813.399 688.416C812.265 688.416 811.366 688.663 810.701 689.157C810.045 689.652 809.602 690.235 809.372 690.909L805.051 690.295C805.392 689.102 805.954 688.105 806.738 687.304C807.522 686.494 808.481 685.889 809.615 685.488C810.748 685.079 812.001 684.875 813.373 684.875C814.319 684.875 815.261 684.985 816.198 685.207C817.136 685.429 817.992 685.795 818.768 686.306C819.544 686.809 820.166 687.495 820.635 688.365C821.112 689.234 821.35 690.321 821.35 691.625V704.767H816.902V702.069H816.748C816.467 702.615 816.071 703.126 815.559 703.603C815.056 704.072 814.421 704.451 813.654 704.741C812.896 705.022 812.005 705.163 810.983 705.163ZM812.184 701.762C813.113 701.762 813.919 701.579 814.6 701.213C815.282 700.838 815.806 700.343 816.173 699.73C816.548 699.116 816.735 698.447 816.735 697.723V695.409C816.59 695.528 816.343 695.639 815.994 695.741C815.653 695.843 815.269 695.933 814.843 696.009C814.417 696.086 813.995 696.154 813.578 696.214C813.16 696.274 812.798 696.325 812.491 696.367C811.801 696.461 811.183 696.615 810.637 696.828C810.092 697.041 809.661 697.339 809.346 697.723C809.031 698.098 808.873 698.583 808.873 699.18C808.873 700.032 809.184 700.676 809.806 701.11C810.429 701.545 811.221 701.762 812.184 701.762ZM841.524 690.321L837.305 690.781C837.186 690.355 836.977 689.954 836.679 689.579C836.389 689.204 835.997 688.902 835.502 688.671C835.008 688.441 834.403 688.326 833.687 688.326C832.724 688.326 831.914 688.535 831.258 688.953C830.61 689.37 830.291 689.911 830.299 690.576C830.291 691.147 830.5 691.612 830.926 691.97C831.36 692.328 832.076 692.622 833.073 692.852L836.423 693.568C838.281 693.968 839.661 694.603 840.565 695.473C841.477 696.342 841.937 697.48 841.946 698.886C841.937 700.122 841.575 701.213 840.859 702.159C840.152 703.096 839.167 703.829 837.906 704.358C836.644 704.886 835.196 705.15 833.559 705.15C831.156 705.15 829.221 704.647 827.755 703.642C826.289 702.627 825.416 701.217 825.134 699.41L829.647 698.975C829.852 699.862 830.286 700.531 830.951 700.983C831.616 701.434 832.481 701.66 833.546 701.66C834.646 701.66 835.528 701.434 836.193 700.983C836.866 700.531 837.203 699.973 837.203 699.308C837.203 698.745 836.985 698.281 836.551 697.914C836.125 697.548 835.46 697.267 834.556 697.071L831.207 696.367C829.323 695.975 827.93 695.315 827.027 694.386C826.123 693.448 825.676 692.264 825.684 690.832C825.676 689.622 826.004 688.573 826.669 687.687C827.342 686.792 828.275 686.102 829.468 685.616C830.67 685.122 832.055 684.875 833.623 684.875C835.924 684.875 837.735 685.365 839.056 686.345C840.386 687.325 841.208 688.65 841.524 690.321ZM854.455 705.15C852.486 705.15 850.786 704.741 849.354 703.923C847.931 703.096 846.835 701.929 846.068 700.42C845.301 698.903 844.918 697.117 844.918 695.063C844.918 693.044 845.301 691.271 846.068 689.745C846.844 688.211 847.926 687.018 849.316 686.166C850.705 685.305 852.337 684.875 854.212 684.875C855.422 684.875 856.564 685.071 857.638 685.463C858.72 685.846 859.675 686.443 860.502 687.252C861.337 688.062 861.993 689.093 862.47 690.346C862.948 691.59 863.186 693.073 863.186 694.795V696.214H847.091V693.095H858.75C858.742 692.208 858.55 691.42 858.175 690.73C857.8 690.031 857.276 689.481 856.603 689.081C855.938 688.68 855.162 688.48 854.276 688.48C853.33 688.48 852.499 688.71 851.783 689.17C851.067 689.622 850.509 690.218 850.108 690.96C849.716 691.693 849.516 692.498 849.507 693.376V696.099C849.507 697.241 849.716 698.221 850.134 699.039C850.551 699.849 851.135 700.471 851.885 700.906C852.635 701.332 853.513 701.545 854.519 701.545C855.192 701.545 855.801 701.451 856.347 701.264C856.892 701.068 857.365 700.782 857.766 700.407C858.166 700.032 858.469 699.568 858.674 699.014L862.995 699.5C862.722 700.642 862.202 701.639 861.435 702.491C860.676 703.335 859.705 703.991 858.52 704.46C857.335 704.92 855.98 705.15 854.455 705.15ZM871.729 678.585V704.767H867.101V678.585H871.729Z" fill="white"/>
<path id="23.&#226;&#128;&#147;28. September 2024" d="M782.547 1709.76V1706.34L791.637 1697.43C792.506 1696.55 793.231 1695.77 793.81 1695.09C794.39 1694.41 794.824 1693.75 795.114 1693.11C795.404 1692.47 795.549 1691.78 795.549 1691.06C795.549 1690.23 795.361 1689.53 794.986 1688.94C794.611 1688.34 794.096 1687.88 793.439 1687.56C792.783 1687.23 792.037 1687.07 791.202 1687.07C790.341 1687.07 789.587 1687.25 788.939 1687.61C788.292 1687.96 787.789 1688.46 787.431 1689.1C787.081 1689.75 786.907 1690.52 786.907 1691.42H782.394C782.394 1689.76 782.773 1688.31 783.532 1687.08C784.29 1685.86 785.334 1684.91 786.664 1684.23C788.002 1683.56 789.536 1683.22 791.266 1683.22C793.022 1683.22 794.564 1683.55 795.894 1684.21C797.224 1684.86 798.255 1685.76 798.988 1686.91C799.729 1688.05 800.1 1689.35 800.1 1690.82C800.1 1691.8 799.912 1692.76 799.537 1693.71C799.162 1694.65 798.502 1695.7 797.556 1696.85C796.618 1698 795.302 1699.4 793.606 1701.03L789.093 1705.62V1705.8H800.496V1709.76H782.547ZM814.303 1710.12C812.462 1710.12 810.826 1709.81 809.394 1709.18C807.971 1708.54 806.846 1707.67 806.019 1706.54C805.192 1705.42 804.753 1704.12 804.702 1702.64H809.509C809.552 1703.35 809.786 1703.97 810.212 1704.5C810.638 1705.02 811.205 1705.42 811.912 1705.71C812.62 1706 813.412 1706.15 814.29 1706.15C815.228 1706.15 816.059 1705.98 816.783 1705.66C817.508 1705.33 818.074 1704.87 818.483 1704.28C818.893 1703.69 819.093 1703.01 819.084 1702.25C819.093 1701.45 818.888 1700.76 818.471 1700.15C818.053 1699.54 817.448 1699.07 816.655 1698.73C815.871 1698.39 814.925 1698.22 813.817 1698.22H811.503V1694.56H813.817C814.729 1694.56 815.526 1694.41 816.208 1694.09C816.898 1693.78 817.439 1693.33 817.831 1692.76C818.224 1692.18 818.415 1691.51 818.407 1690.75C818.415 1690.01 818.249 1689.37 817.908 1688.82C817.576 1688.27 817.103 1687.84 816.489 1687.53C815.884 1687.23 815.172 1687.07 814.354 1687.07C813.553 1687.07 812.812 1687.22 812.13 1687.51C811.448 1687.8 810.898 1688.21 810.481 1688.75C810.063 1689.28 809.841 1689.91 809.816 1690.64H805.252C805.286 1689.17 805.708 1687.89 806.518 1686.78C807.336 1685.66 808.427 1684.79 809.79 1684.17C811.154 1683.54 812.684 1683.22 814.38 1683.22C816.127 1683.22 817.644 1683.55 818.931 1684.21C820.226 1684.86 821.228 1685.73 821.935 1686.83C822.643 1687.93 822.996 1689.14 822.996 1690.47C823.005 1691.95 822.57 1693.18 821.692 1694.18C820.823 1695.18 819.681 1695.83 818.266 1696.14V1696.34C820.107 1696.6 821.518 1697.28 822.498 1698.39C823.486 1699.49 823.976 1700.85 823.968 1702.49C823.968 1703.96 823.55 1705.27 822.715 1706.43C821.888 1707.58 820.746 1708.48 819.289 1709.14C817.84 1709.79 816.178 1710.12 814.303 1710.12ZM830.485 1710.04C829.709 1710.04 829.044 1709.77 828.49 1709.23C827.936 1708.68 827.664 1708.02 827.672 1707.23C827.664 1706.47 827.936 1705.81 828.49 1705.26C829.044 1704.72 829.709 1704.45 830.485 1704.45C831.235 1704.45 831.887 1704.72 832.441 1705.26C833.003 1705.81 833.289 1706.47 833.297 1707.23C833.289 1707.75 833.152 1708.23 832.888 1708.65C832.632 1709.08 832.291 1709.42 831.865 1709.67C831.448 1709.92 830.987 1710.04 830.485 1710.04ZM853.697 1694.77V1698.58H835.697V1694.77H853.697ZM856.024 1709.76V1706.34L865.113 1697.43C865.983 1696.55 866.707 1695.77 867.287 1695.09C867.866 1694.41 868.301 1693.75 868.591 1693.11C868.881 1692.47 869.025 1691.78 869.025 1691.06C869.025 1690.23 868.838 1689.53 868.463 1688.94C868.088 1688.34 867.572 1687.88 866.916 1687.56C866.26 1687.23 865.514 1687.07 864.679 1687.07C863.818 1687.07 863.064 1687.25 862.416 1687.61C861.768 1687.96 861.265 1688.46 860.907 1689.1C860.558 1689.75 860.383 1690.52 860.383 1691.42H855.871C855.871 1689.76 856.25 1688.31 857.008 1687.08C857.767 1685.86 858.811 1684.91 860.14 1684.23C861.479 1683.56 863.013 1683.22 864.743 1683.22C866.498 1683.22 868.041 1683.55 869.371 1684.21C870.7 1684.86 871.731 1685.76 872.464 1686.91C873.206 1688.05 873.577 1689.35 873.577 1690.82C873.577 1691.8 873.389 1692.76 873.014 1693.71C872.639 1694.65 871.979 1695.7 871.032 1696.85C870.095 1698 868.778 1699.4 867.082 1701.03L862.569 1705.62V1705.8H873.973V1709.76H856.024ZM887.69 1710.12C885.79 1710.12 884.102 1709.8 882.628 1709.16C881.162 1708.52 880.011 1707.65 879.176 1706.54C878.349 1705.43 877.94 1704.16 877.949 1702.75C877.94 1701.65 878.179 1700.64 878.665 1699.72C879.15 1698.79 879.807 1698.03 880.633 1697.41C881.469 1696.79 882.398 1696.4 883.42 1696.23V1696.05C882.074 1695.75 880.983 1695.06 880.148 1693.99C879.321 1692.91 878.912 1691.66 878.92 1690.24C878.912 1688.9 879.287 1687.69 880.045 1686.64C880.804 1685.58 881.844 1684.75 883.165 1684.14C884.486 1683.53 885.994 1683.22 887.69 1683.22C889.369 1683.22 890.865 1683.53 892.177 1684.14C893.498 1684.75 894.538 1685.58 895.297 1686.64C896.064 1687.69 896.447 1688.9 896.447 1690.24C896.447 1691.66 896.025 1692.91 895.182 1693.99C894.346 1695.06 893.268 1695.75 891.947 1696.05V1696.23C892.97 1696.4 893.89 1696.79 894.709 1697.41C895.535 1698.03 896.192 1698.79 896.677 1699.72C897.172 1700.64 897.419 1701.65 897.419 1702.75C897.419 1704.16 897.001 1705.43 896.166 1706.54C895.331 1707.65 894.18 1708.52 892.714 1709.16C891.257 1709.8 889.582 1710.12 887.69 1710.12ZM887.69 1706.47C888.67 1706.47 889.523 1706.3 890.247 1705.97C890.971 1705.63 891.534 1705.15 891.934 1704.53C892.335 1703.92 892.54 1703.21 892.548 1702.41C892.54 1701.58 892.322 1700.84 891.896 1700.2C891.479 1699.55 890.903 1699.05 890.17 1698.68C889.446 1698.31 888.619 1698.13 887.69 1698.13C886.753 1698.13 885.917 1698.31 885.184 1698.68C884.452 1699.05 883.872 1699.55 883.446 1700.2C883.028 1700.84 882.824 1701.58 882.832 1702.41C882.824 1703.21 883.02 1703.92 883.42 1704.53C883.821 1705.14 884.383 1705.61 885.108 1705.95C885.841 1706.29 886.702 1706.47 887.69 1706.47ZM887.69 1694.54C888.491 1694.54 889.199 1694.38 889.812 1694.05C890.434 1693.73 890.925 1693.28 891.282 1692.7C891.64 1692.12 891.824 1691.45 891.832 1690.69C891.824 1689.94 891.645 1689.28 891.295 1688.72C890.946 1688.15 890.46 1687.71 889.838 1687.4C889.216 1687.09 888.5 1686.93 887.69 1686.93C886.863 1686.93 886.135 1687.09 885.504 1687.4C884.882 1687.71 884.396 1688.15 884.047 1688.72C883.706 1689.28 883.54 1689.94 883.548 1690.69C883.54 1691.45 883.71 1692.12 884.059 1692.7C884.417 1693.27 884.907 1693.72 885.53 1694.05C886.16 1694.38 886.881 1694.54 887.69 1694.54ZM903.75 1710.04C902.975 1710.04 902.31 1709.77 901.756 1709.23C901.202 1708.68 900.929 1708.02 900.938 1707.23C900.929 1706.47 901.202 1705.81 901.756 1705.26C902.31 1704.72 902.975 1704.45 903.75 1704.45C904.5 1704.45 905.152 1704.72 905.706 1705.26C906.269 1705.81 906.554 1706.47 906.563 1707.23C906.554 1707.75 906.418 1708.23 906.154 1708.65C905.898 1709.08 905.557 1709.42 905.131 1709.67C904.713 1709.92 904.253 1710.04 903.75 1710.04ZM797.032 1750.78C796.912 1749.66 796.41 1748.79 795.523 1748.17C794.645 1747.55 793.503 1747.24 792.097 1747.24C791.108 1747.24 790.26 1747.39 789.553 1747.69C788.846 1747.98 788.305 1748.39 787.93 1748.9C787.555 1749.41 787.363 1750 787.354 1750.65C787.354 1751.2 787.478 1751.67 787.725 1752.07C787.981 1752.47 788.326 1752.81 788.76 1753.09C789.195 1753.37 789.677 1753.6 790.205 1753.78C790.733 1753.97 791.266 1754.13 791.803 1754.26L794.258 1754.87C795.246 1755.1 796.197 1755.41 797.108 1755.8C798.029 1756.2 798.851 1756.69 799.576 1757.29C800.309 1757.88 800.888 1758.6 801.314 1759.45C801.741 1760.29 801.954 1761.28 801.954 1762.41C801.954 1763.95 801.562 1765.3 800.778 1766.47C799.993 1767.62 798.86 1768.53 797.377 1769.19C795.903 1769.84 794.117 1770.16 792.02 1770.16C789.983 1770.16 788.215 1769.84 786.715 1769.21C785.224 1768.58 784.056 1767.66 783.212 1766.45C782.377 1765.24 781.925 1763.77 781.857 1762.03H786.523C786.591 1762.94 786.873 1763.7 787.367 1764.3C787.861 1764.91 788.505 1765.36 789.297 1765.66C790.099 1765.96 790.993 1766.11 791.982 1766.11C793.013 1766.11 793.917 1765.95 794.692 1765.65C795.476 1765.33 796.09 1764.9 796.533 1764.34C796.976 1763.78 797.202 1763.12 797.211 1762.37C797.202 1761.69 797.002 1761.13 796.61 1760.69C796.218 1760.24 795.668 1759.86 794.961 1759.56C794.262 1759.26 793.444 1758.98 792.506 1758.74L789.528 1757.98C787.371 1757.42 785.667 1756.58 784.414 1755.46C783.17 1754.32 782.547 1752.82 782.547 1750.95C782.547 1749.4 782.965 1748.05 783.8 1746.89C784.644 1745.73 785.79 1744.83 787.239 1744.2C788.688 1743.55 790.329 1743.22 792.161 1743.22C794.019 1743.22 795.647 1743.55 797.045 1744.2C798.451 1744.83 799.555 1745.73 800.356 1746.87C801.157 1748 801.57 1749.3 801.596 1750.78H797.032ZM814.671 1770.15C812.702 1770.15 811.002 1769.74 809.57 1768.92C808.146 1768.09 807.051 1766.93 806.284 1765.42C805.517 1763.9 805.134 1762.11 805.134 1760.06C805.134 1758.04 805.517 1756.27 806.284 1754.74C807.06 1753.21 808.142 1752.02 809.531 1751.16C810.921 1750.3 812.553 1749.87 814.428 1749.87C815.638 1749.87 816.78 1750.07 817.854 1750.46C818.936 1750.84 819.891 1751.44 820.718 1752.25C821.553 1753.06 822.209 1754.09 822.686 1755.34C823.164 1756.59 823.402 1758.07 823.402 1759.79V1761.21H807.307V1758.09H818.966C818.958 1757.21 818.766 1756.42 818.391 1755.73C818.016 1755.03 817.492 1754.48 816.818 1754.08C816.154 1753.68 815.378 1753.48 814.492 1753.48C813.546 1753.48 812.715 1753.71 811.999 1754.17C811.283 1754.62 810.725 1755.22 810.324 1755.96C809.932 1756.69 809.732 1757.5 809.723 1758.37V1761.1C809.723 1762.24 809.932 1763.22 810.35 1764.04C810.767 1764.85 811.351 1765.47 812.101 1765.9C812.851 1766.33 813.729 1766.54 814.735 1766.54C815.408 1766.54 816.017 1766.45 816.563 1766.26C817.108 1766.06 817.581 1765.78 817.982 1765.4C818.382 1765.03 818.685 1764.56 818.889 1764.01L823.21 1764.5C822.938 1765.64 822.418 1766.64 821.651 1767.49C820.892 1768.33 819.921 1768.99 818.736 1769.46C817.551 1769.92 816.196 1770.15 814.671 1770.15ZM827.317 1777.13V1750.13H831.868V1753.37H832.137C832.376 1752.9 832.712 1752.39 833.147 1751.85C833.581 1751.31 834.17 1750.84 834.911 1750.46C835.653 1750.07 836.599 1749.87 837.749 1749.87C839.266 1749.87 840.634 1750.26 841.853 1751.03C843.08 1751.8 844.052 1752.94 844.768 1754.45C845.492 1755.95 845.854 1757.79 845.854 1759.97C845.854 1762.13 845.501 1763.96 844.793 1765.47C844.086 1766.98 843.123 1768.13 841.904 1768.92C840.685 1769.71 839.305 1770.11 837.762 1770.11C836.637 1770.11 835.704 1769.92 834.962 1769.55C834.221 1769.17 833.624 1768.72 833.172 1768.19C832.729 1767.65 832.384 1767.15 832.137 1766.67H831.945V1777.13H827.317ZM831.856 1759.95C831.856 1761.22 832.035 1762.33 832.393 1763.28C832.759 1764.24 833.283 1764.98 833.965 1765.52C834.655 1766.05 835.491 1766.31 836.471 1766.31C837.493 1766.31 838.35 1766.04 839.04 1765.49C839.731 1764.94 840.251 1764.19 840.6 1763.23C840.958 1762.27 841.137 1761.17 841.137 1759.95C841.137 1758.73 840.962 1757.64 840.613 1756.7C840.263 1755.75 839.743 1755.01 839.053 1754.47C838.363 1753.94 837.502 1753.67 836.471 1753.67C835.482 1753.67 834.643 1753.93 833.952 1754.45C833.262 1754.97 832.738 1755.7 832.38 1756.63C832.03 1757.57 831.856 1758.68 831.856 1759.95ZM859.623 1750.13V1753.71H848.334V1750.13H859.623ZM851.121 1745.42H855.749V1763.86C855.749 1764.48 855.843 1764.96 856.03 1765.29C856.226 1765.61 856.482 1765.83 856.797 1765.95C857.113 1766.07 857.462 1766.13 857.846 1766.13C858.135 1766.13 858.4 1766.11 858.638 1766.07C858.885 1766.03 859.073 1765.99 859.201 1765.95L859.981 1769.57C859.733 1769.66 859.38 1769.75 858.92 1769.85C858.468 1769.96 857.914 1770.02 857.258 1770.03C856.099 1770.07 855.055 1769.89 854.126 1769.51C853.197 1769.12 852.459 1768.51 851.914 1767.69C851.377 1766.87 851.113 1765.85 851.121 1764.62V1745.42ZM871.975 1770.15C870.007 1770.15 868.306 1769.74 866.874 1768.92C865.451 1768.09 864.356 1766.93 863.589 1765.42C862.822 1763.9 862.438 1762.11 862.438 1760.06C862.438 1758.04 862.822 1756.27 863.589 1754.74C864.365 1753.21 865.447 1752.02 866.836 1751.16C868.225 1750.3 869.857 1749.87 871.732 1749.87C872.943 1749.87 874.085 1750.07 875.159 1750.46C876.241 1750.84 877.195 1751.44 878.022 1752.25C878.857 1753.06 879.514 1754.09 879.991 1755.34C880.468 1756.59 880.707 1758.07 880.707 1759.79V1761.21H864.612V1758.09H876.271C876.262 1757.21 876.07 1756.42 875.695 1755.73C875.32 1755.03 874.796 1754.48 874.123 1754.08C873.458 1753.68 872.683 1753.48 871.796 1753.48C870.85 1753.48 870.019 1753.71 869.303 1754.17C868.588 1754.62 868.029 1755.22 867.629 1755.96C867.237 1756.69 867.036 1757.5 867.028 1758.37V1761.1C867.028 1762.24 867.237 1763.22 867.654 1764.04C868.072 1764.85 868.656 1765.47 869.406 1765.9C870.156 1766.33 871.034 1766.54 872.039 1766.54C872.713 1766.54 873.322 1766.45 873.867 1766.26C874.413 1766.06 874.886 1765.78 875.286 1765.4C875.687 1765.03 875.99 1764.56 876.194 1764.01L880.515 1764.5C880.242 1765.64 879.722 1766.64 878.955 1767.49C878.197 1768.33 877.225 1768.99 876.041 1769.46C874.856 1769.92 873.501 1770.15 871.975 1770.15ZM884.622 1769.76V1750.13H889.045V1753.46H889.275C889.684 1752.34 890.362 1751.46 891.308 1750.83C892.254 1750.19 893.383 1749.87 894.696 1749.87C896.025 1749.87 897.146 1750.2 898.058 1750.84C898.979 1751.48 899.626 1752.36 900.001 1753.46H900.206C900.64 1752.37 901.373 1751.5 902.405 1750.86C903.444 1750.2 904.676 1749.87 906.099 1749.87C907.906 1749.87 909.381 1750.44 910.523 1751.58C911.665 1752.73 912.236 1754.39 912.236 1756.58V1769.76H907.595V1757.3C907.595 1756.08 907.271 1755.19 906.623 1754.63C905.976 1754.06 905.183 1753.77 904.246 1753.77C903.129 1753.77 902.256 1754.12 901.625 1754.82C901.003 1755.51 900.692 1756.41 900.692 1757.52V1769.76H896.153V1757.11C896.153 1756.09 895.846 1755.28 895.233 1754.68C894.628 1754.07 893.835 1753.77 892.855 1753.77C892.19 1753.77 891.585 1753.94 891.04 1754.28C890.494 1754.61 890.059 1755.09 889.736 1755.7C889.412 1756.31 889.25 1757.01 889.25 1757.82V1769.76H884.622ZM917.135 1769.76V1743.58H921.763V1753.37H921.955C922.193 1752.9 922.53 1752.39 922.965 1751.85C923.399 1751.31 923.987 1750.84 924.729 1750.46C925.47 1750.07 926.416 1749.87 927.567 1749.87C929.084 1749.87 930.452 1750.26 931.671 1751.03C932.898 1751.8 933.869 1752.94 934.585 1754.45C935.31 1755.95 935.672 1757.79 935.672 1759.97C935.672 1762.13 935.318 1763.96 934.611 1765.47C933.904 1766.98 932.941 1768.13 931.722 1768.92C930.503 1769.71 929.122 1770.11 927.58 1770.11C926.455 1770.11 925.521 1769.92 924.78 1769.55C924.039 1769.17 923.442 1768.72 922.99 1768.19C922.547 1767.65 922.202 1767.15 921.955 1766.67H921.686V1769.76H917.135ZM921.673 1759.95C921.673 1761.22 921.852 1762.33 922.21 1763.28C922.577 1764.24 923.101 1764.98 923.783 1765.52C924.473 1766.05 925.308 1766.31 926.289 1766.31C927.311 1766.31 928.168 1766.04 928.858 1765.49C929.548 1764.94 930.068 1764.19 930.418 1763.23C930.776 1762.27 930.955 1761.17 930.955 1759.95C930.955 1758.73 930.78 1757.64 930.431 1756.7C930.081 1755.75 929.561 1755.01 928.871 1754.47C928.181 1753.94 927.32 1753.67 926.289 1753.67C925.3 1753.67 924.46 1753.93 923.77 1754.45C923.08 1754.97 922.556 1755.7 922.198 1756.63C921.848 1757.57 921.673 1758.68 921.673 1759.95ZM948.3 1770.15C946.331 1770.15 944.631 1769.74 943.199 1768.92C941.775 1768.09 940.68 1766.93 939.913 1765.42C939.146 1763.9 938.763 1762.11 938.763 1760.06C938.763 1758.04 939.146 1756.27 939.913 1754.74C940.689 1753.21 941.771 1752.02 943.16 1751.16C944.55 1750.3 946.182 1749.87 948.057 1749.87C949.267 1749.87 950.409 1750.07 951.483 1750.46C952.565 1750.84 953.52 1751.44 954.346 1752.25C955.182 1753.06 955.838 1754.09 956.315 1755.34C956.792 1756.59 957.031 1758.07 957.031 1759.79V1761.21H940.936V1758.09H952.595C952.586 1757.21 952.395 1756.42 952.02 1755.73C951.645 1755.03 951.121 1754.48 950.447 1754.08C949.782 1753.68 949.007 1753.48 948.121 1753.48C947.175 1753.48 946.344 1753.71 945.628 1754.17C944.912 1754.62 944.354 1755.22 943.953 1755.96C943.561 1756.69 943.361 1757.5 943.352 1758.37V1761.1C943.352 1762.24 943.561 1763.22 943.979 1764.04C944.396 1764.85 944.98 1765.47 945.73 1765.9C946.48 1766.33 947.358 1766.54 948.363 1766.54C949.037 1766.54 949.646 1766.45 950.192 1766.26C950.737 1766.06 951.21 1765.78 951.611 1765.4C952.011 1765.03 952.314 1764.56 952.518 1764.01L956.839 1764.5C956.567 1765.64 956.047 1766.64 955.28 1767.49C954.521 1768.33 953.55 1768.99 952.365 1769.46C951.18 1769.92 949.825 1770.15 948.3 1770.15ZM960.946 1769.76V1750.13H965.433V1753.4H965.638C965.996 1752.27 966.61 1751.39 967.479 1750.78C968.357 1750.16 969.358 1749.85 970.483 1749.85C970.739 1749.85 971.024 1749.86 971.34 1749.88C971.664 1749.9 971.932 1749.93 972.145 1749.97V1754.23C971.949 1754.16 971.638 1754.1 971.212 1754.05C970.794 1753.99 970.389 1753.96 969.997 1753.96C969.154 1753.96 968.395 1754.15 967.722 1754.51C967.057 1754.87 966.533 1755.37 966.149 1756.01C965.766 1756.65 965.574 1757.38 965.574 1758.22V1769.76H960.946ZM782.547 1829.76V1826.34L791.637 1817.43C792.506 1816.55 793.231 1815.77 793.81 1815.09C794.39 1814.41 794.824 1813.75 795.114 1813.11C795.404 1812.47 795.549 1811.78 795.549 1811.06C795.549 1810.23 795.361 1809.53 794.986 1808.94C794.611 1808.34 794.096 1807.88 793.439 1807.56C792.783 1807.23 792.037 1807.07 791.202 1807.07C790.341 1807.07 789.587 1807.25 788.939 1807.61C788.292 1807.96 787.789 1808.46 787.431 1809.1C787.081 1809.75 786.907 1810.52 786.907 1811.42H782.394C782.394 1809.76 782.773 1808.31 783.532 1807.08C784.29 1805.86 785.334 1804.91 786.664 1804.23C788.002 1803.56 789.536 1803.22 791.266 1803.22C793.022 1803.22 794.564 1803.55 795.894 1804.21C797.224 1804.86 798.255 1805.76 798.988 1806.91C799.729 1808.05 800.1 1809.35 800.1 1810.82C800.1 1811.8 799.912 1812.76 799.537 1813.71C799.162 1814.65 798.502 1815.7 797.556 1816.85C796.618 1818 795.302 1819.4 793.606 1821.03L789.093 1825.62V1825.8H800.496V1829.76H782.547ZM814.584 1830.26C812.479 1830.26 810.672 1829.73 809.164 1828.66C807.664 1827.59 806.509 1826.04 805.699 1824.02C804.898 1822 804.498 1819.55 804.498 1816.7C804.506 1813.84 804.911 1811.41 805.712 1809.41C806.522 1807.4 807.677 1805.87 809.177 1804.81C810.685 1803.75 812.488 1803.22 814.584 1803.22C816.681 1803.22 818.483 1803.75 819.992 1804.81C821.501 1805.87 822.655 1807.4 823.456 1809.41C824.266 1811.42 824.671 1813.85 824.671 1816.7C824.671 1819.56 824.266 1822.01 823.456 1824.04C822.655 1826.06 821.501 1827.6 819.992 1828.66C818.492 1829.73 816.689 1830.26 814.584 1830.26ZM814.584 1826.26C816.221 1826.26 817.512 1825.46 818.458 1823.84C819.412 1822.23 819.89 1819.84 819.89 1816.7C819.89 1814.62 819.672 1812.87 819.238 1811.46C818.803 1810.04 818.189 1808.98 817.397 1808.26C816.604 1807.54 815.667 1807.17 814.584 1807.17C812.956 1807.17 811.67 1807.98 810.724 1809.6C809.778 1811.21 809.3 1813.58 809.292 1816.7C809.283 1818.79 809.492 1820.54 809.918 1821.97C810.353 1823.39 810.966 1824.46 811.759 1825.19C812.552 1825.9 813.493 1826.26 814.584 1826.26ZM828.919 1829.76V1826.34L838.008 1817.43C838.877 1816.55 839.602 1815.77 840.181 1815.09C840.761 1814.41 841.195 1813.75 841.485 1813.11C841.775 1812.47 841.92 1811.78 841.92 1811.06C841.92 1810.23 841.732 1809.53 841.357 1808.94C840.982 1808.34 840.467 1807.88 839.811 1807.56C839.154 1807.23 838.409 1807.07 837.573 1807.07C836.713 1807.07 835.958 1807.25 835.311 1807.61C834.663 1807.96 834.16 1808.46 833.802 1809.1C833.453 1809.75 833.278 1810.52 833.278 1811.42H828.765C828.765 1809.76 829.144 1808.31 829.903 1807.08C830.661 1805.86 831.705 1804.91 833.035 1804.23C834.373 1803.56 835.907 1803.22 837.637 1803.22C839.393 1803.22 840.936 1803.55 842.265 1804.21C843.595 1804.86 844.626 1805.76 845.359 1806.91C846.1 1808.05 846.471 1809.35 846.471 1810.82C846.471 1811.8 846.284 1812.76 845.909 1813.71C845.534 1814.65 844.873 1815.7 843.927 1816.85C842.99 1818 841.673 1819.4 839.977 1821.03L835.464 1825.62V1825.8H846.867V1829.76H828.919ZM850.242 1824.91V1821.13L861.352 1803.58H864.497V1808.95H862.579L855.1 1820.8V1821.01H870.607V1824.91H850.242ZM862.732 1829.76V1823.76L862.784 1822.07V1803.58H867.258V1829.76H862.732Z" fill="white"/>
<g id="Frame 6">
<path id="Letter" d="M588.459 1321.1H655.897C666.53 1321.1 675.15 1312.48 675.15 1301.85C675.15 1298.9 674.474 1295.99 673.172 1293.35L669.598 1286.08C668.146 1283.13 666.219 1280.44 663.894 1278.12L662.923 1277.14C660.597 1274.82 657.905 1272.89 654.955 1271.44L649.935 1268.97C645.814 1266.94 641.283 1265.89 636.69 1265.89H627.019C622.362 1265.89 617.769 1266.97 613.603 1269.06L608.802 1271.46C605.918 1272.9 603.285 1274.8 601.005 1277.08L593.502 1284.58C590.186 1287.89 587.694 1291.94 586.225 1296.4L582.223 1308.53C581.223 1311.56 580.714 1314.73 580.714 1317.93V1324.05C580.714 1327.23 581.218 1330.38 582.208 1333.4L586.189 1345.53C587.68 1350.08 590.238 1354.21 593.649 1357.56L601.135 1364.93C603.331 1367.09 605.846 1368.9 608.592 1370.3L613.533 1372.81C617.743 1374.95 622.399 1376.06 627.121 1376.06H636.589C641.247 1376.06 645.84 1374.98 650.006 1372.9L656.612 1369.59C658.466 1368.67 660.158 1367.45 661.624 1365.98L671.899 1355.71C673.699 1353.91 673.71 1350.99 671.925 1349.18C669.703 1346.92 665.922 1347.51 664.488 1350.33L660.944 1357.31C659.948 1359.27 658.349 1360.86 656.383 1361.84L650.006 1365.03C645.84 1367.11 641.247 1368.19 636.589 1368.19H627.121C622.399 1368.19 617.743 1367.08 613.533 1364.94L608.394 1362.33C605.779 1361 603.384 1359.28 601.293 1357.22C598.111 1354.09 595.707 1350.25 594.275 1346.02L590.044 1333.53C588.994 1330.43 588.459 1327.18 588.459 1323.9V1313.11M588.459 1313.11H654.706C661.72 1313.11 667.406 1307.42 667.406 1300.41C667.406 1298.41 666.934 1296.44 666.029 1294.66L663.844 1290.36C660.963 1284.68 656.354 1280.07 650.683 1277.19L650.075 1276.89C645.865 1274.75 641.211 1273.63 636.489 1273.63H627.223C622.436 1273.63 617.718 1274.78 613.464 1276.97L608.475 1279.55C605.806 1280.93 603.367 1282.71 601.243 1284.83C598.092 1287.98 595.706 1291.82 594.27 1296.03L588.459 1313.11ZM464.544 1065.77L474.199 1060.94C478.365 1058.86 482.958 1057.77 487.616 1057.77H488.941C493.598 1057.77 498.192 1058.86 502.357 1060.94L502.973 1061.25C508.837 1064.18 513.58 1068.95 516.474 1074.83L516.675 1075.24C518.703 1079.36 519.757 1083.89 519.757 1088.49V1156.33C519.757 1158.47 521.491 1160.2 523.629 1160.2C525.768 1160.2 527.502 1158.47 527.502 1156.33V1086.28C527.502 1083.12 527.002 1079.98 526.022 1076.97L523.264 1068.52C521.021 1061.65 516.1 1055.97 509.615 1052.78C505.933 1050.97 501.883 1050.03 497.78 1050.03H487.417C482.887 1050.03 478.416 1051.05 474.339 1053.03L465.053 1057.53C464.716 1057.69 464.41 1057.91 464.147 1058.17L460.944 1061.41C458.535 1063.84 461.699 1067.67 464.544 1065.77ZM437.063 994.814C439.27 994.814 441.06 996.604 441.06 998.812V1156.21C441.06 1158.41 439.27 1160.2 437.063 1160.2C434.855 1160.2 433.065 1158.41 433.065 1156.21V998.812C433.065 996.604 434.855 994.814 437.063 994.814ZM367.44 1134.47L363.896 1141.44C362.901 1143.41 361.301 1144.99 359.335 1145.98L352.958 1149.17C348.792 1151.25 344.199 1152.33 339.542 1152.33H330.074C325.351 1152.33 320.695 1151.22 316.485 1149.08L311.347 1146.47C308.731 1145.14 306.336 1143.42 304.245 1141.36C301.063 1138.23 298.659 1134.39 297.227 1130.16L292.996 1117.67C291.946 1114.57 291.411 1111.32 291.411 1108.04V1102.21C291.411 1098.92 291.952 1095.66 293.011 1092.54L297.222 1080.17C298.659 1075.95 301.044 1072.12 304.195 1068.97C306.319 1066.85 308.759 1065.07 311.428 1063.69L316.416 1061.11C320.67 1058.92 325.388 1057.77 330.175 1057.77H339.441C344.163 1057.77 348.818 1058.89 353.027 1061.02L359.35 1064.24C361.308 1065.23 362.899 1066.82 363.894 1068.78L367.474 1075.83C368.896 1078.63 372.639 1079.22 374.861 1077C376.655 1075.21 376.667 1072.3 374.886 1070.49L364.661 1060.11C363.14 1058.56 361.37 1057.28 359.424 1056.33L352.888 1053.11C348.767 1051.08 344.235 1050.03 339.642 1050.03H329.972C325.314 1050.03 320.721 1051.11 316.555 1053.19L311.754 1055.59C308.87 1057.04 306.238 1058.93 303.958 1061.21L296.454 1068.72C293.138 1072.03 290.646 1076.08 289.177 1080.53L285.175 1092.67C284.176 1095.7 283.666 1098.87 283.666 1102.06V1108.19C283.666 1111.37 284.17 1114.52 285.161 1117.54L289.141 1129.67C290.632 1134.22 293.19 1138.35 296.601 1141.7L304.087 1149.07C306.283 1151.23 308.798 1153.04 311.544 1154.44L316.485 1156.95C320.695 1159.09 325.351 1160.2 330.074 1160.2H339.542C344.199 1160.2 348.792 1159.12 352.958 1157.04L359.564 1153.73C361.418 1152.81 363.11 1151.59 364.576 1150.12L374.851 1139.85C376.651 1138.05 376.662 1135.13 374.877 1133.32C372.655 1131.06 368.874 1131.64 367.44 1134.47ZM224.457 1050.03C226.665 1050.03 228.454 1051.82 228.454 1054.02L228.454 1156.21C228.454 1158.41 226.665 1160.2 224.457 1160.2C222.249 1160.2 220.46 1158.41 220.46 1156.21L220.46 1054.02C220.46 1051.82 222.249 1050.03 224.457 1050.03ZM228.454 1006.81C228.454 1004.6 226.665 1002.81 224.457 1002.81C222.249 1002.81 220.46 1004.6 220.46 1006.81C220.46 1009.01 222.249 1010.8 224.457 1010.8C226.665 1010.8 228.454 1009.01 228.454 1006.81ZM231.249 997.609L233.654 1000.01C235.443 1001.8 236.449 1004.23 236.449 1006.76C236.449 1009.35 235.401 1011.82 233.546 1013.62L231.293 1015.8C229.472 1017.56 227.037 1018.55 224.502 1018.55C221.914 1018.55 219.431 1017.52 217.601 1015.69L215.573 1013.66C213.743 1011.83 212.715 1009.35 212.715 1006.76C212.715 1004.23 213.701 1001.79 215.465 999.97L217.647 997.717C219.445 995.862 221.918 994.814 224.501 994.814C227.032 994.814 229.46 995.82 231.249 997.609ZM180.985 1156.27C180.985 1158.44 179.224 1160.2 177.05 1160.2H116.549C99.9803 1160.2 86.5488 1146.77 86.5488 1130.2L86.5488 998.812C86.5488 996.604 88.3385 994.814 90.5461 994.814C92.7538 994.814 94.5434 996.604 94.5434 998.812L94.5434 1122.33C94.5434 1138.9 107.975 1152.33 124.543 1152.33H177.05C179.224 1152.33 180.985 1154.09 180.985 1156.27ZM172.539 1368.19H187.741C192.335 1368.19 196.868 1367.14 200.989 1365.11L206.554 1362.37C209.307 1361.02 211.813 1359.21 213.965 1357.02C216.92 1354.02 219.142 1350.37 220.455 1346.37L224.708 1333.4C225.699 1330.38 226.203 1327.23 226.203 1324.05V1317.93C226.203 1314.73 225.693 1311.56 224.694 1308.53L220.458 1295.69C219.142 1291.7 216.939 1288.05 214.015 1285.04C211.83 1282.78 209.279 1280.91 206.47 1279.51L201.059 1276.8C196.893 1274.72 192.3 1273.63 187.642 1273.63H172.567C171.695 1273.63 170.835 1273.84 170.057 1274.23L159.227 1279.73C155.629 1281.56 152.246 1276.94 155.077 1274.06C155.357 1273.78 155.684 1273.54 156.042 1273.37L164.976 1268.97C169.097 1266.94 173.628 1265.89 178.221 1265.89H187.841C192.371 1265.89 196.842 1266.91 200.919 1268.89L205.937 1271.32C209.097 1272.85 211.963 1274.92 214.406 1277.44L221.52 1284.79C224.604 1287.97 226.944 1291.8 228.372 1295.99L232.597 1308.4C233.657 1311.52 234.198 1314.78 234.198 1318.07V1323.9C234.198 1327.18 233.662 1330.43 232.613 1333.53L228.41 1345.94C226.957 1350.23 224.553 1354.13 221.377 1357.36L214.282 1364.57C211.92 1366.97 209.17 1368.95 206.148 1370.44L200.989 1372.98C196.868 1375.01 192.335 1376.06 187.741 1376.06H178.322C173.665 1376.06 169.071 1374.98 164.906 1372.9L156.011 1368.45C155.673 1368.28 155.364 1368.06 155.097 1367.79C152.274 1364.97 155.588 1360.37 159.159 1362.15L170.079 1367.61C170.842 1368 171.685 1368.19 172.539 1368.19ZM135.764 1210.68C137.972 1210.68 139.761 1212.46 139.761 1214.67V1372.07C139.761 1374.27 137.972 1376.06 135.764 1376.06C133.556 1376.06 131.767 1374.27 131.767 1372.07V1214.67C131.767 1212.46 133.556 1210.68 135.764 1210.68ZM293.157 1265.89C295.365 1265.89 297.154 1267.68 297.154 1269.89V1372.07C297.154 1374.27 295.365 1376.06 293.157 1376.06C290.949 1376.06 289.16 1374.27 289.16 1372.07V1269.89C289.16 1267.68 290.949 1265.89 293.157 1265.89ZM297.154 1222.67C297.154 1220.46 295.365 1218.67 293.157 1218.67C290.949 1218.67 289.16 1220.46 289.16 1222.67C289.16 1224.87 290.949 1226.66 293.157 1226.66C295.365 1226.66 297.154 1224.87 297.154 1222.67ZM299.949 1213.47L302.354 1215.87C304.144 1217.66 305.149 1220.09 305.149 1222.62C305.149 1225.21 304.102 1227.68 302.246 1229.48L299.993 1231.66C298.172 1233.42 295.737 1234.41 293.202 1234.41C290.614 1234.41 288.132 1233.38 286.301 1231.55L284.274 1229.52C282.443 1227.69 281.415 1225.21 281.415 1222.62C281.415 1220.09 282.401 1217.65 284.165 1215.83L286.348 1213.58C288.145 1211.72 290.618 1210.68 293.202 1210.68C295.733 1210.68 298.16 1211.68 299.949 1213.47ZM364.11 1210.68C366.317 1210.68 368.107 1212.46 368.107 1214.67V1372.07C368.107 1374.27 366.317 1376.06 364.11 1376.06C361.902 1376.06 360.112 1374.27 360.112 1372.07V1214.67C360.112 1212.46 361.902 1210.68 364.11 1210.68ZM484.98 1368.19H469.729C465.006 1368.19 460.35 1367.08 456.14 1364.94L451.002 1362.33C448.386 1361 445.991 1359.28 443.901 1357.22C440.718 1354.09 438.315 1350.25 436.882 1346.02L432.651 1333.53C431.601 1330.43 431.066 1327.18 431.066 1323.9V1318.07C431.066 1314.78 431.607 1311.52 432.667 1308.4L436.878 1296.03C438.314 1291.82 440.699 1287.98 443.85 1284.83C445.974 1282.71 448.414 1280.93 451.083 1279.55L456.071 1276.97C460.325 1274.78 465.043 1273.63 469.83 1273.63H484.952C485.824 1273.63 486.684 1273.84 487.462 1274.23L498.292 1279.73C501.89 1281.56 505.273 1276.94 502.442 1274.06C502.161 1273.78 501.835 1273.54 501.477 1273.37L492.543 1268.97C488.422 1266.94 483.89 1265.89 479.298 1265.89H469.627C464.97 1265.89 460.376 1266.97 456.211 1269.06L451.41 1271.46C448.526 1272.9 445.893 1274.8 443.613 1277.08L436.11 1284.58C432.793 1287.89 430.301 1291.94 428.832 1296.4L424.831 1308.53C423.831 1311.56 423.321 1314.73 423.321 1317.93V1324.05C423.321 1327.23 423.826 1330.38 424.816 1333.4L428.796 1345.53C430.288 1350.08 432.846 1354.21 436.256 1357.56L443.743 1364.93C445.938 1367.09 448.453 1368.9 451.199 1370.3L456.14 1372.81C460.35 1374.95 465.006 1376.06 469.729 1376.06H479.197C483.854 1376.06 488.448 1374.98 492.613 1372.9L501.507 1368.45C501.846 1368.28 502.155 1368.06 502.422 1367.79C505.245 1364.97 501.931 1360.37 498.36 1362.15L487.44 1367.61C486.677 1368 485.834 1368.19 484.98 1368.19ZM521.63 1210.68C523.769 1210.68 525.503 1212.41 525.503 1214.55V1372.19C525.503 1374.33 523.769 1376.06 521.63 1376.06C519.491 1376.06 517.758 1374.33 517.758 1372.19V1214.55C517.758 1212.41 519.491 1210.68 521.63 1210.68ZM797.193 1273.63H782.066C779.117 1273.63 776.208 1274.32 773.57 1275.64L766.057 1279.39C763.101 1280.87 760.409 1282.83 758.091 1285.18L746.237 1297.23C746.148 1297.32 746.073 1297.42 746.016 1297.54C745.318 1298.91 743.238 1298.04 743.735 1296.58L745.977 1289.99C746.06 1289.75 746.195 1289.53 746.373 1289.34L757.899 1277.44C760.342 1274.92 763.209 1272.85 766.369 1271.32L773.637 1267.8C776.233 1266.54 779.08 1265.89 781.964 1265.89H797.193C799.332 1265.89 801.066 1267.62 801.066 1269.76C801.066 1271.9 799.332 1273.63 797.193 1273.63ZM734.111 1265.89C736.318 1265.89 738.108 1267.68 738.108 1269.89V1372.07C738.108 1374.27 736.318 1376.06 734.111 1376.06C731.903 1376.06 730.113 1374.27 730.113 1372.07V1269.89C730.113 1267.68 731.903 1265.89 734.111 1265.89ZM574.971 1053.9V1053.9C574.971 1051.76 576.704 1050.03 578.843 1050.03H626.061C628.2 1050.03 629.934 1051.76 629.934 1053.9V1053.9C629.934 1056.04 628.2 1057.77 626.061 1057.77H578.843C576.704 1057.77 574.971 1056.04 574.971 1053.9ZM602.452 994.814V994.814C600.245 994.814 598.455 996.604 598.455 998.812V1156.21C598.455 1158.41 600.245 1160.2 602.452 1160.2V1160.2C604.66 1160.2 606.45 1158.41 606.45 1156.21V998.812C606.45 996.604 604.66 994.814 602.452 994.814Z" stroke="#8EC281" stroke-width="8" stroke-linecap="round" stroke-linejoin="round"/>
</g>
</g>
<defs>
<clipPath id="clip0_26_174">
<rect width="1080" height="1920" fill="white" transform="translate(0.875)"/>
</clipPath>
</defs>
</svg>
