<svg width="1080" height="1920" viewBox="0 0 1080 1920" fill="none" xmlns="http://www.w3.org/2000/svg">
<g id="Lichtbild">
<g id="Location">
<path id="Vector" d="M881.124 737.15V766.241H875.982V737.15H881.124Z" fill="white"/>
<path id="Vector_2" d="M861.931 766.667C859.743 766.667 857.854 766.213 856.263 765.304C854.682 764.385 853.465 763.088 852.612 761.412C851.76 759.726 851.334 757.742 851.334 755.46C851.334 753.216 851.76 751.246 852.612 749.551C853.474 747.846 854.677 746.521 856.22 745.574C857.764 744.617 859.577 744.139 861.661 744.139C863.005 744.139 864.274 744.357 865.468 744.792C866.67 745.218 867.731 745.881 868.649 746.781C869.577 747.681 870.307 748.826 870.837 750.218C871.367 751.601 871.632 753.249 871.632 755.162V756.738H853.749V753.272H866.703C866.694 752.288 866.481 751.412 866.064 750.645C865.647 749.868 865.065 749.257 864.317 748.812C863.578 748.367 862.717 748.145 861.732 748.145C860.681 748.145 859.757 748.4 858.962 748.912C858.166 749.414 857.546 750.076 857.101 750.9C856.665 751.715 856.443 752.61 856.433 753.585V756.611C856.433 757.879 856.665 758.968 857.129 759.878C857.593 760.777 858.242 761.468 859.075 761.951C859.909 762.425 860.884 762.662 862.002 762.662C862.75 762.662 863.427 762.557 864.033 762.349C864.639 762.131 865.164 761.814 865.61 761.397C866.055 760.981 866.391 760.465 866.618 759.849L871.419 760.389C871.116 761.658 870.539 762.766 869.686 763.713C868.843 764.65 867.764 765.379 866.448 765.9C865.131 766.412 863.626 766.667 861.931 766.667Z" fill="white"/>
<path id="Vector_3" d="M847.563 750.19L842.875 750.701C842.743 750.228 842.511 749.783 842.179 749.366C841.857 748.95 841.422 748.613 840.872 748.358C840.323 748.102 839.651 747.974 838.855 747.974C837.785 747.974 836.886 748.206 836.157 748.67C835.437 749.134 835.082 749.736 835.091 750.474C835.082 751.109 835.314 751.625 835.787 752.022C836.27 752.42 837.066 752.747 838.174 753.003L841.895 753.798C843.96 754.243 845.494 754.949 846.497 755.914C847.511 756.88 848.022 758.145 848.032 759.707C848.022 761.08 847.62 762.292 846.824 763.343C846.038 764.385 844.944 765.2 843.543 765.787C842.141 766.374 840.532 766.667 838.713 766.667C836.043 766.667 833.893 766.109 832.264 764.991C830.636 763.864 829.665 762.297 829.353 760.289L834.367 759.807C834.594 760.791 835.077 761.535 835.816 762.037C836.554 762.539 837.515 762.789 838.699 762.789C839.921 762.789 840.901 762.539 841.639 762.037C842.388 761.535 842.762 760.914 842.762 760.176C842.762 759.551 842.52 759.035 842.037 758.628C841.564 758.22 840.825 757.908 839.821 757.69L836.1 756.909C834.007 756.473 832.459 755.739 831.455 754.707C830.451 753.665 829.954 752.349 829.963 750.758C829.954 749.414 830.318 748.249 831.057 747.264C831.805 746.27 832.842 745.503 834.168 744.963C835.503 744.414 837.042 744.139 838.784 744.139C841.341 744.139 843.353 744.683 844.821 745.772C846.299 746.861 847.212 748.334 847.563 750.19Z" fill="white"/>
<path id="Vector_4" d="M813.628 766.682C812.246 766.682 811 766.435 809.892 765.943C808.794 765.441 807.923 764.702 807.279 763.727C806.644 762.752 806.327 761.549 806.327 760.119C806.327 758.888 806.554 757.87 807.009 757.065C807.464 756.26 808.084 755.616 808.87 755.133C809.656 754.65 810.541 754.286 811.526 754.039C812.52 753.784 813.548 753.599 814.608 753.486C815.887 753.353 816.924 753.235 817.719 753.13C818.515 753.017 819.092 752.846 819.452 752.619C819.821 752.382 820.006 752.018 820.006 751.525V751.44C820.006 750.37 819.689 749.541 819.054 748.954C818.42 748.367 817.506 748.074 816.313 748.074C815.053 748.074 814.054 748.348 813.316 748.897C812.587 749.447 812.094 750.095 811.839 750.843L807.037 750.162C807.416 748.836 808.041 747.728 808.912 746.838C809.784 745.938 810.849 745.266 812.108 744.821C813.368 744.366 814.76 744.139 816.285 744.139C817.336 744.139 818.382 744.262 819.424 744.508C820.465 744.754 821.417 745.162 822.279 745.73C823.141 746.289 823.832 747.051 824.353 748.017C824.883 748.983 825.148 750.19 825.148 751.639V766.241H820.205V763.244H820.035C819.722 763.85 819.282 764.418 818.714 764.949C818.155 765.469 817.449 765.891 816.597 766.213C815.754 766.525 814.765 766.682 813.628 766.682ZM814.964 762.903C815.996 762.903 816.891 762.7 817.648 762.292C818.406 761.876 818.988 761.326 819.395 760.645C819.812 759.963 820.02 759.219 820.02 758.414V755.843C819.859 755.976 819.585 756.099 819.196 756.213C818.818 756.326 818.392 756.426 817.918 756.511C817.445 756.596 816.976 756.672 816.512 756.738C816.048 756.805 815.645 756.861 815.304 756.909C814.537 757.013 813.851 757.183 813.245 757.42C812.639 757.657 812.16 757.988 811.81 758.414C811.46 758.831 811.285 759.371 811.285 760.034C811.285 760.981 811.63 761.696 812.321 762.179C813.013 762.662 813.893 762.903 814.964 762.903Z" fill="white"/>
<path id="Vector_5" d="M781.288 766.241V737.15H792.424C794.527 737.15 796.274 737.482 797.666 738.145C799.067 738.798 800.114 739.693 800.805 740.829C801.506 741.966 801.856 743.254 801.856 744.693C801.856 745.877 801.629 746.89 801.174 747.733C800.72 748.566 800.109 749.243 799.342 749.764C798.575 750.285 797.718 750.659 796.771 750.886V751.17C797.803 751.227 798.793 751.544 799.74 752.122C800.696 752.69 801.477 753.495 802.084 754.537C802.69 755.578 802.993 756.838 802.993 758.315C802.993 759.821 802.628 761.175 801.899 762.378C801.17 763.571 800.071 764.513 798.603 765.204C797.136 765.896 795.289 766.241 793.064 766.241H781.288ZM786.558 761.838H792.226C794.138 761.838 795.516 761.473 796.359 760.744C797.211 760.006 797.638 759.059 797.638 757.903C797.638 757.041 797.424 756.265 796.998 755.574C796.572 754.873 795.966 754.324 795.18 753.926C794.394 753.519 793.457 753.315 792.368 753.315H786.558V761.838ZM786.558 749.523H791.771C792.68 749.523 793.499 749.357 794.228 749.025C794.958 748.684 795.531 748.206 795.947 747.591C796.373 746.966 796.586 746.227 796.586 745.375C796.586 744.248 796.189 743.32 795.393 742.591C794.607 741.862 793.438 741.497 791.885 741.497H786.558V749.523Z" fill="white"/>
<path id="Vector_6" d="M997.282 706.625C995.568 706.625 994.034 706.184 992.68 705.304C991.326 704.423 990.256 703.145 989.47 701.469C988.684 699.792 988.291 697.756 988.291 695.361C988.291 692.936 988.689 690.891 989.484 689.224C990.289 687.548 991.373 686.284 992.737 685.432C994.101 684.57 995.621 684.139 997.297 684.139C998.575 684.139 999.626 684.357 1000.45 684.792C1001.27 685.219 1001.93 685.735 1002.41 686.341C1002.89 686.937 1003.27 687.501 1003.53 688.031H1003.75V677.15H1008.9V706.241H1003.84V702.804H1003.53C1003.27 703.334 1002.88 703.898 1002.38 704.494C1001.88 705.081 1001.22 705.583 1000.39 706C999.569 706.416 998.532 706.625 997.282 706.625ZM998.717 702.406C999.806 702.406 1000.73 702.113 1001.5 701.525C1002.27 700.929 1002.85 700.1 1003.25 699.04C1003.65 697.979 1003.84 696.743 1003.84 695.332C1003.84 693.921 1003.65 692.695 1003.25 691.653C1002.86 690.612 1002.28 689.802 1001.52 689.224C1000.76 688.647 999.825 688.358 998.717 688.358C997.571 688.358 996.615 688.656 995.848 689.253C995.081 689.849 994.503 690.673 994.115 691.724C993.727 692.775 993.532 693.978 993.532 695.332C993.532 696.696 993.727 697.913 994.115 698.983C994.513 700.043 995.095 700.881 995.862 701.497C996.639 702.103 997.59 702.406 998.717 702.406Z" fill="white"/>
<path id="Vector_7" d="M983.898 677.15V706.241H978.756V677.15H983.898Z" fill="white"/>
<path id="Vector_8" d="M968.326 706.241V684.423H973.468V706.241H968.326ZM970.912 681.327C970.097 681.327 969.397 681.057 968.809 680.517C968.222 679.968 967.929 679.309 967.929 678.542C967.929 677.766 968.222 677.108 968.809 676.568C969.397 676.019 970.097 675.744 970.912 675.744C971.736 675.744 972.436 676.019 973.014 676.568C973.601 677.108 973.895 677.766 973.895 678.542C973.895 679.309 973.601 679.968 973.014 680.517C972.436 681.057 971.736 681.327 970.912 681.327Z" fill="white"/>
<path id="Vector_9" d="M943.358 706.241V677.15H948.5V688.031H948.714C948.979 687.501 949.353 686.937 949.836 686.341C950.319 685.735 950.972 685.219 951.796 684.792C952.62 684.357 953.671 684.139 954.949 684.139C956.635 684.139 958.155 684.57 959.509 685.432C960.873 686.284 961.952 687.548 962.748 689.224C963.553 690.891 963.955 692.936 963.955 695.361C963.955 697.756 963.562 699.792 962.776 701.469C961.99 703.145 960.92 704.423 959.566 705.304C958.212 706.184 956.678 706.625 954.964 706.625C953.714 706.625 952.677 706.416 951.853 706C951.029 705.583 950.366 705.081 949.864 704.494C949.372 703.898 948.988 703.334 948.714 702.804H948.415V706.241H943.358ZM948.401 695.332C948.401 696.743 948.6 697.979 948.998 699.04C949.405 700.1 949.987 700.929 950.745 701.525C951.512 702.113 952.44 702.406 953.529 702.406C954.665 702.406 955.617 702.103 956.384 701.497C957.151 700.881 957.729 700.043 958.117 698.983C958.515 697.913 958.714 696.696 958.714 695.332C958.714 693.978 958.519 692.775 958.131 691.724C957.743 690.673 957.165 689.849 956.398 689.253C955.631 688.656 954.675 688.358 953.529 688.358C952.43 688.358 951.498 688.647 950.731 689.224C949.963 689.802 949.381 690.612 948.983 691.653C948.595 692.695 948.401 693.921 948.401 695.332Z" fill="white"/>
<path id="Vector_10" d="M938.362 684.423V688.4H925.819V684.423H938.362ZM928.916 679.196H934.058V699.679C934.058 700.37 934.162 700.9 934.37 701.27C934.588 701.63 934.872 701.876 935.223 702.008C935.573 702.141 935.961 702.207 936.388 702.207C936.709 702.207 937.003 702.183 937.268 702.136C937.543 702.089 937.751 702.046 937.893 702.008L938.76 706.028C938.485 706.123 938.092 706.227 937.581 706.341C937.079 706.454 936.463 706.521 935.734 706.54C934.446 706.577 933.286 706.383 932.254 705.957C931.222 705.522 930.403 704.849 929.797 703.94C929.2 703.031 928.906 701.895 928.916 700.531V679.196Z" fill="white"/>
<path id="Vector_11" d="M911.956 714.878C910.109 714.878 908.523 714.627 907.197 714.125C905.872 713.632 904.806 712.969 904.001 712.136C903.196 711.303 902.638 710.379 902.325 709.366L906.956 708.244C907.164 708.67 907.467 709.092 907.865 709.508C908.263 709.934 908.798 710.285 909.47 710.559C910.152 710.843 911.009 710.986 912.041 710.986C913.499 710.986 914.707 710.63 915.663 709.92C916.62 709.219 917.098 708.064 917.098 706.454V702.321H916.842C916.577 702.851 916.189 703.396 915.677 703.954C915.175 704.513 914.508 704.982 913.675 705.361C912.851 705.739 911.814 705.929 910.564 705.929C908.888 705.929 907.368 705.536 906.004 704.75C904.65 703.954 903.57 702.771 902.765 701.199C901.97 699.617 901.572 697.638 901.572 695.261C901.572 692.865 901.97 690.843 902.765 689.196C903.57 687.539 904.655 686.284 906.018 685.432C907.382 684.57 908.902 684.139 910.578 684.139C911.856 684.139 912.907 684.357 913.731 684.792C914.565 685.218 915.228 685.735 915.72 686.341C916.212 686.937 916.586 687.501 916.842 688.031H917.126V684.423H922.197V706.596C922.197 708.462 921.752 710.005 920.862 711.227C919.972 712.449 918.755 713.362 917.211 713.968C915.668 714.575 913.916 714.878 911.956 714.878ZM911.998 701.895C913.087 701.895 914.015 701.629 914.782 701.099C915.55 700.569 916.132 699.807 916.53 698.812C916.927 697.818 917.126 696.625 917.126 695.233C917.126 693.86 916.927 692.657 916.53 691.625C916.141 690.593 915.564 689.792 914.797 689.224C914.039 688.646 913.106 688.358 911.998 688.358C910.853 688.358 909.896 688.656 909.129 689.253C908.362 689.849 907.784 690.668 907.396 691.71C907.008 692.742 906.814 693.916 906.814 695.233C906.814 696.568 907.008 697.737 907.396 698.741C907.794 699.736 908.376 700.512 909.143 701.071C909.92 701.62 910.872 701.895 911.998 701.895Z" fill="white"/>
<path id="Vector_12" d="M887.506 706.241V684.423H892.492V688.059H892.719C893.117 686.8 893.798 685.829 894.764 685.148C895.74 684.456 896.852 684.111 898.102 684.111C898.387 684.111 898.704 684.125 899.054 684.153C899.414 684.172 899.712 684.205 899.949 684.253V688.983C899.731 688.907 899.386 688.841 898.912 688.784C898.448 688.718 897.998 688.684 897.563 688.684C896.625 688.684 895.782 688.888 895.034 689.295C894.296 689.693 893.713 690.247 893.287 690.957C892.861 691.667 892.648 692.487 892.648 693.415V706.241H887.506Z" fill="white"/>
<path id="Vector_13" d="M873.454 706.667C871.267 706.667 869.377 706.213 867.786 705.304C866.205 704.385 864.988 703.088 864.136 701.412C863.284 699.726 862.857 697.742 862.857 695.46C862.857 693.216 863.284 691.246 864.136 689.551C864.998 687.846 866.2 686.521 867.744 685.574C869.287 684.617 871.101 684.139 873.184 684.139C874.529 684.139 875.798 684.357 876.991 684.792C878.194 685.218 879.254 685.881 880.173 686.781C881.101 687.681 881.83 688.826 882.36 690.218C882.891 691.601 883.156 693.249 883.156 695.162V696.738H865.272V693.272H878.227C878.217 692.288 878.004 691.412 877.588 690.645C877.171 689.868 876.588 689.257 875.84 688.812C875.102 688.367 874.24 688.145 873.255 688.145C872.204 688.145 871.281 688.4 870.485 688.912C869.69 689.414 869.07 690.076 868.624 690.9C868.189 691.715 867.966 692.61 867.957 693.585V696.611C867.957 697.879 868.189 698.968 868.653 699.878C869.117 700.777 869.766 701.468 870.599 701.951C871.432 702.425 872.408 702.662 873.525 702.662C874.273 702.662 874.95 702.557 875.556 702.349C876.162 702.131 876.688 701.814 877.133 701.397C877.578 700.981 877.914 700.465 878.142 699.849L882.943 700.389C882.64 701.658 882.062 702.766 881.21 703.713C880.367 704.65 879.287 705.379 877.971 705.9C876.655 706.412 875.149 706.667 873.454 706.667Z" fill="white"/>
<path id="Vector_14" d="M835.446 706.241L829.281 684.423H834.523L838.358 699.764H838.557L842.477 684.423H847.662L851.582 699.679H851.795L855.574 684.423H860.83L854.651 706.241H849.295L845.205 691.497H844.906L840.815 706.241H835.446Z" fill="white"/>
<path id="Vector_15" d="M817.009 706.667C814.821 706.667 812.932 706.213 811.341 705.304C809.76 704.385 808.543 703.088 807.691 701.412C806.838 699.726 806.412 697.742 806.412 695.46C806.412 693.216 806.838 691.246 807.691 689.551C808.552 687.846 809.755 686.521 811.298 685.574C812.842 684.617 814.655 684.139 816.739 684.139C818.084 684.139 819.352 684.357 820.546 684.792C821.748 685.218 822.809 685.881 823.727 686.781C824.655 687.681 825.385 688.826 825.915 690.218C826.445 691.601 826.71 693.249 826.71 695.162V696.738H808.827V693.272H821.781C821.772 692.288 821.559 691.412 821.142 690.645C820.726 689.868 820.143 689.257 819.395 688.812C818.656 688.367 817.795 688.145 816.81 688.145C815.759 688.145 814.835 688.4 814.04 688.912C813.244 689.414 812.624 690.076 812.179 690.9C811.744 691.715 811.521 692.61 811.512 693.585V696.611C811.512 697.879 811.744 698.968 812.208 699.878C812.672 700.777 813.32 701.468 814.154 701.951C814.987 702.425 815.962 702.662 817.08 702.662C817.828 702.662 818.505 702.557 819.111 702.349C819.717 702.131 820.243 701.814 820.688 701.397C821.133 700.981 821.469 700.465 821.696 699.849L826.497 700.389C826.194 701.658 825.617 702.766 824.764 703.713C823.922 704.65 822.842 705.379 821.526 705.9C820.209 706.412 818.704 706.667 817.009 706.667Z" fill="white"/>
<path id="Vector_16" d="M781.288 706.241V677.15H792.424C794.527 677.15 796.274 677.482 797.666 678.145C799.067 678.798 800.114 679.693 800.805 680.829C801.506 681.966 801.856 683.254 801.856 684.693C801.856 685.877 801.629 686.89 801.174 687.733C800.72 688.566 800.109 689.243 799.342 689.764C798.575 690.285 797.718 690.659 796.771 690.886V691.17C797.803 691.227 798.793 691.544 799.74 692.122C800.696 692.69 801.477 693.495 802.084 694.537C802.69 695.578 802.993 696.838 802.993 698.315C802.993 699.821 802.628 701.175 801.899 702.378C801.17 703.571 800.071 704.513 798.603 705.204C797.136 705.896 795.289 706.241 793.064 706.241H781.288ZM786.558 701.838H792.226C794.138 701.838 795.516 701.473 796.359 700.744C797.211 700.006 797.638 699.059 797.638 697.903C797.638 697.041 797.424 696.265 796.998 695.574C796.572 694.873 795.966 694.324 795.18 693.926C794.394 693.519 793.457 693.315 792.368 693.315H786.558V701.838ZM786.558 689.523H791.771C792.68 689.523 793.499 689.357 794.228 689.025C794.958 688.684 795.531 688.206 795.947 687.591C796.373 686.966 796.586 686.227 796.586 685.375C796.586 684.248 796.189 683.32 795.393 682.591C794.607 681.862 793.438 681.497 791.885 681.497H786.558V689.523Z" fill="white"/>
<path id="Vector_17" d="M979.342 646.241V624.423H984.328V628.059H984.555C984.953 626.8 985.634 625.829 986.6 625.148C987.576 624.456 988.688 624.111 989.938 624.111C990.222 624.111 990.54 624.125 990.89 624.153C991.25 624.172 991.548 624.205 991.785 624.253V628.983C991.567 628.907 991.222 628.841 990.748 628.784C990.284 628.718 989.834 628.684 989.399 628.684C988.461 628.684 987.618 628.888 986.87 629.295C986.132 629.693 985.549 630.247 985.123 630.957C984.697 631.667 984.484 632.487 984.484 633.415V646.241H979.342Z" fill="white"/>
<path id="Vector_18" d="M968.912 637.065V624.423H974.054V646.241H969.068V642.363H968.841C968.349 643.585 967.539 644.584 966.412 645.361C965.295 646.137 963.917 646.525 962.279 646.525C960.849 646.525 959.584 646.208 958.486 645.574C957.397 644.93 956.545 643.997 955.929 642.775C955.314 641.544 955.006 640.057 955.006 638.315V624.423H960.148V637.52C960.148 638.902 960.527 640.001 961.284 640.815C962.042 641.629 963.036 642.037 964.267 642.037C965.025 642.037 965.759 641.852 966.469 641.483C967.179 641.113 967.762 640.564 968.216 639.835C968.68 639.096 968.912 638.173 968.912 637.065ZM960.304 621.213C959.556 621.213 958.907 620.948 958.358 620.417C957.818 619.887 957.548 619.262 957.548 618.542C957.548 617.785 957.818 617.15 958.358 616.639C958.907 616.118 959.556 615.858 960.304 615.858C961.071 615.858 961.715 616.118 962.236 616.639C962.766 617.15 963.031 617.785 963.031 618.542C963.031 619.262 962.766 619.887 962.236 620.417C961.715 620.948 961.071 621.213 960.304 621.213ZM968.827 621.213C968.079 621.213 967.43 620.948 966.881 620.417C966.341 619.887 966.071 619.262 966.071 618.542C966.071 617.785 966.341 617.15 966.881 616.639C967.43 616.118 968.079 615.858 968.827 615.858C969.594 615.858 970.238 616.118 970.759 616.639C971.289 617.15 971.554 617.785 971.554 618.542C971.554 619.262 971.289 619.887 970.759 620.417C970.238 620.948 969.594 621.213 968.827 621.213Z" fill="white"/>
<path id="Vector_19" d="M950.979 624.423V628.4H938.081V624.423H950.979ZM941.305 646.241V622.363C941.305 620.896 941.609 619.674 942.215 618.699C942.83 617.723 943.654 616.994 944.686 616.511C945.718 616.028 946.864 615.787 948.124 615.787C949.014 615.787 949.805 615.858 950.496 616C951.187 616.142 951.698 616.27 952.03 616.383L951.007 620.36C950.789 620.294 950.515 620.228 950.183 620.162C949.852 620.086 949.483 620.048 949.075 620.048C948.119 620.048 947.442 620.28 947.044 620.744C946.656 621.199 946.462 621.852 946.462 622.704V646.241H941.305Z" fill="white"/>
<path id="Vector_20" d="M924.718 617.15V646.241H919.576V617.15H924.718Z" fill="white"/>
<path id="Vector_21" d="M902.886 646.682C901.504 646.682 900.258 646.435 899.15 645.943C898.052 645.441 897.181 644.702 896.537 643.727C895.902 642.752 895.585 641.549 895.585 640.119C895.585 638.888 895.812 637.87 896.267 637.065C896.721 636.26 897.342 635.616 898.128 635.133C898.914 634.65 899.799 634.286 900.784 634.039C901.778 633.784 902.806 633.599 903.866 633.486C905.145 633.353 906.182 633.235 906.977 633.13C907.772 633.017 908.35 632.846 908.71 632.619C909.079 632.382 909.264 632.018 909.264 631.525V631.44C909.264 630.37 908.947 629.541 908.312 628.954C907.678 628.367 906.764 628.074 905.571 628.074C904.311 628.074 903.312 628.348 902.574 628.897C901.844 629.447 901.352 630.095 901.096 630.843L896.295 630.162C896.674 628.836 897.299 627.728 898.17 626.838C899.041 625.938 900.107 625.266 901.366 624.821C902.626 624.366 904.018 624.139 905.542 624.139C906.593 624.139 907.64 624.262 908.682 624.508C909.723 624.754 910.675 625.162 911.537 625.73C912.398 626.289 913.09 627.051 913.611 628.017C914.141 628.983 914.406 630.19 914.406 631.639V646.241H909.463V643.244H909.292C908.98 643.85 908.54 644.418 907.971 644.949C907.413 645.469 906.707 645.891 905.855 646.213C905.012 646.525 904.022 646.682 902.886 646.682ZM904.221 642.903C905.254 642.903 906.148 642.7 906.906 642.292C907.664 641.876 908.246 641.326 908.653 640.645C909.07 639.963 909.278 639.219 909.278 638.414V635.843C909.117 635.976 908.843 636.099 908.454 636.213C908.075 636.326 907.649 636.426 907.176 636.511C906.702 636.596 906.234 636.672 905.77 636.738C905.306 636.805 904.903 636.861 904.562 636.909C903.795 637.013 903.109 637.183 902.503 637.42C901.897 637.657 901.418 637.988 901.068 638.414C900.718 638.831 900.542 639.371 900.542 640.034C900.542 640.981 900.888 641.696 901.579 642.179C902.271 642.662 903.151 642.903 904.221 642.903Z" fill="white"/>
<path id="Vector_22" d="M893.675 624.423L885.905 646.241H880.223L872.453 624.423H877.936L882.95 640.63H883.178L888.206 624.423H893.675Z" fill="white"/>
<path id="Vector_23" d="M863.756 646.241V624.423H868.898V646.241H863.756ZM866.341 621.327C865.527 621.327 864.826 621.057 864.239 620.517C863.652 619.968 863.358 619.309 863.358 618.542C863.358 617.766 863.652 617.108 864.239 616.568C864.826 616.019 865.527 615.744 866.341 615.744C867.165 615.744 867.866 616.019 868.444 616.568C869.031 617.108 869.324 617.766 869.324 618.542C869.324 619.309 869.031 619.968 868.444 620.517C867.866 621.057 867.165 621.327 866.341 621.327Z" fill="white"/>
<path id="Vector_24" d="M859.456 624.423V628.4H846.913V624.423H859.456ZM850.01 619.196H855.152V639.679C855.152 640.37 855.256 640.9 855.464 641.27C855.682 641.63 855.966 641.876 856.316 642.008C856.667 642.141 857.055 642.207 857.481 642.207C857.803 642.207 858.097 642.183 858.362 642.136C858.637 642.089 858.845 642.046 858.987 642.008L859.853 646.028C859.579 646.123 859.186 646.227 858.674 646.341C858.173 646.454 857.557 646.521 856.828 646.54C855.54 646.577 854.38 646.383 853.348 645.957C852.316 645.522 851.496 644.849 850.89 643.94C850.294 643.031 850 641.895 850.01 640.531V619.196Z" fill="white"/>
<path id="Vector_25" d="M843.852 630.19L839.164 630.701C839.032 630.228 838.8 629.783 838.468 629.366C838.146 628.95 837.711 628.613 837.161 628.358C836.612 628.102 835.94 627.974 835.144 627.974C834.074 627.974 833.175 628.206 832.446 628.67C831.726 629.134 831.371 629.736 831.38 630.474C831.371 631.109 831.603 631.625 832.076 632.022C832.559 632.42 833.355 632.747 834.463 633.003L838.184 633.798C840.249 634.243 841.783 634.949 842.786 635.914C843.8 636.88 844.311 638.145 844.321 639.707C844.311 641.08 843.909 642.292 843.113 643.343C842.327 644.385 841.233 645.2 839.832 645.787C838.43 646.374 836.821 646.667 835.002 646.667C832.332 646.667 830.182 646.109 828.554 644.991C826.925 643.864 825.954 642.297 825.642 640.289L830.656 639.807C830.883 640.791 831.366 641.535 832.105 642.037C832.843 642.539 833.804 642.789 834.988 642.789C836.21 642.789 837.19 642.539 837.929 642.037C838.677 641.535 839.051 640.914 839.051 640.176C839.051 639.551 838.809 639.035 838.326 638.628C837.853 638.22 837.114 637.908 836.11 637.69L832.389 636.909C830.296 636.473 828.748 635.739 827.744 634.707C826.74 633.665 826.243 632.349 826.252 630.758C826.243 629.414 826.608 628.249 827.346 627.264C828.094 626.27 829.131 625.503 830.457 624.963C831.792 624.414 833.331 624.139 835.073 624.139C837.63 624.139 839.643 624.683 841.11 625.772C842.588 626.861 843.501 628.334 843.852 630.19Z" fill="white"/>
<path id="Vector_26" d="M812.556 646.667C810.368 646.667 808.479 646.213 806.888 645.304C805.307 644.385 804.09 643.088 803.237 641.412C802.385 639.726 801.959 637.742 801.959 635.46C801.959 633.216 802.385 631.246 803.237 629.551C804.099 627.846 805.302 626.521 806.845 625.574C808.389 624.617 810.202 624.139 812.286 624.139C813.63 624.139 814.899 624.357 816.093 624.792C817.295 625.218 818.356 625.881 819.274 626.781C820.202 627.681 820.932 628.826 821.462 630.218C821.992 631.601 822.257 633.249 822.257 635.162V636.738H804.374V633.272H817.328C817.319 632.288 817.106 631.412 816.689 630.645C816.272 629.868 815.69 629.257 814.942 628.812C814.203 628.367 813.342 628.145 812.357 628.145C811.306 628.145 810.382 628.4 809.587 628.912C808.791 629.414 808.171 630.076 807.726 630.9C807.29 631.715 807.068 632.61 807.058 633.585V636.611C807.058 637.879 807.29 638.968 807.754 639.878C808.218 640.777 808.867 641.468 809.7 641.951C810.534 642.425 811.509 642.662 812.627 642.662C813.375 642.662 814.052 642.557 814.658 642.349C815.264 642.131 815.789 641.814 816.235 641.397C816.68 640.981 817.016 640.465 817.243 639.849L822.044 640.389C821.741 641.658 821.164 642.766 820.311 643.713C819.468 644.65 818.389 645.379 817.073 645.9C815.756 646.412 814.251 646.667 812.556 646.667Z" fill="white"/>
<path id="Vector_27" d="M781.288 646.241V617.15H799.924V621.568H786.558V629.466H798.646V633.883H786.558V646.241H781.288Z" fill="white"/>
</g>
<g id="Date">
<path id="Vector_28" d="M857.147 1826.37V1822.18L869.491 1802.67H872.986V1808.64H870.855L862.545 1821.81V1822.03H879.775V1826.37H857.147ZM871.025 1831.76V1825.09L871.082 1823.21V1802.67H876.054V1831.76H871.025Z" fill="white"/>
<path id="Vector_29" d="M833.455 1831.76V1827.96L843.554 1818.06C844.52 1817.08 845.325 1816.21 845.969 1815.46C846.613 1814.7 847.096 1813.97 847.418 1813.26C847.74 1812.54 847.901 1811.79 847.901 1810.98C847.901 1810.06 847.692 1809.28 847.276 1808.62C846.859 1807.96 846.286 1807.45 845.557 1807.09C844.828 1806.73 843.999 1806.55 843.071 1806.55C842.115 1806.55 841.277 1806.75 840.557 1807.15C839.837 1807.54 839.278 1808.09 838.881 1808.81C838.493 1809.53 838.298 1810.39 838.298 1811.38H833.284C833.284 1809.53 833.706 1807.93 834.548 1806.56C835.391 1805.2 836.551 1804.15 838.028 1803.4C839.515 1802.65 841.22 1802.27 843.142 1802.27C845.093 1802.27 846.807 1802.64 848.284 1803.37C849.761 1804.1 850.907 1805.1 851.722 1806.37C852.546 1807.63 852.957 1809.08 852.957 1810.71C852.957 1811.8 852.749 1812.87 852.332 1813.92C851.916 1814.97 851.182 1816.14 850.131 1817.42C849.089 1818.7 847.626 1820.24 845.742 1822.06L840.727 1827.16V1827.36H853.398V1831.76H833.455Z" fill="white"/>
<path id="Vector_30" d="M817.528 1832.32C815.189 1832.32 813.181 1831.73 811.505 1830.54C809.838 1829.35 808.555 1827.63 807.656 1825.39C806.765 1823.13 806.32 1820.42 806.32 1817.25C806.33 1814.07 806.78 1811.38 807.67 1809.15C808.569 1806.92 809.853 1805.21 811.519 1804.04C813.195 1802.86 815.198 1802.27 817.528 1802.27C819.857 1802.27 821.86 1802.86 823.536 1804.04C825.212 1805.21 826.496 1806.92 827.386 1809.15C828.285 1811.38 828.735 1814.08 828.735 1817.25C828.735 1820.43 828.285 1823.15 827.386 1825.4C826.496 1827.64 825.212 1829.36 823.536 1830.54C821.87 1831.73 819.867 1832.32 817.528 1832.32ZM817.528 1827.87C819.346 1827.87 820.781 1826.98 821.832 1825.19C822.892 1823.39 823.423 1820.74 823.423 1817.25C823.423 1814.94 823.181 1812.99 822.698 1811.42C822.215 1809.85 821.533 1808.67 820.653 1807.87C819.772 1807.07 818.73 1806.66 817.528 1806.66C815.719 1806.66 814.289 1807.56 813.238 1809.36C812.187 1811.15 811.656 1813.78 811.647 1817.25C811.638 1819.57 811.87 1821.52 812.343 1823.1C812.826 1824.68 813.508 1825.87 814.388 1826.68C815.269 1827.47 816.316 1827.87 817.528 1827.87Z" fill="white"/>
<path id="Vector_31" d="M781.931 1831.76V1827.96L792.031 1818.06C792.997 1817.08 793.801 1816.21 794.445 1815.46C795.089 1814.7 795.572 1813.97 795.894 1813.26C796.216 1812.54 796.377 1811.79 796.377 1810.98C796.377 1810.06 796.169 1809.28 795.752 1808.62C795.336 1807.96 794.763 1807.45 794.033 1807.09C793.304 1806.73 792.476 1806.55 791.548 1806.55C790.591 1806.55 789.753 1806.75 789.033 1807.15C788.314 1807.54 787.755 1808.09 787.357 1808.81C786.969 1809.53 786.775 1810.39 786.775 1811.38H781.761C781.761 1809.53 782.182 1807.93 783.025 1806.56C783.868 1805.2 785.028 1804.15 786.505 1803.4C787.992 1802.65 789.696 1802.27 791.619 1802.27C793.569 1802.27 795.283 1802.64 796.761 1803.37C798.238 1804.1 799.384 1805.1 800.198 1806.37C801.022 1807.63 801.434 1809.08 801.434 1810.71C801.434 1811.8 801.226 1812.87 800.809 1813.92C800.392 1814.97 799.658 1816.14 798.607 1817.42C797.566 1818.7 796.103 1820.24 794.218 1822.06L789.204 1827.16V1827.36H801.874V1831.76H781.931Z" fill="white"/>
<path id="Vector_32" d="M980.152 1771.76V1749.95H985.138V1753.58H985.365C985.763 1752.32 986.445 1751.35 987.411 1750.67C988.386 1749.98 989.499 1749.63 990.749 1749.63C991.033 1749.63 991.35 1749.65 991.701 1749.68C992.06 1749.69 992.359 1749.73 992.596 1749.77V1754.5C992.378 1754.43 992.032 1754.36 991.559 1754.31C991.095 1754.24 990.645 1754.21 990.209 1754.21C989.272 1754.21 988.429 1754.41 987.681 1754.82C986.942 1755.22 986.36 1755.77 985.934 1756.48C985.507 1757.19 985.294 1758.01 985.294 1758.94V1771.76H980.152Z" fill="white"/>
<path id="Vector_33" d="M966.1 1772.19C963.913 1772.19 962.024 1771.73 960.433 1770.83C958.851 1769.91 957.635 1768.61 956.782 1766.93C955.93 1765.25 955.504 1763.26 955.504 1760.98C955.504 1758.74 955.93 1756.77 956.782 1755.07C957.644 1753.37 958.847 1752.04 960.39 1751.1C961.934 1750.14 963.747 1749.66 965.831 1749.66C967.175 1749.66 968.444 1749.88 969.637 1750.31C970.84 1750.74 971.901 1751.4 972.819 1752.3C973.747 1753.2 974.476 1754.35 975.007 1755.74C975.537 1757.12 975.802 1758.77 975.802 1760.68V1762.26H957.919V1758.79H970.873C970.864 1757.81 970.651 1756.93 970.234 1756.17C969.817 1755.39 969.235 1754.78 968.487 1754.33C967.748 1753.89 966.886 1753.67 965.902 1753.67C964.851 1753.67 963.927 1753.92 963.132 1754.43C962.336 1754.94 961.716 1755.6 961.271 1756.42C960.835 1757.24 960.613 1758.13 960.603 1759.11V1762.13C960.603 1763.4 960.835 1764.49 961.299 1765.4C961.763 1766.3 962.412 1766.99 963.245 1767.47C964.079 1767.95 965.054 1768.18 966.172 1768.18C966.92 1768.18 967.597 1768.08 968.203 1767.87C968.809 1767.65 969.334 1767.34 969.779 1766.92C970.225 1766.5 970.561 1765.99 970.788 1765.37L975.589 1765.91C975.286 1767.18 974.708 1768.29 973.856 1769.23C973.013 1770.17 971.934 1770.9 970.618 1771.42C969.301 1771.93 967.796 1772.19 966.1 1772.19Z" fill="white"/>
<path id="Vector_34" d="M931.473 1771.76V1742.67H936.615V1753.55H936.828C937.093 1753.02 937.467 1752.46 937.95 1751.86C938.433 1751.26 939.086 1750.74 939.91 1750.31C940.734 1749.88 941.785 1749.66 943.064 1749.66C944.749 1749.66 946.269 1750.09 947.623 1750.95C948.987 1751.81 950.066 1753.07 950.862 1754.75C951.667 1756.41 952.069 1758.46 952.069 1760.88C952.069 1763.28 951.676 1765.31 950.89 1766.99C950.104 1768.67 949.034 1769.95 947.68 1770.83C946.326 1771.71 944.792 1772.15 943.078 1772.15C941.828 1772.15 940.791 1771.94 939.967 1771.52C939.143 1771.11 938.48 1770.6 937.978 1770.02C937.486 1769.42 937.102 1768.86 936.828 1768.33H936.529V1771.76H931.473ZM936.515 1760.85C936.515 1762.27 936.714 1763.5 937.112 1764.56C937.519 1765.62 938.101 1766.45 938.859 1767.05C939.626 1767.63 940.554 1767.93 941.643 1767.93C942.779 1767.93 943.731 1767.63 944.498 1767.02C945.265 1766.4 945.843 1765.57 946.231 1764.5C946.629 1763.43 946.828 1762.22 946.828 1760.85C946.828 1759.5 946.634 1758.3 946.245 1757.25C945.857 1756.2 945.279 1755.37 944.512 1754.77C943.745 1754.18 942.789 1753.88 941.643 1753.88C940.545 1753.88 939.612 1754.17 938.845 1754.75C938.078 1755.32 937.495 1756.13 937.098 1757.18C936.709 1758.22 936.515 1759.44 936.515 1760.85Z" fill="white"/>
<path id="Vector_35" d="M895.348 1771.76V1749.95H900.262V1753.65H900.518C900.973 1752.4 901.725 1751.43 902.777 1750.73C903.828 1750.02 905.083 1749.66 906.541 1749.66C908.018 1749.66 909.263 1750.02 910.277 1750.74C911.299 1751.45 912.019 1752.42 912.436 1753.65H912.663C913.146 1752.44 913.96 1751.47 915.106 1750.75C916.261 1750.03 917.63 1749.66 919.211 1749.66C921.219 1749.66 922.857 1750.3 924.126 1751.56C925.395 1752.83 926.029 1754.68 926.029 1757.12V1771.76H920.873V1757.91C920.873 1756.56 920.513 1755.57 919.794 1754.95C919.074 1754.31 918.193 1753.99 917.152 1753.99C915.911 1753.99 914.94 1754.38 914.24 1755.16C913.548 1755.93 913.203 1756.92 913.203 1758.16V1771.76H908.16V1757.7C908.16 1756.57 907.819 1755.67 907.137 1755C906.465 1754.33 905.584 1753.99 904.495 1753.99C903.757 1753.99 903.084 1754.18 902.478 1754.56C901.872 1754.93 901.389 1755.46 901.029 1756.14C900.67 1756.81 900.49 1757.6 900.49 1758.5V1771.76H895.348Z" fill="white"/>
<path id="Vector_36" d="M881.296 1772.19C879.108 1772.19 877.219 1771.73 875.628 1770.83C874.047 1769.91 872.83 1768.61 871.978 1766.93C871.125 1765.25 870.699 1763.26 870.699 1760.98C870.699 1758.74 871.125 1756.77 871.978 1755.07C872.839 1753.37 874.042 1752.04 875.586 1751.1C877.129 1750.14 878.943 1749.66 881.026 1749.66C882.371 1749.66 883.64 1749.88 884.833 1750.31C886.035 1750.74 887.096 1751.4 888.015 1752.3C888.943 1753.2 889.672 1754.35 890.202 1755.74C890.732 1757.12 890.998 1758.77 890.998 1760.68V1762.26H873.114V1758.79H886.069C886.059 1757.81 885.846 1756.93 885.429 1756.17C885.013 1755.39 884.43 1754.78 883.682 1754.33C882.944 1753.89 882.082 1753.67 881.097 1753.67C880.046 1753.67 879.123 1753.92 878.327 1754.43C877.532 1754.94 876.911 1755.6 876.466 1756.42C876.031 1757.24 875.808 1758.13 875.799 1759.11V1762.13C875.799 1763.4 876.031 1764.49 876.495 1765.4C876.959 1766.3 877.607 1766.99 878.441 1767.47C879.274 1767.95 880.249 1768.18 881.367 1768.18C882.115 1768.18 882.792 1768.08 883.398 1767.87C884.004 1767.65 884.53 1767.34 884.975 1766.92C885.42 1766.5 885.756 1765.99 885.983 1765.37L890.784 1765.91C890.481 1767.18 889.904 1768.29 889.051 1769.23C888.209 1770.17 887.129 1770.9 885.813 1771.42C884.497 1771.93 882.991 1772.19 881.296 1772.19Z" fill="white"/>
<path id="Vector_37" d="M867.57 1749.95V1753.92H855.027V1749.95H867.57ZM858.124 1744.72H863.266V1765.2C863.266 1765.89 863.37 1766.42 863.578 1766.79C863.796 1767.15 864.08 1767.4 864.431 1767.53C864.781 1767.66 865.169 1767.73 865.596 1767.73C865.917 1767.73 866.211 1767.71 866.476 1767.66C866.751 1767.61 866.959 1767.57 867.101 1767.53L867.968 1771.55C867.693 1771.65 867.3 1771.75 866.789 1771.86C866.287 1771.98 865.671 1772.04 864.942 1772.06C863.654 1772.1 862.494 1771.91 861.462 1771.48C860.43 1771.04 859.611 1770.37 859.005 1769.46C858.408 1768.55 858.114 1767.42 858.124 1766.05V1744.72Z" fill="white"/>
<path id="Vector_38" d="M831.676 1779.95V1749.95H836.733V1753.55H837.031C837.296 1753.02 837.67 1752.46 838.153 1751.86C838.636 1751.26 839.289 1750.74 840.113 1750.31C840.937 1749.88 841.988 1749.66 843.267 1749.66C844.952 1749.66 846.472 1750.09 847.826 1750.95C849.19 1751.81 850.27 1753.07 851.065 1754.75C851.87 1756.41 852.272 1758.46 852.272 1760.88C852.272 1763.28 851.879 1765.31 851.093 1766.99C850.307 1768.67 849.237 1769.95 847.883 1770.83C846.529 1771.71 844.995 1772.15 843.281 1772.15C842.031 1772.15 840.994 1771.94 840.17 1771.52C839.346 1771.11 838.683 1770.6 838.181 1770.02C837.689 1769.42 837.306 1768.86 837.031 1768.33H836.818V1779.95H831.676ZM836.718 1760.85C836.718 1762.27 836.917 1763.5 837.315 1764.56C837.722 1765.62 838.305 1766.45 839.062 1767.05C839.829 1767.63 840.757 1767.93 841.846 1767.93C842.983 1767.93 843.934 1767.63 844.701 1767.02C845.468 1766.4 846.046 1765.57 846.434 1764.5C846.832 1763.43 847.031 1762.22 847.031 1760.85C847.031 1759.5 846.837 1758.3 846.449 1757.25C846.06 1756.2 845.483 1755.37 844.716 1754.77C843.949 1754.18 842.992 1753.88 841.846 1753.88C840.748 1753.88 839.815 1754.17 839.048 1754.75C838.281 1755.32 837.699 1756.13 837.301 1757.18C836.913 1758.22 836.718 1759.44 836.718 1760.85Z" fill="white"/>
<path id="Vector_39" d="M817.624 1772.19C815.436 1772.19 813.547 1771.73 811.956 1770.83C810.375 1769.91 809.158 1768.61 808.306 1766.93C807.453 1765.25 807.027 1763.26 807.027 1760.98C807.027 1758.74 807.453 1756.77 808.306 1755.07C809.167 1753.37 810.37 1752.04 811.914 1751.1C813.457 1750.14 815.271 1749.66 817.354 1749.66C818.699 1749.66 819.968 1749.88 821.161 1750.31C822.364 1750.74 823.424 1751.4 824.343 1752.3C825.271 1753.2 826 1754.35 826.53 1755.74C827.06 1757.12 827.326 1758.77 827.326 1760.68V1762.26H809.442V1758.79H822.397C822.387 1757.81 822.174 1756.93 821.757 1756.17C821.341 1755.39 820.758 1754.78 820.01 1754.33C819.272 1753.89 818.41 1753.67 817.425 1753.67C816.374 1753.67 815.451 1753.92 814.655 1754.43C813.86 1754.94 813.239 1755.6 812.794 1756.42C812.359 1757.24 812.136 1758.13 812.127 1759.11V1762.13C812.127 1763.4 812.359 1764.49 812.823 1765.4C813.287 1766.3 813.935 1766.99 814.769 1767.47C815.602 1767.95 816.578 1768.18 817.695 1768.18C818.443 1768.18 819.12 1768.08 819.726 1767.87C820.332 1767.65 820.858 1767.34 821.303 1766.92C821.748 1766.5 822.084 1765.99 822.311 1765.37L827.113 1765.91C826.81 1767.18 826.232 1768.29 825.38 1769.23C824.537 1770.17 823.457 1770.9 822.141 1771.42C820.825 1771.93 819.319 1772.19 817.624 1772.19Z" fill="white"/>
<path id="Vector_40" d="M798.025 1750.67C797.892 1749.43 797.334 1748.46 796.349 1747.77C795.373 1747.08 794.104 1746.74 792.542 1746.74C791.443 1746.74 790.501 1746.9 789.715 1747.23C788.929 1747.56 788.328 1748.01 787.911 1748.58C787.495 1749.15 787.281 1749.8 787.272 1750.53C787.272 1751.13 787.409 1751.66 787.684 1752.1C787.968 1752.55 788.352 1752.93 788.835 1753.24C789.317 1753.54 789.853 1753.8 790.44 1754.01C791.027 1754.22 791.619 1754.39 792.215 1754.53L794.942 1755.22C796.041 1755.47 797.097 1755.82 798.11 1756.25C799.133 1756.69 800.047 1757.24 800.852 1757.9C801.666 1758.56 802.31 1759.36 802.783 1760.3C803.257 1761.24 803.494 1762.34 803.494 1763.6C803.494 1765.3 803.058 1766.8 802.187 1768.1C801.316 1769.39 800.056 1770.4 798.408 1771.12C796.77 1771.84 794.786 1772.2 792.457 1772.2C790.193 1772.2 788.228 1771.85 786.562 1771.15C784.905 1770.45 783.607 1769.43 782.67 1768.08C781.742 1766.74 781.24 1765.1 781.164 1763.17H786.349C786.424 1764.18 786.737 1765.03 787.286 1765.7C787.835 1766.37 788.55 1766.87 789.431 1767.2C790.321 1767.54 791.316 1767.7 792.414 1767.7C793.56 1767.7 794.564 1767.53 795.425 1767.19C796.297 1766.84 796.978 1766.36 797.471 1765.74C797.963 1765.12 798.214 1764.39 798.224 1763.55C798.214 1762.8 797.992 1762.17 797.556 1761.68C797.121 1761.18 796.51 1760.76 795.724 1760.43C794.947 1760.09 794.038 1759.78 792.996 1759.52L789.687 1758.67C787.291 1758.05 785.397 1757.12 784.005 1755.87C782.622 1754.61 781.931 1752.94 781.931 1750.85C781.931 1749.14 782.395 1747.64 783.323 1746.35C784.261 1745.06 785.534 1744.06 787.144 1743.35C788.754 1742.63 790.577 1742.27 792.613 1742.27C794.677 1742.27 796.486 1742.63 798.039 1743.35C799.602 1744.06 800.828 1745.05 801.718 1746.32C802.608 1747.58 803.067 1749.03 803.096 1750.67H798.025Z" fill="white"/>
<path id="Vector_41" d="M916.601 1712.08C915.739 1712.08 915 1711.77 914.385 1711.17C913.769 1710.56 913.466 1709.82 913.476 1708.95C913.466 1708.1 913.769 1707.37 914.385 1706.76C915 1706.16 915.739 1705.85 916.601 1705.85C917.434 1705.85 918.159 1706.16 918.774 1706.76C919.399 1707.37 919.716 1708.1 919.726 1708.95C919.716 1709.53 919.565 1710.05 919.271 1710.53C918.987 1711 918.608 1711.38 918.135 1711.66C917.671 1711.94 917.16 1712.08 916.601 1712.08Z" fill="white"/>
<path id="Vector_42" d="M898.757 1712.16C896.645 1712.16 894.77 1711.81 893.132 1711.1C891.503 1710.39 890.225 1709.42 889.297 1708.18C888.378 1706.94 887.923 1705.54 887.933 1703.97C887.923 1702.74 888.189 1701.62 888.728 1700.6C889.268 1699.58 889.997 1698.72 890.916 1698.04C891.844 1697.35 892.876 1696.91 894.012 1696.72V1696.52C892.516 1696.19 891.304 1695.43 890.376 1694.24C889.457 1693.03 889.003 1691.65 889.012 1690.07C889.003 1688.58 889.42 1687.24 890.262 1686.07C891.105 1684.89 892.261 1683.97 893.728 1683.3C895.196 1682.62 896.872 1682.27 898.757 1682.27C900.622 1682.27 902.284 1682.62 903.743 1683.3C905.21 1683.97 906.366 1684.89 907.208 1686.07C908.061 1687.24 908.487 1688.58 908.487 1690.07C908.487 1691.65 908.018 1693.03 907.081 1694.24C906.153 1695.43 904.955 1696.19 903.487 1696.52V1696.72C904.623 1696.91 905.646 1697.35 906.555 1698.04C907.474 1698.72 908.203 1699.58 908.743 1700.6C909.292 1701.62 909.566 1702.74 909.566 1703.97C909.566 1705.54 909.102 1706.94 908.174 1708.18C907.246 1709.42 905.968 1710.39 904.339 1711.1C902.72 1711.81 900.859 1712.16 898.757 1712.16ZM898.757 1708.1C899.846 1708.1 900.793 1707.91 901.598 1707.54C902.403 1707.17 903.028 1706.64 903.473 1705.95C903.918 1705.27 904.145 1704.49 904.154 1703.6C904.145 1702.67 903.904 1701.85 903.43 1701.14C902.966 1700.42 902.327 1699.86 901.512 1699.45C900.707 1699.04 899.789 1698.84 898.757 1698.84C897.715 1698.84 896.787 1699.04 895.973 1699.45C895.158 1699.86 894.514 1700.42 894.041 1701.14C893.577 1701.85 893.35 1702.67 893.359 1703.6C893.35 1704.49 893.567 1705.27 894.012 1705.95C894.457 1706.63 895.082 1707.15 895.887 1707.53C896.702 1707.91 897.658 1708.1 898.757 1708.1ZM898.757 1694.85C899.647 1694.85 900.433 1694.67 901.115 1694.31C901.806 1693.95 902.35 1693.44 902.748 1692.8C903.146 1692.16 903.35 1691.41 903.359 1690.57C903.35 1689.74 903.151 1689.01 902.762 1688.38C902.374 1687.75 901.834 1687.26 901.143 1686.92C900.452 1686.57 899.656 1686.39 898.757 1686.39C897.838 1686.39 897.029 1686.57 896.328 1686.92C895.636 1687.26 895.097 1687.75 894.708 1688.38C894.33 1689.01 894.145 1689.74 894.154 1690.57C894.145 1691.41 894.334 1692.16 894.723 1692.8C895.12 1693.43 895.665 1693.94 896.356 1694.31C897.057 1694.67 897.857 1694.85 898.757 1694.85Z" fill="white"/>
<path id="Vector_43" d="M863.572 1711.76V1707.96L873.671 1698.06C874.637 1697.08 875.442 1696.21 876.086 1695.46C876.73 1694.7 877.213 1693.97 877.535 1693.26C877.857 1692.54 878.018 1691.79 878.018 1690.98C878.018 1690.06 877.81 1689.28 877.393 1688.62C876.976 1687.96 876.403 1687.45 875.674 1687.09C874.945 1686.73 874.116 1686.55 873.188 1686.55C872.232 1686.55 871.394 1686.75 870.674 1687.15C869.954 1687.54 869.396 1688.09 868.998 1688.81C868.61 1689.53 868.416 1690.39 868.416 1691.38H863.401C863.401 1689.53 863.823 1687.93 864.666 1686.56C865.508 1685.2 866.668 1684.15 868.146 1683.4C869.632 1682.65 871.337 1682.27 873.259 1682.27C875.21 1682.27 876.924 1682.64 878.401 1683.37C879.879 1684.1 881.024 1685.1 881.839 1686.37C882.663 1687.63 883.075 1689.08 883.075 1690.71C883.075 1691.8 882.866 1692.87 882.45 1693.92C882.033 1694.97 881.299 1696.14 880.248 1697.42C879.206 1698.7 877.743 1700.24 875.859 1702.06L870.845 1707.16V1707.36H883.515V1711.76H863.572Z" fill="white"/>
<path id="Vector_44" d="M860.986 1695.1V1699.33H840.986V1695.1H860.986Z" fill="white"/>
<path id="Vector_45" d="M835.195 1712.08C834.333 1712.08 833.594 1711.77 832.979 1711.17C832.363 1710.56 832.06 1709.82 832.07 1708.95C832.06 1708.1 832.363 1707.37 832.979 1706.76C833.594 1706.16 834.333 1705.85 835.195 1705.85C836.028 1705.85 836.752 1706.16 837.368 1706.76C837.993 1707.37 838.31 1708.1 838.32 1708.95C838.31 1709.53 838.159 1710.05 837.865 1710.53C837.581 1711 837.202 1711.38 836.729 1711.66C836.265 1711.94 835.753 1712.08 835.195 1712.08Z" fill="white"/>
<path id="Vector_46" d="M817.215 1712.16C815.17 1712.16 813.352 1711.81 811.761 1711.11C810.179 1710.41 808.929 1709.43 808.011 1708.18C807.092 1706.93 806.605 1705.49 806.548 1703.85H811.889C811.936 1704.64 812.197 1705.32 812.67 1705.91C813.143 1706.49 813.773 1706.94 814.559 1707.26C815.345 1707.58 816.226 1707.74 817.201 1707.74C818.243 1707.74 819.166 1707.56 819.971 1707.2C820.776 1706.83 821.406 1706.32 821.86 1705.67C822.315 1705.02 822.537 1704.26 822.528 1703.41C822.537 1702.53 822.31 1701.75 821.846 1701.08C821.382 1700.41 820.71 1699.88 819.829 1699.51C818.958 1699.13 817.907 1698.94 816.676 1698.94H814.105V1694.87H816.676C817.689 1694.87 818.574 1694.7 819.332 1694.35C820.099 1694 820.7 1693.51 821.136 1692.87C821.572 1692.23 821.785 1691.48 821.775 1690.64C821.785 1689.82 821.6 1689.1 821.221 1688.5C820.852 1687.88 820.326 1687.4 819.644 1687.06C818.972 1686.72 818.181 1686.55 817.272 1686.55C816.382 1686.55 815.558 1686.71 814.801 1687.03C814.043 1687.36 813.432 1687.81 812.968 1688.41C812.504 1689 812.258 1689.7 812.23 1690.51H807.159C807.197 1688.88 807.665 1687.45 808.565 1686.22C809.474 1684.98 810.686 1684.02 812.201 1683.33C813.716 1682.63 815.416 1682.27 817.301 1682.27C819.242 1682.27 820.928 1682.64 822.358 1683.37C823.797 1684.09 824.91 1685.06 825.696 1686.28C826.482 1687.5 826.875 1688.85 826.875 1690.33C826.884 1691.97 826.401 1693.34 825.426 1694.45C824.46 1695.56 823.191 1696.28 821.619 1696.62V1696.85C823.664 1697.13 825.232 1697.89 826.321 1699.12C827.419 1700.34 827.964 1701.86 827.954 1703.68C827.954 1705.31 827.49 1706.77 826.562 1708.06C825.643 1709.33 824.375 1710.34 822.755 1711.07C821.145 1711.8 819.299 1712.16 817.215 1712.16Z" fill="white"/>
<path id="Vector_47" d="M781.931 1711.76V1707.96L792.031 1698.06C792.997 1697.08 793.801 1696.21 794.445 1695.46C795.089 1694.7 795.572 1693.97 795.894 1693.26C796.216 1692.54 796.377 1691.79 796.377 1690.98C796.377 1690.06 796.169 1689.28 795.752 1688.62C795.336 1687.96 794.763 1687.45 794.033 1687.09C793.304 1686.73 792.476 1686.55 791.548 1686.55C790.591 1686.55 789.753 1686.75 789.033 1687.15C788.314 1687.54 787.755 1688.09 787.357 1688.81C786.969 1689.53 786.775 1690.39 786.775 1691.38H781.761C781.761 1689.53 782.182 1687.93 783.025 1686.56C783.868 1685.2 785.028 1684.15 786.505 1683.4C787.992 1682.65 789.696 1682.27 791.619 1682.27C793.569 1682.27 795.283 1682.64 796.761 1683.37C798.238 1684.1 799.384 1685.1 800.198 1686.37C801.022 1687.63 801.434 1689.08 801.434 1690.71C801.434 1691.8 801.226 1692.87 800.809 1693.92C800.392 1694.97 799.658 1696.14 798.607 1697.42C797.566 1698.7 796.103 1700.24 794.218 1702.06L789.204 1707.16V1707.36H801.874V1711.76H781.931Z" fill="white"/>
</g>
<g id="Title">
<g id="Vector_48" filter="url(#filter0_dd_16_310)">
<path d="M788.702 1426V1278.73H834.245V1305.57H835.78C838.464 1295.86 842.843 1288.64 848.915 1283.9C854.988 1279.11 862.051 1276.71 870.105 1276.71C872.278 1276.71 874.515 1276.87 876.816 1277.19C879.118 1277.45 881.259 1277.86 883.24 1278.44V1319.19C881.003 1318.42 878.063 1317.81 874.419 1317.37C870.84 1316.92 867.644 1316.7 864.831 1316.7C859.27 1316.7 854.253 1317.94 849.778 1320.44C845.368 1322.86 841.884 1326.28 839.327 1330.69C836.834 1335.04 835.588 1340.15 835.588 1346.04V1426H788.702Z" fill="white"/>
</g>
<g id="Vector_49" filter="url(#filter1_dd_16_310)">
<path d="M686.759 1428.78C671.354 1428.78 658.059 1425.74 646.873 1419.67C635.751 1413.54 627.185 1404.81 621.177 1393.5C615.232 1382.12 612.26 1368.6 612.26 1352.94C612.26 1337.73 615.264 1324.43 621.273 1313.05C627.281 1301.61 635.751 1292.73 646.681 1286.4C657.611 1280.01 670.491 1276.81 685.321 1276.81C695.804 1276.81 705.392 1278.44 714.085 1281.7C722.778 1284.96 730.289 1289.79 736.617 1296.18C742.945 1302.57 747.867 1310.46 751.383 1319.86C754.898 1329.19 756.656 1339.9 756.656 1351.98V1363.68H628.655V1336.45H713.03C712.966 1331.46 711.784 1327.02 709.483 1323.12C707.182 1319.22 704.018 1316.18 699.991 1314.01C696.028 1311.77 691.457 1310.66 686.28 1310.66C681.038 1310.66 676.34 1311.84 672.185 1314.2C668.03 1316.5 664.738 1319.67 662.31 1323.7C659.881 1327.66 658.602 1332.16 658.474 1337.21V1364.92C658.474 1370.93 659.657 1376.21 662.022 1380.74C664.387 1385.22 667.743 1388.7 672.089 1391.2C676.436 1393.69 681.613 1394.93 687.622 1394.93C691.777 1394.93 695.548 1394.36 698.936 1393.21C702.324 1392.06 705.232 1390.36 707.661 1388.13C710.09 1385.89 711.912 1383.14 713.126 1379.88L756.177 1381.13C754.387 1390.78 750.456 1399.19 744.383 1406.34C738.375 1413.44 730.481 1418.97 720.701 1422.93C710.921 1426.83 699.607 1428.78 686.759 1428.78Z" fill="white"/>
</g>
<g id="Vector_50" filter="url(#filter2_dd_16_310)">
<path d="M490.901 1428.11C480.035 1428.11 470.159 1425.3 461.274 1419.67C452.389 1414.05 445.294 1405.61 439.988 1394.36C434.683 1383.11 432.03 1369.14 432.03 1352.46C432.03 1335.14 434.779 1320.88 440.276 1309.7C445.773 1298.51 452.964 1290.23 461.849 1284.86C470.798 1279.49 480.418 1276.81 490.709 1276.81C498.444 1276.81 505.059 1278.15 510.557 1280.84C516.054 1283.46 520.592 1286.85 524.172 1291C527.751 1295.15 530.468 1299.47 532.321 1303.94H533.28V1229.64H580.166V1426H533.76V1402.13H532.321C530.34 1406.66 527.527 1410.91 523.884 1414.88C520.241 1418.84 515.67 1422.04 510.173 1424.47C504.74 1426.89 498.316 1428.11 490.901 1428.11ZM507.201 1391.58C512.89 1391.58 517.748 1389.98 521.775 1386.78C525.802 1383.52 528.902 1378.95 531.075 1373.07C533.248 1367.19 534.335 1360.29 534.335 1352.36C534.335 1344.31 533.248 1337.37 531.075 1331.56C528.966 1325.74 525.866 1321.27 521.775 1318.13C517.748 1315 512.89 1313.44 507.201 1313.44C501.384 1313.44 496.462 1315.03 492.435 1318.23C488.408 1321.43 485.34 1325.93 483.231 1331.75C481.185 1337.57 480.162 1344.44 480.162 1352.36C480.162 1360.29 481.217 1367.19 483.326 1373.07C485.436 1378.95 488.472 1383.52 492.435 1386.78C496.462 1389.98 501.384 1391.58 507.201 1391.58Z" fill="white"/>
</g>
<g id="Vector_51" filter="url(#filter3_dd_16_310)">
<path d="M399.169 1229.64V1426H352.283V1229.64H399.169Z" fill="white"/>
</g>
<g id="Vector_52" filter="url(#filter4_dd_16_310)">
<path d="M267.454 1426V1278.73H314.34V1426H267.454ZM290.945 1261.56C284.361 1261.56 278.704 1259.39 273.974 1255.04C269.244 1250.63 266.879 1245.33 266.879 1239.13C266.879 1232.99 269.244 1227.75 273.974 1223.4C278.704 1218.99 284.361 1216.79 290.945 1216.79C297.593 1216.79 303.25 1218.99 307.916 1223.4C312.646 1227.75 315.011 1232.99 315.011 1239.13C315.011 1245.33 312.646 1250.63 307.916 1255.04C303.25 1259.39 297.593 1261.56 290.945 1261.56Z" fill="white"/>
</g>
<g id="Vector_53" filter="url(#filter5_dd_16_310)">
<path d="M86.6494 1426V1229.64H133.535V1303.94H134.494C136.411 1299.47 139.128 1295.15 142.644 1291C146.223 1286.85 150.762 1283.46 156.259 1280.84C161.82 1278.15 168.468 1276.81 176.202 1276.81C186.429 1276.81 195.985 1279.49 204.87 1284.86C213.819 1290.23 221.042 1298.51 226.539 1309.7C232.036 1320.88 234.785 1335.14 234.785 1352.46C234.785 1369.14 232.132 1383.11 226.827 1394.36C221.585 1405.61 214.49 1414.05 205.541 1419.67C196.657 1425.3 186.781 1428.11 175.914 1428.11C168.5 1428.11 162.076 1426.89 156.642 1424.47C151.209 1422.04 146.639 1418.84 142.931 1414.88C139.288 1410.91 136.475 1406.66 134.494 1402.13H133.056V1426H86.6494ZM132.576 1352.36C132.576 1360.29 133.631 1367.19 135.74 1373.07C137.914 1378.95 141.014 1383.52 145.041 1386.78C149.132 1389.98 154.022 1391.58 159.711 1391.58C165.463 1391.58 170.353 1389.98 174.38 1386.78C178.407 1383.52 181.443 1378.95 183.489 1373.07C185.598 1367.19 186.653 1360.29 186.653 1352.36C186.653 1344.44 185.598 1337.57 183.489 1331.75C181.443 1325.93 178.407 1321.43 174.38 1318.23C170.417 1315.03 165.527 1313.44 159.711 1313.44C153.958 1313.44 149.068 1315 145.041 1318.13C141.014 1321.27 137.914 1325.74 135.74 1331.56C133.631 1337.37 132.576 1344.31 132.576 1352.36Z" fill="white"/>
</g>
<g id="Vector_54" filter="url(#filter6_dd_16_310)">
<path d="M765.381 1027.73V1062.24H672.473V1027.73H765.381ZM691.936 992.443H738.822V1128.69C738.822 1131.57 739.27 1133.9 740.164 1135.69C741.123 1137.41 742.498 1138.66 744.287 1139.43C746.077 1140.13 748.218 1140.48 750.711 1140.48C752.501 1140.48 754.387 1140.32 756.368 1140C758.414 1139.62 759.948 1139.3 760.971 1139.04L768.066 1172.89C765.829 1173.53 762.664 1174.33 758.574 1175.29C754.547 1176.25 749.721 1176.85 744.096 1177.11C733.101 1177.62 723.673 1176.34 715.811 1173.27C708.012 1170.14 702.036 1165.28 697.881 1158.7C693.79 1152.12 691.809 1143.84 691.936 1133.87V992.443Z" fill="white"/>
</g>
<g id="Vector_55" filter="url(#filter7_dd_16_310)">
<path d="M549.388 1091.01V1175H502.502V978.636H547.854V1054.77H549.483C552.807 1045.69 558.241 1038.59 565.783 1033.48C573.39 1028.37 582.69 1025.81 593.684 1025.81C604.04 1025.81 613.052 1028.11 620.723 1032.71C628.393 1037.25 634.338 1043.68 638.557 1051.98C642.839 1060.29 644.949 1070.01 644.885 1081.13V1175H597.999V1090.34C598.063 1082.16 596.018 1075.76 591.863 1071.16C587.708 1066.56 581.859 1064.26 574.317 1064.26C569.395 1064.26 565.048 1065.34 561.277 1067.52C557.569 1069.63 554.661 1072.66 552.552 1076.63C550.506 1080.59 549.452 1085.38 549.388 1091.01Z" fill="white"/>
</g>
<g id="Vector_56" filter="url(#filter8_dd_16_310)">
<path d="M402.045 1177.78C386.512 1177.78 373.185 1174.58 362.063 1168.19C351.005 1161.8 342.503 1152.92 336.559 1141.54C330.614 1130.1 327.642 1116.86 327.642 1101.84C327.642 1086.76 330.614 1073.53 336.559 1062.15C342.567 1050.71 351.1 1041.79 362.159 1035.4C373.281 1029.01 386.544 1025.81 401.949 1025.81C415.564 1025.81 427.421 1028.27 437.521 1033.19C447.684 1038.11 455.61 1045.08 461.299 1054.09C467.052 1063.04 470.088 1073.56 470.408 1085.64H426.59C425.696 1078.1 423.139 1072.18 418.92 1067.9C414.765 1063.62 409.332 1061.48 402.62 1061.48C397.187 1061.48 392.425 1063.01 388.334 1066.08C384.243 1069.08 381.047 1073.56 378.746 1079.5C376.509 1085.38 375.39 1092.67 375.39 1101.36C375.39 1110.06 376.509 1117.41 378.746 1123.42C381.047 1129.36 384.243 1133.87 388.334 1136.94C392.425 1139.94 397.187 1141.44 402.62 1141.44C406.967 1141.44 410.802 1140.51 414.126 1138.66C417.514 1136.81 420.294 1134.09 422.468 1130.51C424.641 1126.87 426.015 1122.46 426.59 1117.28H470.408C469.96 1129.42 466.924 1140.04 461.299 1149.11C455.738 1158.19 447.908 1165.25 437.809 1170.3C427.773 1175.29 415.852 1177.78 402.045 1177.78Z" fill="white"/>
</g>
<g id="Vector_57" filter="url(#filter9_dd_16_310)">
<path d="M248.47 1175V1027.73H295.355V1175H248.47ZM271.961 1010.56C265.377 1010.56 259.72 1008.39 254.99 1004.04C250.26 999.634 247.895 994.329 247.895 988.129C247.895 981.992 250.26 976.751 254.99 972.404C259.72 967.994 265.377 965.788 271.961 965.788C278.608 965.788 284.265 967.994 288.931 972.404C293.662 976.751 296.027 981.992 296.027 988.129C296.027 994.329 293.662 999.634 288.931 1004.04C284.265 1008.39 278.608 1010.56 271.961 1010.56Z" fill="white"/>
</g>
<g id="Vector_58" filter="url(#filter10_dd_16_310)">
<path d="M86.6494 1175V978.636H134.11V1136.46H215.801V1175H86.6494Z" fill="white"/>
</g>
</g>
</g>
<defs>
<filter id="filter0_dd_16_310" x="748.702" y="1240.71" width="174.538" height="229.286" filterUnits="userSpaceOnUse" color-interpolation-filters="sRGB">
<feFlood flood-opacity="0" result="BackgroundImageFix"/>
<feColorMatrix in="SourceAlpha" type="matrix" values="0 0 0 0 0 0 0 0 0 0 0 0 0 0 0 0 0 0 127 0" result="hardAlpha"/>
<feOffset dy="4"/>
<feGaussianBlur stdDeviation="10"/>
<feComposite in2="hardAlpha" operator="out"/>
<feColorMatrix type="matrix" values="0 0 0 0 0 0 0 0 0 0 0 0 0 0 0 0 0 0 0.25 0"/>
<feBlend mode="normal" in2="BackgroundImageFix" result="effect1_dropShadow_16_310"/>
<feColorMatrix in="SourceAlpha" type="matrix" values="0 0 0 0 0 0 0 0 0 0 0 0 0 0 0 0 0 0 127 0" result="hardAlpha"/>
<feOffset dy="4"/>
<feGaussianBlur stdDeviation="20"/>
<feComposite in2="hardAlpha" operator="out"/>
<feColorMatrix type="matrix" values="0 0 0 0 0 0 0 0 0 0 0 0 0 0 0 0 0 0 0.25 0"/>
<feBlend mode="normal" in2="effect1_dropShadow_16_310" result="effect2_dropShadow_16_310"/>
<feBlend mode="normal" in="SourceGraphic" in2="effect2_dropShadow_16_310" result="shape"/>
</filter>
<filter id="filter1_dd_16_310" x="572.26" y="1240.81" width="224.396" height="231.971" filterUnits="userSpaceOnUse" color-interpolation-filters="sRGB">
<feFlood flood-opacity="0" result="BackgroundImageFix"/>
<feColorMatrix in="SourceAlpha" type="matrix" values="0 0 0 0 0 0 0 0 0 0 0 0 0 0 0 0 0 0 127 0" result="hardAlpha"/>
<feOffset dy="4"/>
<feGaussianBlur stdDeviation="10"/>
<feComposite in2="hardAlpha" operator="out"/>
<feColorMatrix type="matrix" values="0 0 0 0 0 0 0 0 0 0 0 0 0 0 0 0 0 0 0.25 0"/>
<feBlend mode="normal" in2="BackgroundImageFix" result="effect1_dropShadow_16_310"/>
<feColorMatrix in="SourceAlpha" type="matrix" values="0 0 0 0 0 0 0 0 0 0 0 0 0 0 0 0 0 0 127 0" result="hardAlpha"/>
<feOffset dy="4"/>
<feGaussianBlur stdDeviation="20"/>
<feComposite in2="hardAlpha" operator="out"/>
<feColorMatrix type="matrix" values="0 0 0 0 0 0 0 0 0 0 0 0 0 0 0 0 0 0 0.25 0"/>
<feBlend mode="normal" in2="effect1_dropShadow_16_310" result="effect2_dropShadow_16_310"/>
<feBlend mode="normal" in="SourceGraphic" in2="effect2_dropShadow_16_310" result="shape"/>
</filter>
<filter id="filter2_dd_16_310" x="392.03" y="1193.64" width="228.136" height="278.473" filterUnits="userSpaceOnUse" color-interpolation-filters="sRGB">
<feFlood flood-opacity="0" result="BackgroundImageFix"/>
<feColorMatrix in="SourceAlpha" type="matrix" values="0 0 0 0 0 0 0 0 0 0 0 0 0 0 0 0 0 0 127 0" result="hardAlpha"/>
<feOffset dy="4"/>
<feGaussianBlur stdDeviation="10"/>
<feComposite in2="hardAlpha" operator="out"/>
<feColorMatrix type="matrix" values="0 0 0 0 0 0 0 0 0 0 0 0 0 0 0 0 0 0 0.25 0"/>
<feBlend mode="normal" in2="BackgroundImageFix" result="effect1_dropShadow_16_310"/>
<feColorMatrix in="SourceAlpha" type="matrix" values="0 0 0 0 0 0 0 0 0 0 0 0 0 0 0 0 0 0 127 0" result="hardAlpha"/>
<feOffset dy="4"/>
<feGaussianBlur stdDeviation="20"/>
<feComposite in2="hardAlpha" operator="out"/>
<feColorMatrix type="matrix" values="0 0 0 0 0 0 0 0 0 0 0 0 0 0 0 0 0 0 0.25 0"/>
<feBlend mode="normal" in2="effect1_dropShadow_16_310" result="effect2_dropShadow_16_310"/>
<feBlend mode="normal" in="SourceGraphic" in2="effect2_dropShadow_16_310" result="shape"/>
</filter>
<filter id="filter3_dd_16_310" x="312.283" y="1193.64" width="126.886" height="276.364" filterUnits="userSpaceOnUse" color-interpolation-filters="sRGB">
<feFlood flood-opacity="0" result="BackgroundImageFix"/>
<feColorMatrix in="SourceAlpha" type="matrix" values="0 0 0 0 0 0 0 0 0 0 0 0 0 0 0 0 0 0 127 0" result="hardAlpha"/>
<feOffset dy="4"/>
<feGaussianBlur stdDeviation="10"/>
<feComposite in2="hardAlpha" operator="out"/>
<feColorMatrix type="matrix" values="0 0 0 0 0 0 0 0 0 0 0 0 0 0 0 0 0 0 0.25 0"/>
<feBlend mode="normal" in2="BackgroundImageFix" result="effect1_dropShadow_16_310"/>
<feColorMatrix in="SourceAlpha" type="matrix" values="0 0 0 0 0 0 0 0 0 0 0 0 0 0 0 0 0 0 127 0" result="hardAlpha"/>
<feOffset dy="4"/>
<feGaussianBlur stdDeviation="20"/>
<feComposite in2="hardAlpha" operator="out"/>
<feColorMatrix type="matrix" values="0 0 0 0 0 0 0 0 0 0 0 0 0 0 0 0 0 0 0.25 0"/>
<feBlend mode="normal" in2="effect1_dropShadow_16_310" result="effect2_dropShadow_16_310"/>
<feBlend mode="normal" in="SourceGraphic" in2="effect2_dropShadow_16_310" result="shape"/>
</filter>
<filter id="filter4_dd_16_310" x="226.879" y="1180.79" width="128.132" height="289.212" filterUnits="userSpaceOnUse" color-interpolation-filters="sRGB">
<feFlood flood-opacity="0" result="BackgroundImageFix"/>
<feColorMatrix in="SourceAlpha" type="matrix" values="0 0 0 0 0 0 0 0 0 0 0 0 0 0 0 0 0 0 127 0" result="hardAlpha"/>
<feOffset dy="4"/>
<feGaussianBlur stdDeviation="10"/>
<feComposite in2="hardAlpha" operator="out"/>
<feColorMatrix type="matrix" values="0 0 0 0 0 0 0 0 0 0 0 0 0 0 0 0 0 0 0.25 0"/>
<feBlend mode="normal" in2="BackgroundImageFix" result="effect1_dropShadow_16_310"/>
<feColorMatrix in="SourceAlpha" type="matrix" values="0 0 0 0 0 0 0 0 0 0 0 0 0 0 0 0 0 0 127 0" result="hardAlpha"/>
<feOffset dy="4"/>
<feGaussianBlur stdDeviation="20"/>
<feComposite in2="hardAlpha" operator="out"/>
<feColorMatrix type="matrix" values="0 0 0 0 0 0 0 0 0 0 0 0 0 0 0 0 0 0 0.25 0"/>
<feBlend mode="normal" in2="effect1_dropShadow_16_310" result="effect2_dropShadow_16_310"/>
<feBlend mode="normal" in="SourceGraphic" in2="effect2_dropShadow_16_310" result="shape"/>
</filter>
<filter id="filter5_dd_16_310" x="46.6494" y="1193.64" width="228.136" height="278.473" filterUnits="userSpaceOnUse" color-interpolation-filters="sRGB">
<feFlood flood-opacity="0" result="BackgroundImageFix"/>
<feColorMatrix in="SourceAlpha" type="matrix" values="0 0 0 0 0 0 0 0 0 0 0 0 0 0 0 0 0 0 127 0" result="hardAlpha"/>
<feOffset dy="4"/>
<feGaussianBlur stdDeviation="10"/>
<feComposite in2="hardAlpha" operator="out"/>
<feColorMatrix type="matrix" values="0 0 0 0 0 0 0 0 0 0 0 0 0 0 0 0 0 0 0.25 0"/>
<feBlend mode="normal" in2="BackgroundImageFix" result="effect1_dropShadow_16_310"/>
<feColorMatrix in="SourceAlpha" type="matrix" values="0 0 0 0 0 0 0 0 0 0 0 0 0 0 0 0 0 0 127 0" result="hardAlpha"/>
<feOffset dy="4"/>
<feGaussianBlur stdDeviation="20"/>
<feComposite in2="hardAlpha" operator="out"/>
<feColorMatrix type="matrix" values="0 0 0 0 0 0 0 0 0 0 0 0 0 0 0 0 0 0 0.25 0"/>
<feBlend mode="normal" in2="effect1_dropShadow_16_310" result="effect2_dropShadow_16_310"/>
<feBlend mode="normal" in="SourceGraphic" in2="effect2_dropShadow_16_310" result="shape"/>
</filter>
<filter id="filter6_dd_16_310" x="632.473" y="956.443" width="175.593" height="264.776" filterUnits="userSpaceOnUse" color-interpolation-filters="sRGB">
<feFlood flood-opacity="0" result="BackgroundImageFix"/>
<feColorMatrix in="SourceAlpha" type="matrix" values="0 0 0 0 0 0 0 0 0 0 0 0 0 0 0 0 0 0 127 0" result="hardAlpha"/>
<feOffset dy="4"/>
<feGaussianBlur stdDeviation="10"/>
<feComposite in2="hardAlpha" operator="out"/>
<feColorMatrix type="matrix" values="0 0 0 0 0 0 0 0 0 0 0 0 0 0 0 0 0 0 0.25 0"/>
<feBlend mode="normal" in2="BackgroundImageFix" result="effect1_dropShadow_16_310"/>
<feColorMatrix in="SourceAlpha" type="matrix" values="0 0 0 0 0 0 0 0 0 0 0 0 0 0 0 0 0 0 127 0" result="hardAlpha"/>
<feOffset dy="4"/>
<feGaussianBlur stdDeviation="20"/>
<feComposite in2="hardAlpha" operator="out"/>
<feColorMatrix type="matrix" values="0 0 0 0 0 0 0 0 0 0 0 0 0 0 0 0 0 0 0.25 0"/>
<feBlend mode="normal" in2="effect1_dropShadow_16_310" result="effect2_dropShadow_16_310"/>
<feBlend mode="normal" in="SourceGraphic" in2="effect2_dropShadow_16_310" result="shape"/>
</filter>
<filter id="filter7_dd_16_310" x="462.502" y="942.636" width="222.384" height="276.364" filterUnits="userSpaceOnUse" color-interpolation-filters="sRGB">
<feFlood flood-opacity="0" result="BackgroundImageFix"/>
<feColorMatrix in="SourceAlpha" type="matrix" values="0 0 0 0 0 0 0 0 0 0 0 0 0 0 0 0 0 0 127 0" result="hardAlpha"/>
<feOffset dy="4"/>
<feGaussianBlur stdDeviation="10"/>
<feComposite in2="hardAlpha" operator="out"/>
<feColorMatrix type="matrix" values="0 0 0 0 0 0 0 0 0 0 0 0 0 0 0 0 0 0 0.25 0"/>
<feBlend mode="normal" in2="BackgroundImageFix" result="effect1_dropShadow_16_310"/>
<feColorMatrix in="SourceAlpha" type="matrix" values="0 0 0 0 0 0 0 0 0 0 0 0 0 0 0 0 0 0 127 0" result="hardAlpha"/>
<feOffset dy="4"/>
<feGaussianBlur stdDeviation="20"/>
<feComposite in2="hardAlpha" operator="out"/>
<feColorMatrix type="matrix" values="0 0 0 0 0 0 0 0 0 0 0 0 0 0 0 0 0 0 0.25 0"/>
<feBlend mode="normal" in2="effect1_dropShadow_16_310" result="effect2_dropShadow_16_310"/>
<feBlend mode="normal" in="SourceGraphic" in2="effect2_dropShadow_16_310" result="shape"/>
</filter>
<filter id="filter8_dd_16_310" x="287.642" y="989.81" width="222.767" height="231.971" filterUnits="userSpaceOnUse" color-interpolation-filters="sRGB">
<feFlood flood-opacity="0" result="BackgroundImageFix"/>
<feColorMatrix in="SourceAlpha" type="matrix" values="0 0 0 0 0 0 0 0 0 0 0 0 0 0 0 0 0 0 127 0" result="hardAlpha"/>
<feOffset dy="4"/>
<feGaussianBlur stdDeviation="10"/>
<feComposite in2="hardAlpha" operator="out"/>
<feColorMatrix type="matrix" values="0 0 0 0 0 0 0 0 0 0 0 0 0 0 0 0 0 0 0.25 0"/>
<feBlend mode="normal" in2="BackgroundImageFix" result="effect1_dropShadow_16_310"/>
<feColorMatrix in="SourceAlpha" type="matrix" values="0 0 0 0 0 0 0 0 0 0 0 0 0 0 0 0 0 0 127 0" result="hardAlpha"/>
<feOffset dy="4"/>
<feGaussianBlur stdDeviation="20"/>
<feComposite in2="hardAlpha" operator="out"/>
<feColorMatrix type="matrix" values="0 0 0 0 0 0 0 0 0 0 0 0 0 0 0 0 0 0 0.25 0"/>
<feBlend mode="normal" in2="effect1_dropShadow_16_310" result="effect2_dropShadow_16_310"/>
<feBlend mode="normal" in="SourceGraphic" in2="effect2_dropShadow_16_310" result="shape"/>
</filter>
<filter id="filter9_dd_16_310" x="207.895" y="929.788" width="128.132" height="289.212" filterUnits="userSpaceOnUse" color-interpolation-filters="sRGB">
<feFlood flood-opacity="0" result="BackgroundImageFix"/>
<feColorMatrix in="SourceAlpha" type="matrix" values="0 0 0 0 0 0 0 0 0 0 0 0 0 0 0 0 0 0 127 0" result="hardAlpha"/>
<feOffset dy="4"/>
<feGaussianBlur stdDeviation="10"/>
<feComposite in2="hardAlpha" operator="out"/>
<feColorMatrix type="matrix" values="0 0 0 0 0 0 0 0 0 0 0 0 0 0 0 0 0 0 0.25 0"/>
<feBlend mode="normal" in2="BackgroundImageFix" result="effect1_dropShadow_16_310"/>
<feColorMatrix in="SourceAlpha" type="matrix" values="0 0 0 0 0 0 0 0 0 0 0 0 0 0 0 0 0 0 127 0" result="hardAlpha"/>
<feOffset dy="4"/>
<feGaussianBlur stdDeviation="20"/>
<feComposite in2="hardAlpha" operator="out"/>
<feColorMatrix type="matrix" values="0 0 0 0 0 0 0 0 0 0 0 0 0 0 0 0 0 0 0.25 0"/>
<feBlend mode="normal" in2="effect1_dropShadow_16_310" result="effect2_dropShadow_16_310"/>
<feBlend mode="normal" in="SourceGraphic" in2="effect2_dropShadow_16_310" result="shape"/>
</filter>
<filter id="filter10_dd_16_310" x="46.6494" y="942.636" width="209.151" height="276.364" filterUnits="userSpaceOnUse" color-interpolation-filters="sRGB">
<feFlood flood-opacity="0" result="BackgroundImageFix"/>
<feColorMatrix in="SourceAlpha" type="matrix" values="0 0 0 0 0 0 0 0 0 0 0 0 0 0 0 0 0 0 127 0" result="hardAlpha"/>
<feOffset dy="4"/>
<feGaussianBlur stdDeviation="10"/>
<feComposite in2="hardAlpha" operator="out"/>
<feColorMatrix type="matrix" values="0 0 0 0 0 0 0 0 0 0 0 0 0 0 0 0 0 0 0.25 0"/>
<feBlend mode="normal" in2="BackgroundImageFix" result="effect1_dropShadow_16_310"/>
<feColorMatrix in="SourceAlpha" type="matrix" values="0 0 0 0 0 0 0 0 0 0 0 0 0 0 0 0 0 0 127 0" result="hardAlpha"/>
<feOffset dy="4"/>
<feGaussianBlur stdDeviation="20"/>
<feComposite in2="hardAlpha" operator="out"/>
<feColorMatrix type="matrix" values="0 0 0 0 0 0 0 0 0 0 0 0 0 0 0 0 0 0 0.25 0"/>
<feBlend mode="normal" in2="effect1_dropShadow_16_310" result="effect2_dropShadow_16_310"/>
<feBlend mode="normal" in="SourceGraphic" in2="effect2_dropShadow_16_310" result="shape"/>
</filter>
</defs>
</svg>
